G04 Layer_Color=16711935*
%FSLAX23Y23*%
%MOIN*%
G70*
G01*
G75*
%ADD48C,0.060*%
%ADD49C,0.070*%
%ADD50R,0.070X0.070*%
%ADD104C,0.078*%
%ADD105R,0.078X0.078*%
%ADD106C,0.067*%
%ADD107R,0.067X0.067*%
%ADD108O,0.088X0.076*%
G04:AMPARAMS|DCode=109|XSize=88mil|YSize=76mil|CornerRadius=13mil|HoleSize=0mil|Usage=FLASHONLY|Rotation=0.000|XOffset=0mil|YOffset=0mil|HoleType=Round|Shape=RoundedRectangle|*
%AMROUNDEDRECTD109*
21,1,0.088,0.051,0,0,0.0*
21,1,0.063,0.076,0,0,0.0*
1,1,0.025,0.032,-0.026*
1,1,0.025,-0.032,-0.026*
1,1,0.025,-0.032,0.026*
1,1,0.025,0.032,0.026*
%
%ADD109ROUNDEDRECTD109*%
%ADD110P,0.098X8X22.5*%
%ADD111C,0.043*%
%ADD112P,0.098X8X292.5*%
%ADD113C,0.067*%
%ADD114C,0.196*%
%ADD115C,0.196*%
%ADD116C,0.039*%
D48*
X2440Y3490D02*
D03*
X530Y3410D02*
D03*
Y3740D02*
D03*
Y3520D02*
D03*
Y3630D02*
D03*
X2130Y3490D02*
D03*
X1790D02*
D03*
X1970D02*
D03*
X3040Y2770D02*
D03*
X2920D02*
D03*
X3160D02*
D03*
D49*
X1970Y3730D02*
D03*
D50*
X1870D02*
D03*
D104*
X1480Y2620D02*
D03*
X2230Y3650D02*
D03*
Y3750D02*
D03*
X3520Y1900D02*
D03*
X3520Y2100D02*
D03*
Y2000D02*
D03*
Y910D02*
D03*
Y1010D02*
D03*
Y1110D02*
D03*
Y1210D02*
D03*
Y1310D02*
D03*
X3520Y1510D02*
D03*
Y1410D02*
D03*
X1280Y2620D02*
D03*
X3520Y2510D02*
D03*
X3520Y2710D02*
D03*
Y2610D02*
D03*
D105*
X1480Y2520D02*
D03*
X3520Y2200D02*
D03*
X3520Y1610D02*
D03*
X1280Y2520D02*
D03*
X3520Y2810D02*
D03*
D106*
X2420Y2750D02*
D03*
X2320D02*
D03*
X2420Y2850D02*
D03*
X2320D02*
D03*
X2420Y2950D02*
D03*
X570Y2670D02*
D03*
Y2570D02*
D03*
Y2470D02*
D03*
Y2370D02*
D03*
Y2270D02*
D03*
Y2170D02*
D03*
Y2070D02*
D03*
Y1970D02*
D03*
Y1870D02*
D03*
Y1770D02*
D03*
Y1670D02*
D03*
Y1570D02*
D03*
Y1470D02*
D03*
Y1370D02*
D03*
Y1270D02*
D03*
Y1170D02*
D03*
Y1070D02*
D03*
Y970D02*
D03*
Y870D02*
D03*
Y770D02*
D03*
Y670D02*
D03*
Y570D02*
D03*
Y470D02*
D03*
X250Y3050D02*
D03*
Y3150D02*
D03*
X150D02*
D03*
X250Y3250D02*
D03*
X3790Y910D02*
D03*
X3690D02*
D03*
X3790Y1010D02*
D03*
X3690D02*
D03*
X3790Y1110D02*
D03*
X3690D02*
D03*
X3790Y1210D02*
D03*
X3690D02*
D03*
X3790Y1310D02*
D03*
X3690D02*
D03*
X3790Y1410D02*
D03*
X3690D02*
D03*
X3790Y1510D02*
D03*
X3690D02*
D03*
X3790Y1610D02*
D03*
X3690D02*
D03*
X3790Y1710D02*
D03*
X3690D02*
D03*
X3790Y1810D02*
D03*
X3690D02*
D03*
X3790Y1910D02*
D03*
X3690D02*
D03*
X3790Y2010D02*
D03*
X3690D02*
D03*
X3790Y2110D02*
D03*
X3690D02*
D03*
X3790Y2210D02*
D03*
X3690D02*
D03*
X3790Y2310D02*
D03*
X3690D02*
D03*
X3790Y2410D02*
D03*
X3690D02*
D03*
X3790Y2510D02*
D03*
X3690D02*
D03*
X3790Y2610D02*
D03*
X3690D02*
D03*
X3790Y2710D02*
D03*
X3690D02*
D03*
X3790Y2810D02*
D03*
D107*
X2320Y2950D02*
D03*
X570Y2770D02*
D03*
X150Y3250D02*
D03*
X3690Y2810D02*
D03*
D108*
X270Y1190D02*
D03*
Y1290D02*
D03*
Y1390D02*
D03*
Y1490D02*
D03*
Y1590D02*
D03*
X170Y1190D02*
D03*
Y1290D02*
D03*
Y1390D02*
D03*
Y1490D02*
D03*
X270Y2200D02*
D03*
Y2300D02*
D03*
Y2400D02*
D03*
Y2500D02*
D03*
Y2600D02*
D03*
X170Y2200D02*
D03*
Y2300D02*
D03*
Y2400D02*
D03*
Y2500D02*
D03*
D109*
Y1590D02*
D03*
Y2600D02*
D03*
D110*
X1742Y211D02*
D03*
Y389D02*
D03*
X2018Y211D02*
D03*
Y389D02*
D03*
X2272Y211D02*
D03*
Y389D02*
D03*
X2548Y211D02*
D03*
Y389D02*
D03*
X2792Y211D02*
D03*
Y389D02*
D03*
X3068Y211D02*
D03*
Y389D02*
D03*
X3292Y211D02*
D03*
Y389D02*
D03*
X3568Y211D02*
D03*
Y389D02*
D03*
D111*
X1326Y3683D02*
D03*
X1499D02*
D03*
D112*
X131Y3788D02*
D03*
X309D02*
D03*
X131Y3512D02*
D03*
X309D02*
D03*
D113*
X150Y3050D02*
D03*
D114*
X3740Y716D02*
D03*
D115*
Y3003D02*
D03*
D116*
X2008Y1778D02*
D03*
Y1735D02*
D03*
Y1692D02*
D03*
Y1648D02*
D03*
Y1605D02*
D03*
Y1562D02*
D03*
X1965Y1778D02*
D03*
Y1735D02*
D03*
Y1692D02*
D03*
Y1648D02*
D03*
Y1605D02*
D03*
Y1562D02*
D03*
X1922Y1778D02*
D03*
Y1735D02*
D03*
Y1692D02*
D03*
Y1648D02*
D03*
Y1605D02*
D03*
Y1562D02*
D03*
X1878Y1778D02*
D03*
Y1735D02*
D03*
Y1692D02*
D03*
Y1648D02*
D03*
Y1605D02*
D03*
Y1562D02*
D03*
X1835Y1778D02*
D03*
Y1735D02*
D03*
Y1692D02*
D03*
Y1648D02*
D03*
Y1605D02*
D03*
Y1562D02*
D03*
X1792Y1778D02*
D03*
Y1735D02*
D03*
Y1692D02*
D03*
Y1648D02*
D03*
Y1605D02*
D03*
Y1562D02*
D03*
M02*
