G04 Layer_Color=65535*
%FSLAX23Y23*%
%MOIN*%
G70*
G01*
G75*
%ADD44C,0.010*%
%ADD47C,0.008*%
%ADD64C,0.006*%
%ADD65C,0.024*%
%ADD66C,0.010*%
%ADD67C,0.016*%
%ADD68C,0.005*%
%ADD69C,0.008*%
%ADD70R,0.093X0.041*%
%ADD71R,0.100X0.100*%
%ADD72R,0.084X0.038*%
D44*
X2373Y3588D02*
X2389Y3572D01*
X2491D02*
X2507Y3588D01*
X2389Y3572D02*
X2491D01*
X2373Y3810D02*
X2507D01*
Y3588D02*
Y3810D01*
X2373Y3588D02*
Y3810D01*
X2513Y3588D02*
X2529Y3572D01*
X2631D02*
X2647Y3588D01*
X2529Y3572D02*
X2631D01*
X2513Y3810D02*
X2647D01*
Y3588D02*
Y3810D01*
X2513Y3588D02*
Y3810D01*
X3203Y3508D02*
X3219Y3492D01*
X3321D02*
X3337Y3508D01*
X3219Y3492D02*
X3321D01*
X3203Y3730D02*
X3337D01*
Y3508D02*
Y3730D01*
X3203Y3508D02*
Y3730D01*
X1895Y3830D02*
X1945D01*
D47*
X587Y3865D02*
G03*
X626Y3826I40J1D01*
G01*
X587Y3865D02*
G03*
X559Y3893I-26J2D01*
G01*
X1430Y2570D02*
X1530D01*
X1430Y2670D02*
X1530D01*
X1430Y2470D02*
X1530D01*
X1430D02*
Y2670D01*
X1530Y2470D02*
Y2670D01*
X2255Y3600D02*
X2280Y3625D01*
X2180Y3600D02*
X2255D01*
X2180D02*
Y3800D01*
X2280D01*
X2280Y3625D02*
X2280Y3800D01*
X3470Y2150D02*
X3570D01*
X3470Y2050D02*
X3570D01*
X3469Y1850D02*
X3569D01*
X3470D02*
X3570D01*
X3470D02*
X3570D01*
X3470D02*
X3470Y2250D01*
X3470Y1950D02*
X3570D01*
Y1850D02*
Y2250D01*
X3470D02*
X3570D01*
X3470Y1560D02*
X3570D01*
X3470Y1460D02*
X3570D01*
X3470Y860D02*
X3570D01*
X3470D02*
X3570D01*
X3470Y960D02*
X3570D01*
X3470D02*
X3570D01*
X3470Y1060D02*
X3570D01*
X3470D02*
X3570D01*
X3470Y1160D02*
X3570D01*
X3470D02*
X3570D01*
X3470Y1260D02*
X3570D01*
X3470D02*
X3570D01*
X3470Y860D02*
X3470Y1660D01*
X3470Y1360D02*
X3570D01*
Y1660D02*
X3570Y860D01*
X3470Y1660D02*
X3570D01*
X3470Y860D02*
X3570D01*
X1330Y2470D02*
Y2670D01*
X1230Y2470D02*
Y2670D01*
Y2470D02*
X1330D01*
X1230Y2670D02*
X1330D01*
X1230Y2570D02*
X1330D01*
X992Y3290D02*
X1020D01*
X768D02*
X886D01*
X469D02*
X662D01*
X626Y3826D02*
X957D01*
X528Y3893D02*
X559D01*
X1020Y3290D02*
Y3767D01*
X469Y3290D02*
Y3810D01*
X1820Y3855D02*
X2020D01*
X1820Y3605D02*
Y3855D01*
Y3605D02*
X2020D01*
Y3855D01*
X3470Y2760D02*
X3570D01*
X3470Y2660D02*
X3570D01*
X3469Y2460D02*
X3569D01*
X3470D02*
X3570D01*
X3470D02*
X3570D01*
X3470D02*
X3470Y2860D01*
X3470Y2560D02*
X3570D01*
Y2460D02*
Y2860D01*
X3470D02*
X3570D01*
X2126Y3643D02*
X2123Y3641D01*
X2120Y3638D01*
X2118Y3635D01*
Y3629D01*
X2120Y3626D01*
X2123Y3623D01*
X2126Y3622D01*
X2130Y3620D01*
X2138D01*
X2142Y3622D01*
X2145Y3623D01*
X2148Y3626D01*
X2150Y3629D01*
Y3635D01*
X2148Y3638D01*
X2145Y3641D01*
X2142Y3643D01*
X2129Y3652D02*
X2144D01*
X2148Y3653D01*
X2150Y3656D01*
Y3661D01*
X2148Y3664D01*
X2144Y3669D01*
X2129D02*
X2150D01*
X2129Y3677D02*
X2150D01*
X2138D02*
X2133Y3679D01*
X2130Y3682D01*
X2129Y3685D01*
Y3689D01*
X2161Y3692D02*
Y3716D01*
X2118Y3731D02*
X2150D01*
X2118Y3721D02*
Y3742D01*
X2133Y3762D02*
X2130Y3761D01*
X2129Y3756D01*
Y3752D01*
X2130Y3747D01*
X2133Y3746D01*
X2136Y3747D01*
X2138Y3750D01*
X2139Y3758D01*
X2141Y3761D01*
X2144Y3762D01*
X2145D01*
X2148Y3761D01*
X2150Y3756D01*
Y3752D01*
X2148Y3747D01*
X2145Y3746D01*
X2118Y3774D02*
X2144D01*
X2148Y3775D01*
X2150Y3778D01*
Y3781D01*
X2129Y3769D02*
Y3780D01*
X2070Y3733D02*
X2040D01*
X1783Y3716D02*
Y3750D01*
X1800Y3733D02*
X1766D01*
X1698Y3650D02*
Y3630D01*
X1730D01*
Y3650D01*
X1713Y3630D02*
Y3642D01*
X1698Y3655D02*
X1730Y3676D01*
X1698D02*
X1730Y3655D01*
X1698Y3694D02*
X1730D01*
X1698Y3684D02*
Y3705D01*
X1741Y3709D02*
Y3733D01*
X1715Y3737D02*
Y3751D01*
X1713Y3756D01*
X1712Y3757D01*
X1709Y3759D01*
X1704D01*
X1701Y3757D01*
X1700Y3756D01*
X1698Y3751D01*
Y3737D01*
X1730D01*
X1698Y3766D02*
X1730Y3773D01*
X1698Y3781D02*
X1730Y3773D01*
X1698Y3781D02*
X1730Y3789D01*
X1698Y3796D02*
X1730Y3789D01*
X1698Y3803D02*
X1730D01*
X1698D02*
Y3816D01*
X1700Y3821D01*
X1701Y3822D01*
X1704Y3824D01*
X1707D01*
X1710Y3822D01*
X1712Y3821D01*
X1713Y3816D01*
Y3803D01*
Y3813D02*
X1730Y3824D01*
X150Y3882D02*
Y3850D01*
Y3882D02*
X162Y3850D01*
X174Y3882D02*
X162Y3850D01*
X174Y3882D02*
Y3850D01*
X206Y3874D02*
X205Y3877D01*
X202Y3880D01*
X199Y3882D01*
X193D01*
X190Y3880D01*
X187Y3877D01*
X185Y3874D01*
X184Y3870D01*
Y3862D01*
X185Y3858D01*
X187Y3855D01*
X190Y3852D01*
X193Y3850D01*
X199D01*
X202Y3852D01*
X205Y3855D01*
X206Y3858D01*
X215Y3882D02*
Y3859D01*
X217Y3855D01*
X220Y3852D01*
X224Y3850D01*
X228D01*
X232Y3852D01*
X235Y3855D01*
X237Y3859D01*
Y3882D01*
X246Y3839D02*
X270D01*
X274Y3882D02*
Y3850D01*
Y3882D02*
X288D01*
X292Y3880D01*
X294Y3879D01*
X295Y3876D01*
Y3873D01*
X294Y3870D01*
X292Y3868D01*
X288Y3867D01*
X274D01*
X285D02*
X295Y3850D01*
X322Y3882D02*
X303D01*
Y3850D01*
X322D01*
X303Y3867D02*
X315D01*
X349Y3877D02*
X346Y3880D01*
X341Y3882D01*
X335D01*
X331Y3880D01*
X328Y3877D01*
Y3874D01*
X329Y3871D01*
X331Y3870D01*
X334Y3868D01*
X343Y3865D01*
X346Y3864D01*
X347Y3862D01*
X349Y3859D01*
Y3855D01*
X346Y3852D01*
X341Y3850D01*
X335D01*
X331Y3852D01*
X328Y3855D01*
X376Y3882D02*
X356D01*
Y3850D01*
X376D01*
X356Y3867D02*
X368D01*
X392Y3882D02*
Y3850D01*
X381Y3882D02*
X403D01*
X428Y3200D02*
X460D01*
X428D02*
Y3214D01*
X430Y3218D01*
X431Y3220D01*
X434Y3221D01*
X437D01*
X440Y3220D01*
X442Y3218D01*
X443Y3214D01*
Y3200D01*
Y3211D02*
X460Y3221D01*
X428Y3247D02*
Y3232D01*
X442Y3230D01*
X440Y3232D01*
X439Y3236D01*
Y3241D01*
X440Y3245D01*
X443Y3248D01*
X448Y3250D01*
X451D01*
X455Y3248D01*
X458Y3245D01*
X460Y3241D01*
Y3236D01*
X458Y3232D01*
X457Y3230D01*
X454Y3228D01*
X434Y3257D02*
X433Y3260D01*
X428Y3265D01*
X460D01*
X210Y1852D02*
Y1820D01*
Y1852D02*
X230D01*
X210Y1837D02*
X222D01*
X233Y1835D02*
X247D01*
X252Y1837D01*
X253Y1838D01*
X255Y1841D01*
Y1846D01*
X253Y1849D01*
X252Y1850D01*
X247Y1852D01*
X233D01*
Y1820D01*
X285Y1844D02*
X283Y1847D01*
X280Y1850D01*
X277Y1852D01*
X271D01*
X268Y1850D01*
X265Y1847D01*
X263Y1844D01*
X262Y1840D01*
Y1832D01*
X263Y1828D01*
X265Y1825D01*
X268Y1822D01*
X271Y1820D01*
X277D01*
X280Y1822D01*
X283Y1825D01*
X285Y1828D01*
Y1832D01*
X277D02*
X285D01*
X316Y1820D02*
X304Y1852D01*
X292Y1820D01*
X297Y1831D02*
X312D01*
X324Y1809D02*
X348D01*
X377Y1820D02*
X365Y1852D01*
X352Y1820D01*
X357Y1831D02*
X372D01*
X406Y1847D02*
X403Y1850D01*
X398Y1852D01*
X392D01*
X387Y1850D01*
X384Y1847D01*
Y1844D01*
X386Y1841D01*
X387Y1840D01*
X390Y1838D01*
X400Y1835D01*
X403Y1834D01*
X404Y1832D01*
X406Y1829D01*
Y1825D01*
X403Y1822D01*
X398Y1820D01*
X392D01*
X387Y1822D01*
X384Y1825D01*
X200Y2862D02*
Y2830D01*
Y2862D02*
X220D01*
X200Y2847D02*
X212D01*
X223Y2845D02*
X237D01*
X242Y2847D01*
X243Y2848D01*
X245Y2851D01*
Y2856D01*
X243Y2859D01*
X242Y2860D01*
X237Y2862D01*
X223D01*
Y2830D01*
X275Y2854D02*
X273Y2857D01*
X270Y2860D01*
X267Y2862D01*
X261D01*
X258Y2860D01*
X255Y2857D01*
X253Y2854D01*
X252Y2850D01*
Y2842D01*
X253Y2838D01*
X255Y2835D01*
X258Y2832D01*
X261Y2830D01*
X267D01*
X270Y2832D01*
X273Y2835D01*
X275Y2838D01*
Y2842D01*
X267D02*
X275D01*
X306Y2830D02*
X294Y2862D01*
X282Y2830D01*
X287Y2841D02*
X302D01*
X314Y2819D02*
X338D01*
X358Y2862D02*
Y2838D01*
X356Y2833D01*
X355Y2832D01*
X352Y2830D01*
X349D01*
X345Y2832D01*
X344Y2833D01*
X342Y2838D01*
Y2841D01*
X377Y2862D02*
Y2830D01*
X366Y2862D02*
X387D01*
X415Y2830D02*
X403Y2862D01*
X391Y2830D01*
X396Y2841D02*
X411D01*
X446Y2854D02*
X444Y2857D01*
X441Y2860D01*
X438Y2862D01*
X432D01*
X429Y2860D01*
X426Y2857D01*
X424Y2854D01*
X423Y2850D01*
Y2842D01*
X424Y2838D01*
X426Y2835D01*
X429Y2832D01*
X432Y2830D01*
X438D01*
X441Y2832D01*
X444Y2835D01*
X446Y2838D01*
Y2842D01*
X438D02*
X446D01*
X180Y3372D02*
Y3340D01*
Y3372D02*
X192Y3340D01*
X204Y3372D02*
X192Y3340D01*
X204Y3372D02*
Y3340D01*
X236Y3364D02*
X235Y3367D01*
X232Y3370D01*
X229Y3372D01*
X223D01*
X220Y3370D01*
X217Y3367D01*
X215Y3364D01*
X214Y3360D01*
Y3352D01*
X215Y3348D01*
X217Y3345D01*
X220Y3342D01*
X223Y3340D01*
X229D01*
X232Y3342D01*
X235Y3345D01*
X236Y3348D01*
X245Y3372D02*
Y3349D01*
X247Y3345D01*
X250Y3342D01*
X254Y3340D01*
X258D01*
X262Y3342D01*
X265Y3345D01*
X267Y3349D01*
Y3372D01*
X276Y3329D02*
X300D01*
X304Y3372D02*
Y3340D01*
X332Y3367D02*
X329Y3370D01*
X324Y3372D01*
X318D01*
X314Y3370D01*
X311Y3367D01*
Y3364D01*
X312Y3361D01*
X314Y3360D01*
X317Y3358D01*
X326Y3355D01*
X329Y3354D01*
X331Y3352D01*
X332Y3349D01*
Y3345D01*
X329Y3342D01*
X324Y3340D01*
X318D01*
X314Y3342D01*
X311Y3345D01*
X339Y3355D02*
X353D01*
X357Y3357D01*
X359Y3358D01*
X361Y3361D01*
Y3366D01*
X359Y3369D01*
X357Y3370D01*
X353Y3372D01*
X339D01*
Y3340D01*
X1920Y2342D02*
X1900D01*
Y2310D01*
X1920D01*
X1900Y2327D02*
X1912D01*
X1925Y2331D02*
Y2310D01*
Y2322D02*
X1927Y2327D01*
X1930Y2330D01*
X1933Y2331D01*
X1937D01*
X1940D02*
Y2310D01*
Y2322D02*
X1942Y2327D01*
X1945Y2330D01*
X1948Y2331D01*
X1952D01*
X1955Y2305D02*
X1977Y2342D01*
X1979D02*
Y2310D01*
Y2342D02*
X1992D01*
X1997Y2340D01*
X1999Y2339D01*
X2000Y2336D01*
Y2333D01*
X1999Y2330D01*
X1997Y2328D01*
X1992Y2327D01*
X1979D02*
X1992D01*
X1997Y2325D01*
X1999Y2324D01*
X2000Y2321D01*
Y2316D01*
X1999Y2313D01*
X1997Y2312D01*
X1992Y2310D01*
X1979D01*
X2007Y2331D02*
Y2316D01*
X2009Y2312D01*
X2012Y2310D01*
X2016D01*
X2019Y2312D01*
X2024Y2316D01*
Y2331D02*
Y2310D01*
X2049Y2327D02*
X2048Y2330D01*
X2043Y2331D01*
X2038D01*
X2034Y2330D01*
X2032Y2327D01*
X2034Y2324D01*
X2037Y2322D01*
X2045Y2321D01*
X2048Y2319D01*
X2049Y2316D01*
Y2315D01*
X2048Y2312D01*
X2043Y2310D01*
X2038D01*
X2034Y2312D01*
X2032Y2315D01*
X2057Y2331D02*
X2067Y2310D01*
X2076Y2331D02*
X2067Y2310D01*
X2063Y2304D01*
X2060Y2301D01*
X2057Y2299D01*
X2056D01*
X1763Y2334D02*
X1761Y2337D01*
X1758Y2340D01*
X1755Y2342D01*
X1749D01*
X1746Y2340D01*
X1743Y2337D01*
X1742Y2334D01*
X1740Y2330D01*
Y2322D01*
X1742Y2318D01*
X1743Y2315D01*
X1746Y2312D01*
X1749Y2310D01*
X1755D01*
X1758Y2312D01*
X1761Y2315D01*
X1763Y2318D01*
X1779Y2331D02*
X1776Y2330D01*
X1773Y2327D01*
X1772Y2322D01*
Y2319D01*
X1773Y2315D01*
X1776Y2312D01*
X1779Y2310D01*
X1784D01*
X1787Y2312D01*
X1790Y2315D01*
X1792Y2319D01*
Y2322D01*
X1790Y2327D01*
X1787Y2330D01*
X1784Y2331D01*
X1779D01*
X1799D02*
Y2310D01*
Y2325D02*
X1803Y2330D01*
X1806Y2331D01*
X1811D01*
X1814Y2330D01*
X1815Y2325D01*
Y2310D01*
Y2325D02*
X1820Y2330D01*
X1823Y2331D01*
X1828D01*
X1831Y2330D01*
X1832Y2325D01*
Y2310D01*
X1620Y3112D02*
Y3089D01*
X1622Y3085D01*
X1625Y3082D01*
X1629Y3080D01*
X1632D01*
X1637Y3082D01*
X1640Y3085D01*
X1641Y3089D01*
Y3112D01*
X1658D02*
X1653Y3110D01*
X1652Y3107D01*
Y3104D01*
X1653Y3101D01*
X1656Y3100D01*
X1662Y3098D01*
X1667Y3097D01*
X1670Y3094D01*
X1671Y3091D01*
Y3086D01*
X1670Y3083D01*
X1668Y3082D01*
X1664Y3080D01*
X1658D01*
X1653Y3082D01*
X1652Y3083D01*
X1650Y3086D01*
Y3091D01*
X1652Y3094D01*
X1655Y3097D01*
X1659Y3098D01*
X1665Y3100D01*
X1668Y3101D01*
X1670Y3104D01*
Y3107D01*
X1668Y3110D01*
X1664Y3112D01*
X1658D01*
X1900Y2572D02*
Y2540D01*
Y2572D02*
X1911D01*
X1915Y2570D01*
X1918Y2567D01*
X1920Y2564D01*
X1921Y2560D01*
Y2552D01*
X1920Y2548D01*
X1918Y2545D01*
X1915Y2542D01*
X1911Y2540D01*
X1900D01*
X1936Y2572D02*
X1932Y2570D01*
X1930Y2567D01*
Y2564D01*
X1932Y2561D01*
X1935Y2560D01*
X1941Y2558D01*
X1945Y2557D01*
X1948Y2554D01*
X1950Y2551D01*
Y2546D01*
X1948Y2543D01*
X1947Y2542D01*
X1942Y2540D01*
X1936D01*
X1932Y2542D01*
X1930Y2543D01*
X1928Y2546D01*
Y2551D01*
X1930Y2554D01*
X1933Y2557D01*
X1938Y2558D01*
X1944Y2560D01*
X1947Y2561D01*
X1948Y2564D01*
Y2567D01*
X1947Y2570D01*
X1942Y2572D01*
X1936D01*
X1820D02*
Y2540D01*
Y2572D02*
X1831D01*
X1835Y2570D01*
X1838Y2567D01*
X1840Y2564D01*
X1841Y2560D01*
Y2552D01*
X1840Y2548D01*
X1838Y2545D01*
X1835Y2542D01*
X1831Y2540D01*
X1820D01*
X1870Y2572D02*
X1855Y2540D01*
X1848Y2572D02*
X1870D01*
X2216Y2193D02*
X2213Y2191D01*
X2210Y2188D01*
X2208Y2185D01*
Y2179D01*
X2210Y2176D01*
X2213Y2173D01*
X2216Y2172D01*
X2220Y2170D01*
X2228D01*
X2232Y2172D01*
X2235Y2173D01*
X2238Y2176D01*
X2240Y2179D01*
Y2185D01*
X2238Y2188D01*
X2235Y2191D01*
X2232Y2193D01*
X2208Y2217D02*
X2229Y2202D01*
Y2225D01*
X2208Y2217D02*
X2240D01*
X2208Y2238D02*
X2210Y2233D01*
X2213Y2232D01*
X2216D01*
X2219Y2233D01*
X2220Y2236D01*
X2222Y2243D01*
X2223Y2247D01*
X2226Y2250D01*
X2229Y2252D01*
X2234D01*
X2237Y2250D01*
X2238Y2249D01*
X2240Y2244D01*
Y2238D01*
X2238Y2233D01*
X2237Y2232D01*
X2234Y2230D01*
X2229D01*
X2226Y2232D01*
X2223Y2235D01*
X2222Y2239D01*
X2220Y2246D01*
X2219Y2249D01*
X2216Y2250D01*
X2213D01*
X2210Y2249D01*
X2208Y2244D01*
Y2238D01*
X1586Y2193D02*
X1583Y2191D01*
X1580Y2188D01*
X1578Y2185D01*
Y2179D01*
X1580Y2176D01*
X1583Y2173D01*
X1586Y2172D01*
X1590Y2170D01*
X1598D01*
X1602Y2172D01*
X1605Y2173D01*
X1608Y2176D01*
X1610Y2179D01*
Y2185D01*
X1608Y2188D01*
X1605Y2191D01*
X1602Y2193D01*
X1586Y2203D02*
X1584D01*
X1581Y2205D01*
X1580Y2206D01*
X1578Y2209D01*
Y2216D01*
X1580Y2219D01*
X1581Y2220D01*
X1584Y2222D01*
X1587D01*
X1590Y2220D01*
X1595Y2217D01*
X1610Y2202D01*
Y2223D01*
X1586Y2232D02*
X1584D01*
X1581Y2233D01*
X1580Y2235D01*
X1578Y2238D01*
Y2244D01*
X1580Y2247D01*
X1581Y2249D01*
X1584Y2250D01*
X1587D01*
X1590Y2249D01*
X1595Y2246D01*
X1610Y2230D01*
Y2252D01*
X1776Y2193D02*
X1773Y2191D01*
X1770Y2188D01*
X1768Y2185D01*
Y2179D01*
X1770Y2176D01*
X1773Y2173D01*
X1776Y2172D01*
X1780Y2170D01*
X1788D01*
X1792Y2172D01*
X1795Y2173D01*
X1798Y2176D01*
X1800Y2179D01*
Y2185D01*
X1798Y2188D01*
X1795Y2191D01*
X1792Y2193D01*
X1768Y2205D02*
Y2222D01*
X1780Y2213D01*
Y2217D01*
X1782Y2220D01*
X1783Y2222D01*
X1788Y2223D01*
X1791D01*
X1795Y2222D01*
X1798Y2219D01*
X1800Y2214D01*
Y2209D01*
X1798Y2205D01*
X1797Y2203D01*
X1794Y2202D01*
X1768Y2249D02*
Y2233D01*
X1782Y2232D01*
X1780Y2233D01*
X1779Y2238D01*
Y2243D01*
X1780Y2247D01*
X1783Y2250D01*
X1788Y2252D01*
X1791D01*
X1795Y2250D01*
X1798Y2247D01*
X1800Y2243D01*
Y2238D01*
X1798Y2233D01*
X1797Y2232D01*
X1794Y2230D01*
X1550Y2531D02*
Y2516D01*
X1552Y2512D01*
X1555Y2510D01*
X1559D01*
X1562Y2512D01*
X1567Y2516D01*
Y2531D02*
Y2510D01*
X1598Y2534D02*
X1596Y2537D01*
X1593Y2540D01*
X1590Y2542D01*
X1584D01*
X1581Y2540D01*
X1578Y2537D01*
X1577Y2534D01*
X1575Y2530D01*
Y2522D01*
X1577Y2518D01*
X1578Y2515D01*
X1581Y2512D01*
X1584Y2510D01*
X1590D01*
X1593Y2512D01*
X1596Y2515D01*
X1598Y2518D01*
X1607Y2524D02*
X1634D01*
X1655Y2542D02*
Y2510D01*
X1644Y2542D02*
X1665D01*
X1669D02*
X1690Y2510D01*
Y2542D02*
X1669Y2510D01*
X1550Y2631D02*
Y2616D01*
X1552Y2612D01*
X1555Y2610D01*
X1559D01*
X1562Y2612D01*
X1567Y2616D01*
Y2631D02*
Y2610D01*
X1598Y2634D02*
X1596Y2637D01*
X1593Y2640D01*
X1590Y2642D01*
X1584D01*
X1581Y2640D01*
X1578Y2637D01*
X1577Y2634D01*
X1575Y2630D01*
Y2622D01*
X1577Y2618D01*
X1578Y2615D01*
X1581Y2612D01*
X1584Y2610D01*
X1590D01*
X1593Y2612D01*
X1596Y2615D01*
X1598Y2618D01*
X1607Y2624D02*
X1634D01*
X1644Y2642D02*
Y2610D01*
Y2642D02*
X1658D01*
X1662Y2640D01*
X1664Y2639D01*
X1665Y2636D01*
Y2633D01*
X1664Y2630D01*
X1662Y2628D01*
X1658Y2627D01*
X1644D01*
X1655D02*
X1665Y2610D01*
X1672Y2642D02*
X1694Y2610D01*
Y2642D02*
X1672Y2610D01*
X1363Y2501D02*
X1360Y2498D01*
X1358Y2494D01*
Y2488D01*
X1360Y2483D01*
X1363Y2480D01*
X1366D01*
X1369Y2482D01*
X1370Y2483D01*
X1372Y2486D01*
X1375Y2495D01*
X1376Y2498D01*
X1378Y2500D01*
X1381Y2501D01*
X1385D01*
X1388Y2498D01*
X1390Y2494D01*
Y2488D01*
X1388Y2483D01*
X1385Y2480D01*
X1358Y2508D02*
X1390D01*
X1358D02*
Y2519D01*
X1360Y2524D01*
X1363Y2527D01*
X1366Y2528D01*
X1370Y2530D01*
X1378D01*
X1382Y2528D01*
X1385Y2527D01*
X1388Y2524D01*
X1390Y2519D01*
Y2508D01*
Y2561D02*
X1358Y2549D01*
X1390Y2537D01*
X1379Y2542D02*
Y2557D01*
X1220Y2282D02*
Y2259D01*
X1222Y2255D01*
X1225Y2252D01*
X1229Y2250D01*
X1232D01*
X1237Y2252D01*
X1240Y2255D01*
X1241Y2259D01*
Y2282D01*
X1250Y2276D02*
X1253Y2277D01*
X1258Y2282D01*
Y2250D01*
X1275Y2274D02*
Y2276D01*
X1277Y2279D01*
X1278Y2280D01*
X1281Y2282D01*
X1287D01*
X1290Y2280D01*
X1292Y2279D01*
X1293Y2276D01*
Y2273D01*
X1292Y2270D01*
X1289Y2265D01*
X1274Y2250D01*
X1295D01*
X2156Y2193D02*
X2153Y2191D01*
X2150Y2188D01*
X2148Y2185D01*
Y2179D01*
X2150Y2176D01*
X2153Y2173D01*
X2156Y2172D01*
X2160Y2170D01*
X2168D01*
X2172Y2172D01*
X2175Y2173D01*
X2178Y2176D01*
X2180Y2179D01*
Y2185D01*
X2178Y2188D01*
X2175Y2191D01*
X2172Y2193D01*
X2148Y2205D02*
Y2222D01*
X2160Y2213D01*
Y2217D01*
X2162Y2220D01*
X2163Y2222D01*
X2168Y2223D01*
X2171D01*
X2175Y2222D01*
X2178Y2219D01*
X2180Y2214D01*
Y2209D01*
X2178Y2205D01*
X2177Y2203D01*
X2174Y2202D01*
X2148Y2246D02*
X2169Y2230D01*
Y2253D01*
X2148Y2246D02*
X2180D01*
X1966Y2193D02*
X1963Y2191D01*
X1960Y2188D01*
X1958Y2185D01*
Y2179D01*
X1960Y2176D01*
X1963Y2173D01*
X1966Y2172D01*
X1970Y2170D01*
X1978D01*
X1982Y2172D01*
X1985Y2173D01*
X1988Y2176D01*
X1990Y2179D01*
Y2185D01*
X1988Y2188D01*
X1985Y2191D01*
X1982Y2193D01*
X1966Y2203D02*
X1964D01*
X1961Y2205D01*
X1960Y2206D01*
X1958Y2209D01*
Y2216D01*
X1960Y2219D01*
X1961Y2220D01*
X1964Y2222D01*
X1967D01*
X1970Y2220D01*
X1975Y2217D01*
X1990Y2202D01*
Y2223D01*
X1963Y2249D02*
X1960Y2247D01*
X1958Y2243D01*
Y2239D01*
X1960Y2235D01*
X1964Y2232D01*
X1972Y2230D01*
X1979D01*
X1985Y2232D01*
X1988Y2235D01*
X1990Y2239D01*
Y2241D01*
X1988Y2246D01*
X1985Y2249D01*
X1981Y2250D01*
X1979D01*
X1975Y2249D01*
X1972Y2246D01*
X1970Y2241D01*
Y2239D01*
X1972Y2235D01*
X1975Y2232D01*
X1979Y2230D01*
X2776Y3123D02*
X2773Y3121D01*
X2770Y3118D01*
X2768Y3115D01*
Y3109D01*
X2770Y3106D01*
X2773Y3103D01*
X2776Y3102D01*
X2780Y3100D01*
X2788D01*
X2792Y3102D01*
X2795Y3103D01*
X2798Y3106D01*
X2800Y3109D01*
Y3115D01*
X2798Y3118D01*
X2795Y3121D01*
X2792Y3123D01*
X2768Y3147D02*
X2789Y3132D01*
Y3155D01*
X2768Y3147D02*
X2800D01*
X2776Y3162D02*
X2774D01*
X2771Y3163D01*
X2770Y3165D01*
X2768Y3168D01*
Y3174D01*
X2770Y3177D01*
X2771Y3179D01*
X2774Y3180D01*
X2777D01*
X2780Y3179D01*
X2785Y3176D01*
X2800Y3160D01*
Y3182D01*
X2576Y3123D02*
X2573Y3121D01*
X2570Y3118D01*
X2568Y3115D01*
Y3109D01*
X2570Y3106D01*
X2573Y3103D01*
X2576Y3102D01*
X2580Y3100D01*
X2588D01*
X2592Y3102D01*
X2595Y3103D01*
X2598Y3106D01*
X2600Y3109D01*
Y3115D01*
X2598Y3118D01*
X2595Y3121D01*
X2592Y3123D01*
X2568Y3150D02*
Y3135D01*
X2582Y3133D01*
X2580Y3135D01*
X2579Y3139D01*
Y3144D01*
X2580Y3149D01*
X2583Y3152D01*
X2588Y3153D01*
X2591D01*
X2595Y3152D01*
X2598Y3149D01*
X2600Y3144D01*
Y3139D01*
X2598Y3135D01*
X2597Y3133D01*
X2594Y3132D01*
X2573Y3179D02*
X2570Y3177D01*
X2568Y3173D01*
Y3169D01*
X2570Y3165D01*
X2574Y3162D01*
X2582Y3160D01*
X2589D01*
X2595Y3162D01*
X2598Y3165D01*
X2600Y3169D01*
Y3171D01*
X2598Y3176D01*
X2595Y3179D01*
X2591Y3180D01*
X2589D01*
X2585Y3179D01*
X2582Y3176D01*
X2580Y3171D01*
Y3169D01*
X2582Y3165D01*
X2585Y3162D01*
X2589Y3160D01*
X1040Y532D02*
Y500D01*
Y532D02*
X1054D01*
X1058Y530D01*
X1060Y529D01*
X1061Y526D01*
Y523D01*
X1060Y520D01*
X1058Y518D01*
X1054Y517D01*
X1040D01*
X1051D02*
X1061Y500D01*
X1087Y532D02*
X1072D01*
X1070Y518D01*
X1072Y520D01*
X1076Y521D01*
X1081D01*
X1085Y520D01*
X1088Y517D01*
X1090Y512D01*
Y509D01*
X1088Y505D01*
X1085Y502D01*
X1081Y500D01*
X1076D01*
X1072Y502D01*
X1070Y503D01*
X1068Y506D01*
X1117Y521D02*
X1115Y517D01*
X1112Y514D01*
X1108Y512D01*
X1106D01*
X1102Y514D01*
X1099Y517D01*
X1097Y521D01*
Y523D01*
X1099Y527D01*
X1102Y530D01*
X1106Y532D01*
X1108D01*
X1112Y530D01*
X1115Y527D01*
X1117Y521D01*
Y514D01*
X1115Y506D01*
X1112Y502D01*
X1108Y500D01*
X1105D01*
X1100Y502D01*
X1099Y505D01*
X940Y532D02*
Y500D01*
Y532D02*
X954D01*
X958Y530D01*
X960Y529D01*
X961Y526D01*
Y523D01*
X960Y520D01*
X958Y518D01*
X954Y517D01*
X940D01*
X951D02*
X961Y500D01*
X987Y527D02*
X985Y530D01*
X981Y532D01*
X978D01*
X973Y530D01*
X970Y526D01*
X968Y518D01*
Y511D01*
X970Y505D01*
X973Y502D01*
X978Y500D01*
X979D01*
X984Y502D01*
X987Y505D01*
X988Y509D01*
Y511D01*
X987Y515D01*
X984Y518D01*
X979Y520D01*
X978D01*
X973Y518D01*
X970Y515D01*
X968Y511D01*
X1004Y532D02*
X1000Y530D01*
X997Y526D01*
X995Y518D01*
Y514D01*
X997Y506D01*
X1000Y502D01*
X1004Y500D01*
X1007D01*
X1012Y502D01*
X1015Y506D01*
X1017Y514D01*
Y518D01*
X1015Y526D01*
X1012Y530D01*
X1007Y532D01*
X1004D01*
X850D02*
Y500D01*
Y532D02*
X864D01*
X868Y530D01*
X870Y529D01*
X871Y526D01*
Y523D01*
X870Y520D01*
X868Y518D01*
X864Y517D01*
X850D01*
X861D02*
X871Y500D01*
X897Y527D02*
X895Y530D01*
X891Y532D01*
X888D01*
X883Y530D01*
X880Y526D01*
X878Y518D01*
Y511D01*
X880Y505D01*
X883Y502D01*
X888Y500D01*
X889D01*
X894Y502D01*
X897Y505D01*
X898Y509D01*
Y511D01*
X897Y515D01*
X894Y518D01*
X889Y520D01*
X888D01*
X883Y518D01*
X880Y515D01*
X878Y511D01*
X905Y526D02*
X908Y527D01*
X913Y532D01*
Y500D01*
X1193Y524D02*
X1191Y527D01*
X1188Y530D01*
X1185Y532D01*
X1179D01*
X1176Y530D01*
X1173Y527D01*
X1172Y524D01*
X1170Y520D01*
Y512D01*
X1172Y508D01*
X1173Y505D01*
X1176Y502D01*
X1179Y500D01*
X1185D01*
X1188Y502D01*
X1191Y505D01*
X1193Y508D01*
X1220Y532D02*
X1205D01*
X1203Y518D01*
X1205Y520D01*
X1209Y521D01*
X1214D01*
X1219Y520D01*
X1222Y517D01*
X1223Y512D01*
Y509D01*
X1222Y505D01*
X1219Y502D01*
X1214Y500D01*
X1209D01*
X1205Y502D01*
X1203Y503D01*
X1202Y506D01*
X1246Y532D02*
X1230Y511D01*
X1253D01*
X1246Y532D02*
Y500D01*
X1323Y524D02*
X1321Y527D01*
X1318Y530D01*
X1315Y532D01*
X1309D01*
X1306Y530D01*
X1303Y527D01*
X1302Y524D01*
X1300Y520D01*
Y512D01*
X1302Y508D01*
X1303Y505D01*
X1306Y502D01*
X1309Y500D01*
X1315D01*
X1318Y502D01*
X1321Y505D01*
X1323Y508D01*
X1350Y532D02*
X1335D01*
X1333Y518D01*
X1335Y520D01*
X1339Y521D01*
X1344D01*
X1349Y520D01*
X1352Y517D01*
X1353Y512D01*
Y509D01*
X1352Y505D01*
X1349Y502D01*
X1344Y500D01*
X1339D01*
X1335Y502D01*
X1333Y503D01*
X1332Y506D01*
X1379Y532D02*
X1363D01*
X1362Y518D01*
X1363Y520D01*
X1368Y521D01*
X1373D01*
X1377Y520D01*
X1380Y517D01*
X1382Y512D01*
Y509D01*
X1380Y505D01*
X1377Y502D01*
X1373Y500D01*
X1368D01*
X1363Y502D01*
X1362Y503D01*
X1360Y506D01*
X1453Y524D02*
X1451Y527D01*
X1448Y530D01*
X1445Y532D01*
X1439D01*
X1436Y530D01*
X1433Y527D01*
X1432Y524D01*
X1430Y520D01*
Y512D01*
X1432Y508D01*
X1433Y505D01*
X1436Y502D01*
X1439Y500D01*
X1445D01*
X1448Y502D01*
X1451Y505D01*
X1453Y508D01*
X1480Y532D02*
X1465D01*
X1463Y518D01*
X1465Y520D01*
X1469Y521D01*
X1474D01*
X1479Y520D01*
X1482Y517D01*
X1483Y512D01*
Y509D01*
X1482Y505D01*
X1479Y502D01*
X1474Y500D01*
X1469D01*
X1465Y502D01*
X1463Y503D01*
X1462Y506D01*
X1492Y524D02*
Y526D01*
X1493Y529D01*
X1495Y530D01*
X1498Y532D01*
X1504D01*
X1507Y530D01*
X1509Y529D01*
X1510Y526D01*
Y523D01*
X1509Y520D01*
X1506Y515D01*
X1490Y500D01*
X1512D01*
X2078Y1130D02*
X2110D01*
X2078D02*
Y1144D01*
X2080Y1148D01*
X2081Y1150D01*
X2084Y1151D01*
X2087D01*
X2090Y1150D01*
X2092Y1148D01*
X2093Y1144D01*
Y1130D01*
Y1141D02*
X2110Y1151D01*
X2078Y1174D02*
X2099Y1158D01*
Y1181D01*
X2078Y1174D02*
X2110D01*
X2078Y1208D02*
X2110Y1193D01*
X2078Y1187D02*
Y1208D01*
X1998Y1130D02*
X2030D01*
X1998D02*
Y1144D01*
X2000Y1148D01*
X2001Y1150D01*
X2004Y1151D01*
X2007D01*
X2010Y1150D01*
X2012Y1148D01*
X2013Y1144D01*
Y1130D01*
Y1141D02*
X2030Y1151D01*
X1998Y1174D02*
X2019Y1158D01*
Y1181D01*
X1998Y1174D02*
X2030D01*
X2003Y1205D02*
X2000Y1204D01*
X1998Y1199D01*
Y1196D01*
X2000Y1192D01*
X2004Y1189D01*
X2012Y1187D01*
X2019D01*
X2025Y1189D01*
X2028Y1192D01*
X2030Y1196D01*
Y1198D01*
X2028Y1202D01*
X2025Y1205D01*
X2021Y1207D01*
X2019D01*
X2015Y1205D01*
X2012Y1202D01*
X2010Y1198D01*
Y1196D01*
X2012Y1192D01*
X2015Y1189D01*
X2019Y1187D01*
X1918Y1130D02*
X1950D01*
X1918D02*
Y1144D01*
X1920Y1148D01*
X1921Y1150D01*
X1924Y1151D01*
X1927D01*
X1930Y1150D01*
X1932Y1148D01*
X1933Y1144D01*
Y1130D01*
Y1141D02*
X1950Y1151D01*
X1918Y1174D02*
X1939Y1158D01*
Y1181D01*
X1918Y1174D02*
X1950D01*
X1918Y1202D02*
X1939Y1187D01*
Y1210D01*
X1918Y1202D02*
X1950D01*
X1768Y1130D02*
X1800D01*
X1768D02*
Y1144D01*
X1770Y1148D01*
X1771Y1150D01*
X1774Y1151D01*
X1777D01*
X1780Y1150D01*
X1782Y1148D01*
X1783Y1144D01*
Y1130D01*
Y1141D02*
X1800Y1151D01*
X1768Y1174D02*
X1789Y1158D01*
Y1181D01*
X1768Y1174D02*
X1800D01*
X1768Y1205D02*
Y1190D01*
X1782Y1189D01*
X1780Y1190D01*
X1779Y1195D01*
Y1199D01*
X1780Y1204D01*
X1783Y1207D01*
X1788Y1208D01*
X1791D01*
X1795Y1207D01*
X1798Y1204D01*
X1800Y1199D01*
Y1195D01*
X1798Y1190D01*
X1797Y1189D01*
X1794Y1187D01*
X1988Y719D02*
X1985Y722D01*
X1980Y725D01*
X1974Y728D01*
X1967Y730D01*
X1961D01*
X1953Y728D01*
X1947Y725D01*
X1942Y722D01*
X1939Y719D01*
X1985Y722D02*
X1979Y725D01*
X1974Y727D01*
X1967Y728D01*
X1961D01*
X1953Y727D01*
X1948Y725D01*
X1942Y722D01*
X1974Y690D02*
X1977Y692D01*
X1980Y695D01*
X1982Y698D01*
Y704D01*
X1980Y707D01*
X1977Y710D01*
X1974Y712D01*
X1970Y713D01*
X1962D01*
X1958Y712D01*
X1955Y710D01*
X1952Y707D01*
X1950Y704D01*
Y698D01*
X1952Y695D01*
X1955Y692D01*
X1958Y690D01*
X1971Y674D02*
X1970Y677D01*
X1967Y680D01*
X1962Y681D01*
X1959D01*
X1955Y680D01*
X1952Y677D01*
X1950Y674D01*
Y669D01*
X1952Y666D01*
X1955Y663D01*
X1959Y662D01*
X1962D01*
X1967Y663D01*
X1970Y666D01*
X1971Y669D01*
Y674D01*
Y655D02*
X1950D01*
X1965D02*
X1970Y650D01*
X1971Y647D01*
Y642D01*
X1970Y639D01*
X1965Y638D01*
X1950D01*
X1982Y617D02*
Y620D01*
X1980Y623D01*
X1976Y625D01*
X1950D01*
X1971Y629D02*
Y619D01*
X1988Y613D02*
X1985Y610D01*
X1980Y607D01*
X1974Y604D01*
X1967Y602D01*
X1961D01*
X1953Y604D01*
X1947Y607D01*
X1942Y610D01*
X1939Y613D01*
X1985Y610D02*
X1979Y607D01*
X1974Y605D01*
X1967Y604D01*
X1961D01*
X1953Y605D01*
X1948Y607D01*
X1942Y610D01*
X1750Y802D02*
Y770D01*
Y802D02*
X1764D01*
X1768Y800D01*
X1770Y799D01*
X1771Y796D01*
Y793D01*
X1770Y790D01*
X1768Y788D01*
X1764Y787D01*
X1750D01*
X1761D02*
X1771Y770D01*
X1797Y802D02*
X1782D01*
X1780Y788D01*
X1782Y790D01*
X1786Y791D01*
X1791D01*
X1795Y790D01*
X1798Y787D01*
X1800Y782D01*
Y779D01*
X1798Y775D01*
X1795Y772D01*
X1791Y770D01*
X1786D01*
X1782Y772D01*
X1780Y773D01*
X1778Y776D01*
X1825Y802D02*
X1810D01*
X1809Y788D01*
X1810Y790D01*
X1815Y791D01*
X1819D01*
X1824Y790D01*
X1827Y787D01*
X1828Y782D01*
Y779D01*
X1827Y775D01*
X1824Y772D01*
X1819Y770D01*
X1815D01*
X1810Y772D01*
X1809Y773D01*
X1807Y776D01*
X2173Y884D02*
X2171Y887D01*
X2168Y890D01*
X2165Y892D01*
X2159D01*
X2156Y890D01*
X2153Y887D01*
X2152Y884D01*
X2150Y880D01*
Y872D01*
X2152Y868D01*
X2153Y865D01*
X2156Y862D01*
X2159Y860D01*
X2165D01*
X2168Y862D01*
X2171Y865D01*
X2173Y868D01*
X2197Y892D02*
X2182Y871D01*
X2205D01*
X2197Y892D02*
Y860D01*
X2692Y710D02*
X2660D01*
Y692D01*
X2692Y668D02*
Y688D01*
X2660D01*
Y668D01*
X2677Y688D02*
Y676D01*
X2692Y663D02*
X2660D01*
X2692D02*
Y652D01*
X2690Y648D01*
X2687Y645D01*
X2684Y643D01*
X2680Y642D01*
X2672D01*
X2668Y643D01*
X2665Y645D01*
X2662Y648D01*
X2660Y652D01*
Y663D01*
X2684Y633D02*
X2686D01*
X2689Y632D01*
X2690Y630D01*
X2692Y627D01*
Y621D01*
X2690Y618D01*
X2689Y616D01*
X2686Y615D01*
X2683D01*
X2680Y616D01*
X2675Y619D01*
X2660Y635D01*
Y613D01*
X2452Y710D02*
X2420D01*
Y692D01*
X2452Y668D02*
Y688D01*
X2420D01*
Y668D01*
X2437Y688D02*
Y676D01*
X2452Y663D02*
X2420D01*
X2452D02*
Y652D01*
X2450Y648D01*
X2447Y645D01*
X2444Y643D01*
X2440Y642D01*
X2432D01*
X2428Y643D01*
X2425Y645D01*
X2422Y648D01*
X2420Y652D01*
Y663D01*
X2446Y635D02*
X2447Y632D01*
X2452Y627D01*
X2420D01*
X2212Y720D02*
X2180D01*
Y702D01*
X2212Y678D02*
Y698D01*
X2180D01*
Y678D01*
X2197Y698D02*
Y686D01*
X2212Y673D02*
X2180D01*
X2212D02*
Y662D01*
X2210Y658D01*
X2207Y655D01*
X2204Y653D01*
X2200Y652D01*
X2192D01*
X2188Y653D01*
X2185Y655D01*
X2182Y658D01*
X2180Y662D01*
Y673D01*
X2212Y635D02*
X2210Y640D01*
X2206Y643D01*
X2198Y645D01*
X2194D01*
X2186Y643D01*
X2182Y640D01*
X2180Y635D01*
Y632D01*
X2182Y628D01*
X2186Y625D01*
X2194Y623D01*
X2198D01*
X2206Y625D01*
X2210Y628D01*
X2212Y632D01*
Y635D01*
X1850Y802D02*
Y770D01*
Y802D02*
X1861D01*
X1865Y800D01*
X1868Y797D01*
X1870Y794D01*
X1871Y790D01*
Y782D01*
X1870Y778D01*
X1868Y775D01*
X1865Y772D01*
X1861Y770D01*
X1850D01*
X1878Y796D02*
X1882Y797D01*
X1886Y802D01*
Y770D01*
X1917Y802D02*
X1902Y781D01*
X1925D01*
X1917Y802D02*
Y770D01*
X2173Y794D02*
X2171Y797D01*
X2168Y800D01*
X2165Y802D01*
X2159D01*
X2156Y800D01*
X2153Y797D01*
X2152Y794D01*
X2150Y790D01*
Y782D01*
X2152Y778D01*
X2153Y775D01*
X2156Y772D01*
X2159Y770D01*
X2165D01*
X2168Y772D01*
X2171Y775D01*
X2173Y778D01*
X2185Y802D02*
X2202D01*
X2193Y790D01*
X2197D01*
X2200Y788D01*
X2202Y787D01*
X2203Y782D01*
Y779D01*
X2202Y775D01*
X2199Y772D01*
X2194Y770D01*
X2189D01*
X2185Y772D01*
X2183Y773D01*
X2182Y776D01*
X2250Y572D02*
Y540D01*
Y572D02*
X2264D01*
X2268Y570D01*
X2270Y569D01*
X2271Y566D01*
Y563D01*
X2270Y560D01*
X2268Y558D01*
X2264Y557D01*
X2250D01*
X2261D02*
X2271Y540D01*
X2294Y572D02*
X2278Y551D01*
X2301D01*
X2294Y572D02*
Y540D01*
X2423Y1554D02*
X2421Y1557D01*
X2418Y1560D01*
X2415Y1562D01*
X2409D01*
X2406Y1560D01*
X2403Y1557D01*
X2402Y1554D01*
X2400Y1550D01*
Y1542D01*
X2402Y1538D01*
X2403Y1535D01*
X2406Y1532D01*
X2409Y1530D01*
X2415D01*
X2418Y1532D01*
X2421Y1535D01*
X2423Y1538D01*
X2433Y1554D02*
Y1556D01*
X2435Y1559D01*
X2436Y1560D01*
X2439Y1562D01*
X2446D01*
X2449Y1560D01*
X2450Y1559D01*
X2452Y1556D01*
Y1553D01*
X2450Y1550D01*
X2447Y1545D01*
X2432Y1530D01*
X2453D01*
X2468Y1562D02*
X2463Y1560D01*
X2462Y1557D01*
Y1554D01*
X2463Y1551D01*
X2466Y1550D01*
X2473Y1548D01*
X2477Y1547D01*
X2480Y1544D01*
X2482Y1541D01*
Y1536D01*
X2480Y1533D01*
X2479Y1532D01*
X2474Y1530D01*
X2468D01*
X2463Y1532D01*
X2462Y1533D01*
X2460Y1536D01*
Y1541D01*
X2462Y1544D01*
X2465Y1547D01*
X2469Y1548D01*
X2476Y1550D01*
X2479Y1551D01*
X2480Y1554D01*
Y1557D01*
X2479Y1560D01*
X2474Y1562D01*
X2468D01*
X2524Y1066D02*
Y1034D01*
Y1066D02*
X2538D01*
X2542Y1064D01*
X2544Y1063D01*
X2545Y1060D01*
Y1057D01*
X2544Y1054D01*
X2542Y1052D01*
X2538Y1051D01*
X2524D01*
X2535D02*
X2545Y1034D01*
X2556Y1066D02*
X2572D01*
X2563Y1054D01*
X2568D01*
X2571Y1052D01*
X2572Y1051D01*
X2574Y1046D01*
Y1043D01*
X2572Y1039D01*
X2569Y1036D01*
X2565Y1034D01*
X2560D01*
X2556Y1036D01*
X2554Y1037D01*
X2552Y1040D01*
X2599Y1061D02*
X2598Y1064D01*
X2593Y1066D01*
X2590D01*
X2586Y1064D01*
X2583Y1060D01*
X2581Y1052D01*
Y1045D01*
X2583Y1039D01*
X2586Y1036D01*
X2590Y1034D01*
X2592D01*
X2596Y1036D01*
X2599Y1039D01*
X2601Y1043D01*
Y1045D01*
X2599Y1049D01*
X2596Y1052D01*
X2592Y1054D01*
X2590D01*
X2586Y1052D01*
X2583Y1049D01*
X2581Y1045D01*
X2524Y996D02*
Y964D01*
Y996D02*
X2538D01*
X2542Y994D01*
X2544Y993D01*
X2545Y990D01*
Y987D01*
X2544Y984D01*
X2542Y982D01*
X2538Y981D01*
X2524D01*
X2535D02*
X2545Y964D01*
X2556Y996D02*
X2572D01*
X2563Y984D01*
X2568D01*
X2571Y982D01*
X2572Y981D01*
X2574Y976D01*
Y973D01*
X2572Y969D01*
X2569Y966D01*
X2565Y964D01*
X2560D01*
X2556Y966D01*
X2554Y967D01*
X2552Y970D01*
X2599Y996D02*
X2584D01*
X2583Y982D01*
X2584Y984D01*
X2589Y985D01*
X2593D01*
X2598Y984D01*
X2601Y981D01*
X2602Y976D01*
Y973D01*
X2601Y969D01*
X2598Y966D01*
X2593Y964D01*
X2589D01*
X2584Y966D01*
X2583Y967D01*
X2581Y970D01*
X3085Y1027D02*
Y995D01*
Y1027D02*
X3099D01*
X3103Y1025D01*
X3105Y1024D01*
X3106Y1021D01*
Y1018D01*
X3105Y1015D01*
X3103Y1013D01*
X3099Y1012D01*
X3085D01*
X3096D02*
X3106Y995D01*
X3132Y1027D02*
X3117D01*
X3115Y1013D01*
X3117Y1015D01*
X3121Y1016D01*
X3126D01*
X3130Y1015D01*
X3133Y1012D01*
X3135Y1007D01*
Y1004D01*
X3133Y1000D01*
X3130Y997D01*
X3126Y995D01*
X3121D01*
X3117Y997D01*
X3115Y998D01*
X3113Y1001D01*
X3150Y1027D02*
X3145Y1025D01*
X3144Y1022D01*
Y1019D01*
X3145Y1016D01*
X3148Y1015D01*
X3154Y1013D01*
X3159Y1012D01*
X3162Y1009D01*
X3163Y1006D01*
Y1001D01*
X3162Y998D01*
X3160Y997D01*
X3156Y995D01*
X3150D01*
X3145Y997D01*
X3144Y998D01*
X3142Y1001D01*
Y1006D01*
X3144Y1009D01*
X3147Y1012D01*
X3151Y1013D01*
X3157Y1015D01*
X3160Y1016D01*
X3162Y1019D01*
Y1022D01*
X3160Y1025D01*
X3156Y1027D01*
X3150D01*
X1083Y3320D02*
X1081Y3323D01*
X1078Y3326D01*
X1075Y3328D01*
X1069D01*
X1066Y3326D01*
X1063Y3323D01*
X1062Y3320D01*
X1060Y3316D01*
Y3308D01*
X1062Y3304D01*
X1063Y3301D01*
X1066Y3298D01*
X1069Y3296D01*
X1075D01*
X1078Y3298D01*
X1081Y3301D01*
X1083Y3304D01*
X1092Y3322D02*
X1095Y3323D01*
X1099Y3328D01*
Y3296D01*
X1131Y3328D02*
X1115Y3307D01*
X1138D01*
X1131Y3328D02*
Y3296D01*
X756Y3208D02*
Y3185D01*
X758Y3181D01*
X761Y3178D01*
X765Y3176D01*
X768D01*
X773Y3178D01*
X776Y3181D01*
X777Y3185D01*
Y3208D01*
X786Y3202D02*
X789Y3203D01*
X794Y3208D01*
Y3176D01*
X810Y3202D02*
X813Y3203D01*
X817Y3208D01*
Y3176D01*
X1434Y2717D02*
X1448D01*
X1452Y2719D01*
X1454Y2720D01*
X1455Y2723D01*
Y2728D01*
X1454Y2731D01*
X1452Y2732D01*
X1448Y2734D01*
X1434D01*
Y2702D01*
X1462Y2728D02*
X1466Y2729D01*
X1470Y2734D01*
Y2702D01*
X1495Y2734D02*
X1491Y2732D01*
X1487Y2728D01*
X1486Y2720D01*
Y2716D01*
X1487Y2708D01*
X1491Y2704D01*
X1495Y2702D01*
X1498D01*
X1503Y2704D01*
X1506Y2708D01*
X1507Y2716D01*
Y2720D01*
X1506Y2728D01*
X1503Y2732D01*
X1498Y2734D01*
X1495D01*
X2260Y3045D02*
X2274D01*
X2278Y3047D01*
X2280Y3048D01*
X2281Y3051D01*
Y3056D01*
X2280Y3059D01*
X2278Y3060D01*
X2274Y3062D01*
X2260D01*
Y3030D01*
X2308Y3051D02*
X2307Y3047D01*
X2304Y3044D01*
X2299Y3042D01*
X2298D01*
X2293Y3044D01*
X2290Y3047D01*
X2288Y3051D01*
Y3053D01*
X2290Y3057D01*
X2293Y3060D01*
X2298Y3062D01*
X2299D01*
X2304Y3060D01*
X2307Y3057D01*
X2308Y3051D01*
Y3044D01*
X2307Y3036D01*
X2304Y3032D01*
X2299Y3030D01*
X2296D01*
X2292Y3032D01*
X2290Y3035D01*
X2399Y3867D02*
X2397Y3870D01*
X2394Y3873D01*
X2391Y3875D01*
X2385D01*
X2382Y3873D01*
X2379Y3870D01*
X2378Y3867D01*
X2376Y3863D01*
Y3855D01*
X2378Y3851D01*
X2379Y3848D01*
X2382Y3845D01*
X2385Y3843D01*
X2391D01*
X2394Y3845D01*
X2397Y3848D01*
X2399Y3851D01*
X2426Y3870D02*
X2425Y3873D01*
X2420Y3875D01*
X2417D01*
X2412Y3873D01*
X2409Y3869D01*
X2408Y3861D01*
Y3854D01*
X2409Y3848D01*
X2412Y3845D01*
X2417Y3843D01*
X2419D01*
X2423Y3845D01*
X2426Y3848D01*
X2428Y3852D01*
Y3854D01*
X2426Y3858D01*
X2423Y3861D01*
X2419Y3863D01*
X2417D01*
X2412Y3861D01*
X2409Y3858D01*
X2408Y3854D01*
X2539Y3867D02*
X2537Y3870D01*
X2534Y3873D01*
X2531Y3875D01*
X2525D01*
X2522Y3873D01*
X2519Y3870D01*
X2518Y3867D01*
X2516Y3863D01*
Y3855D01*
X2518Y3851D01*
X2519Y3848D01*
X2522Y3845D01*
X2525Y3843D01*
X2531D01*
X2534Y3845D01*
X2537Y3848D01*
X2539Y3851D01*
X2555Y3875D02*
X2551Y3873D01*
X2549Y3870D01*
Y3867D01*
X2551Y3864D01*
X2554Y3863D01*
X2560Y3861D01*
X2565Y3860D01*
X2568Y3857D01*
X2569Y3854D01*
Y3849D01*
X2568Y3846D01*
X2566Y3845D01*
X2562Y3843D01*
X2555D01*
X2551Y3845D01*
X2549Y3846D01*
X2548Y3849D01*
Y3854D01*
X2549Y3857D01*
X2552Y3860D01*
X2557Y3861D01*
X2563Y3863D01*
X2566Y3864D01*
X2568Y3867D01*
Y3870D01*
X2566Y3873D01*
X2562Y3875D01*
X2555D01*
X2693Y3794D02*
X2691Y3797D01*
X2688Y3800D01*
X2685Y3802D01*
X2679D01*
X2676Y3800D01*
X2673Y3797D01*
X2672Y3794D01*
X2670Y3790D01*
Y3782D01*
X2672Y3778D01*
X2673Y3775D01*
X2676Y3772D01*
X2679Y3770D01*
X2685D01*
X2688Y3772D01*
X2691Y3775D01*
X2693Y3778D01*
X2702Y3796D02*
X2705Y3797D01*
X2709Y3802D01*
Y3770D01*
X2734Y3802D02*
X2730Y3800D01*
X2727Y3796D01*
X2725Y3788D01*
Y3784D01*
X2727Y3776D01*
X2730Y3772D01*
X2734Y3770D01*
X2737D01*
X2742Y3772D01*
X2745Y3776D01*
X2747Y3784D01*
Y3788D01*
X2745Y3796D01*
X2742Y3800D01*
X2737Y3802D01*
X2734D01*
X3213Y3124D02*
X3211Y3127D01*
X3208Y3130D01*
X3205Y3132D01*
X3199D01*
X3196Y3130D01*
X3193Y3127D01*
X3192Y3124D01*
X3190Y3120D01*
Y3112D01*
X3192Y3108D01*
X3193Y3105D01*
X3196Y3102D01*
X3199Y3100D01*
X3205D01*
X3208Y3102D01*
X3211Y3105D01*
X3213Y3108D01*
X3222Y3126D02*
X3225Y3127D01*
X3229Y3132D01*
Y3100D01*
X3247Y3124D02*
Y3126D01*
X3248Y3129D01*
X3250Y3130D01*
X3253Y3132D01*
X3259D01*
X3262Y3130D01*
X3264Y3129D01*
X3265Y3126D01*
Y3123D01*
X3264Y3120D01*
X3261Y3115D01*
X3245Y3100D01*
X3267D01*
X1361Y1938D02*
X1359Y1941D01*
X1356Y1944D01*
X1353Y1946D01*
X1347D01*
X1344Y1944D01*
X1341Y1941D01*
X1340Y1938D01*
X1338Y1934D01*
Y1926D01*
X1340Y1922D01*
X1341Y1919D01*
X1344Y1916D01*
X1347Y1914D01*
X1353D01*
X1356Y1916D01*
X1359Y1919D01*
X1361Y1922D01*
X1371Y1938D02*
Y1940D01*
X1373Y1943D01*
X1374Y1944D01*
X1377Y1946D01*
X1384D01*
X1387Y1944D01*
X1388Y1943D01*
X1390Y1940D01*
Y1937D01*
X1388Y1934D01*
X1385Y1929D01*
X1370Y1914D01*
X1391D01*
X1401Y1946D02*
X1418D01*
X1409Y1934D01*
X1414D01*
X1417Y1932D01*
X1418Y1931D01*
X1420Y1926D01*
Y1923D01*
X1418Y1919D01*
X1415Y1916D01*
X1411Y1914D01*
X1406D01*
X1401Y1916D01*
X1400Y1917D01*
X1398Y1920D01*
X1343Y1789D02*
X1341Y1792D01*
X1338Y1795D01*
X1335Y1797D01*
X1329D01*
X1326Y1795D01*
X1323Y1792D01*
X1322Y1789D01*
X1320Y1785D01*
Y1777D01*
X1322Y1773D01*
X1323Y1770D01*
X1326Y1767D01*
X1329Y1765D01*
X1335D01*
X1338Y1767D01*
X1341Y1770D01*
X1343Y1773D01*
X1353Y1789D02*
Y1791D01*
X1355Y1794D01*
X1356Y1795D01*
X1359Y1797D01*
X1366D01*
X1369Y1795D01*
X1370Y1794D01*
X1372Y1791D01*
Y1788D01*
X1370Y1785D01*
X1367Y1780D01*
X1352Y1765D01*
X1373D01*
X1396Y1797D02*
X1380Y1776D01*
X1403D01*
X1396Y1797D02*
Y1765D01*
X1321Y1518D02*
X1319Y1521D01*
X1316Y1524D01*
X1313Y1526D01*
X1307D01*
X1304Y1524D01*
X1301Y1521D01*
X1300Y1518D01*
X1298Y1514D01*
Y1506D01*
X1300Y1502D01*
X1301Y1499D01*
X1304Y1496D01*
X1307Y1494D01*
X1313D01*
X1316Y1496D01*
X1319Y1499D01*
X1321Y1502D01*
X1331Y1518D02*
Y1520D01*
X1333Y1523D01*
X1334Y1524D01*
X1337Y1526D01*
X1344D01*
X1347Y1524D01*
X1348Y1523D01*
X1350Y1520D01*
Y1517D01*
X1348Y1514D01*
X1345Y1509D01*
X1330Y1494D01*
X1351D01*
X1377Y1526D02*
X1361D01*
X1360Y1512D01*
X1361Y1514D01*
X1366Y1515D01*
X1371D01*
X1375Y1514D01*
X1378Y1511D01*
X1380Y1506D01*
Y1503D01*
X1378Y1499D01*
X1375Y1496D01*
X1371Y1494D01*
X1366D01*
X1361Y1496D01*
X1360Y1497D01*
X1358Y1500D01*
X3123Y3124D02*
X3121Y3127D01*
X3118Y3130D01*
X3115Y3132D01*
X3109D01*
X3106Y3130D01*
X3103Y3127D01*
X3102Y3124D01*
X3100Y3120D01*
Y3112D01*
X3102Y3108D01*
X3103Y3105D01*
X3106Y3102D01*
X3109Y3100D01*
X3115D01*
X3118Y3102D01*
X3121Y3105D01*
X3123Y3108D01*
X3135Y3132D02*
X3152D01*
X3143Y3120D01*
X3147D01*
X3150Y3118D01*
X3152Y3117D01*
X3153Y3112D01*
Y3109D01*
X3152Y3105D01*
X3149Y3102D01*
X3144Y3100D01*
X3139D01*
X3135Y3102D01*
X3133Y3103D01*
X3132Y3106D01*
X3160Y3126D02*
X3163Y3127D01*
X3168Y3132D01*
Y3100D01*
X2435Y1908D02*
X2433Y1911D01*
X2430Y1914D01*
X2427Y1916D01*
X2421D01*
X2418Y1914D01*
X2415Y1911D01*
X2414Y1908D01*
X2412Y1904D01*
Y1896D01*
X2414Y1892D01*
X2415Y1889D01*
X2418Y1886D01*
X2421Y1884D01*
X2427D01*
X2430Y1886D01*
X2433Y1889D01*
X2435Y1892D01*
X2447Y1916D02*
X2464D01*
X2455Y1904D01*
X2459D01*
X2462Y1902D01*
X2464Y1901D01*
X2465Y1896D01*
Y1893D01*
X2464Y1889D01*
X2461Y1886D01*
X2456Y1884D01*
X2451D01*
X2447Y1886D01*
X2445Y1887D01*
X2444Y1890D01*
X2475Y1916D02*
X2492D01*
X2483Y1904D01*
X2488D01*
X2491Y1902D01*
X2492Y1901D01*
X2494Y1896D01*
Y1893D01*
X2492Y1889D01*
X2489Y1886D01*
X2485Y1884D01*
X2480D01*
X2475Y1886D01*
X2474Y1887D01*
X2472Y1890D01*
X3013Y3124D02*
X3011Y3127D01*
X3008Y3130D01*
X3005Y3132D01*
X2999D01*
X2996Y3130D01*
X2993Y3127D01*
X2992Y3124D01*
X2990Y3120D01*
Y3112D01*
X2992Y3108D01*
X2993Y3105D01*
X2996Y3102D01*
X2999Y3100D01*
X3005D01*
X3008Y3102D01*
X3011Y3105D01*
X3013Y3108D01*
X3037Y3132D02*
X3022Y3111D01*
X3045D01*
X3037Y3132D02*
Y3100D01*
X3072Y3132D02*
X3056Y3100D01*
X3050Y3132D02*
X3072D01*
X1405Y1328D02*
X1403Y1331D01*
X1400Y1334D01*
X1397Y1336D01*
X1391D01*
X1388Y1334D01*
X1385Y1331D01*
X1384Y1328D01*
X1382Y1324D01*
Y1316D01*
X1384Y1312D01*
X1385Y1309D01*
X1388Y1306D01*
X1391Y1304D01*
X1397D01*
X1400Y1306D01*
X1403Y1309D01*
X1405Y1312D01*
X1429Y1336D02*
X1414Y1315D01*
X1437D01*
X1429Y1336D02*
Y1304D01*
X1462Y1325D02*
X1461Y1321D01*
X1458Y1318D01*
X1453Y1316D01*
X1451D01*
X1447Y1318D01*
X1444Y1321D01*
X1442Y1325D01*
Y1327D01*
X1444Y1331D01*
X1447Y1334D01*
X1451Y1336D01*
X1453D01*
X1458Y1334D01*
X1461Y1331D01*
X1462Y1325D01*
Y1318D01*
X1461Y1310D01*
X1458Y1306D01*
X1453Y1304D01*
X1450D01*
X1445Y1306D01*
X1444Y1309D01*
X1583Y524D02*
X1581Y527D01*
X1578Y530D01*
X1575Y532D01*
X1569D01*
X1566Y530D01*
X1563Y527D01*
X1562Y524D01*
X1560Y520D01*
Y512D01*
X1562Y508D01*
X1563Y505D01*
X1566Y502D01*
X1569Y500D01*
X1575D01*
X1578Y502D01*
X1581Y505D01*
X1583Y508D01*
X1610Y532D02*
X1595D01*
X1593Y518D01*
X1595Y520D01*
X1599Y521D01*
X1604D01*
X1609Y520D01*
X1612Y517D01*
X1613Y512D01*
Y509D01*
X1612Y505D01*
X1609Y502D01*
X1604Y500D01*
X1599D01*
X1595Y502D01*
X1593Y503D01*
X1592Y506D01*
X1623Y532D02*
X1640D01*
X1631Y520D01*
X1636D01*
X1639Y518D01*
X1640Y517D01*
X1642Y512D01*
Y509D01*
X1640Y505D01*
X1637Y502D01*
X1633Y500D01*
X1628D01*
X1623Y502D01*
X1622Y503D01*
X1620Y506D01*
X1299Y3070D02*
X1297Y3073D01*
X1294Y3076D01*
X1291Y3078D01*
X1285D01*
X1282Y3076D01*
X1279Y3073D01*
X1278Y3070D01*
X1276Y3066D01*
Y3058D01*
X1278Y3054D01*
X1279Y3051D01*
X1282Y3048D01*
X1285Y3046D01*
X1291D01*
X1294Y3048D01*
X1297Y3051D01*
X1299Y3054D01*
X1326Y3078D02*
X1311D01*
X1309Y3064D01*
X1311Y3066D01*
X1315Y3067D01*
X1320D01*
X1325Y3066D01*
X1328Y3063D01*
X1329Y3058D01*
Y3055D01*
X1328Y3051D01*
X1325Y3048D01*
X1320Y3046D01*
X1315D01*
X1311Y3048D01*
X1309Y3049D01*
X1308Y3052D01*
X1358Y3078D02*
X1342Y3046D01*
X1336Y3078D02*
X1358D01*
X1299Y2920D02*
X1297Y2923D01*
X1294Y2926D01*
X1291Y2928D01*
X1285D01*
X1282Y2926D01*
X1279Y2923D01*
X1278Y2920D01*
X1276Y2916D01*
Y2908D01*
X1278Y2904D01*
X1279Y2901D01*
X1282Y2898D01*
X1285Y2896D01*
X1291D01*
X1294Y2898D01*
X1297Y2901D01*
X1299Y2904D01*
X1326Y2928D02*
X1311D01*
X1309Y2914D01*
X1311Y2916D01*
X1315Y2917D01*
X1320D01*
X1325Y2916D01*
X1328Y2913D01*
X1329Y2908D01*
Y2905D01*
X1328Y2901D01*
X1325Y2898D01*
X1320Y2896D01*
X1315D01*
X1311Y2898D01*
X1309Y2899D01*
X1308Y2902D01*
X1344Y2928D02*
X1339Y2926D01*
X1338Y2923D01*
Y2920D01*
X1339Y2917D01*
X1342Y2916D01*
X1349Y2914D01*
X1353Y2913D01*
X1356Y2910D01*
X1358Y2907D01*
Y2902D01*
X1356Y2899D01*
X1355Y2898D01*
X1350Y2896D01*
X1344D01*
X1339Y2898D01*
X1338Y2899D01*
X1336Y2902D01*
Y2907D01*
X1338Y2910D01*
X1341Y2913D01*
X1345Y2914D01*
X1352Y2916D01*
X1355Y2917D01*
X1356Y2920D01*
Y2923D01*
X1355Y2926D01*
X1350Y2928D01*
X1344D01*
X2653Y3444D02*
X2651Y3447D01*
X2648Y3450D01*
X2645Y3452D01*
X2639D01*
X2636Y3450D01*
X2633Y3447D01*
X2632Y3444D01*
X2630Y3440D01*
Y3432D01*
X2632Y3428D01*
X2633Y3425D01*
X2636Y3422D01*
X2639Y3420D01*
X2645D01*
X2648Y3422D01*
X2651Y3425D01*
X2653Y3428D01*
X2680Y3452D02*
X2665D01*
X2663Y3438D01*
X2665Y3440D01*
X2669Y3441D01*
X2674D01*
X2679Y3440D01*
X2682Y3437D01*
X2683Y3432D01*
Y3429D01*
X2682Y3425D01*
X2679Y3422D01*
X2674Y3420D01*
X2669D01*
X2665Y3422D01*
X2663Y3423D01*
X2662Y3426D01*
X2710Y3441D02*
X2709Y3437D01*
X2706Y3434D01*
X2701Y3432D01*
X2699D01*
X2695Y3434D01*
X2692Y3437D01*
X2690Y3441D01*
Y3443D01*
X2692Y3447D01*
X2695Y3450D01*
X2699Y3452D01*
X2701D01*
X2706Y3450D01*
X2709Y3447D01*
X2710Y3441D01*
Y3434D01*
X2709Y3426D01*
X2706Y3422D01*
X2701Y3420D01*
X2698D01*
X2693Y3422D01*
X2692Y3425D01*
X3229Y3787D02*
X3227Y3790D01*
X3224Y3793D01*
X3221Y3795D01*
X3215D01*
X3212Y3793D01*
X3209Y3790D01*
X3208Y3787D01*
X3206Y3783D01*
Y3775D01*
X3208Y3771D01*
X3209Y3768D01*
X3212Y3765D01*
X3215Y3763D01*
X3221D01*
X3224Y3765D01*
X3227Y3768D01*
X3229Y3771D01*
X3256Y3790D02*
X3255Y3793D01*
X3250Y3795D01*
X3247D01*
X3242Y3793D01*
X3239Y3789D01*
X3238Y3781D01*
Y3774D01*
X3239Y3768D01*
X3242Y3765D01*
X3247Y3763D01*
X3249D01*
X3253Y3765D01*
X3256Y3768D01*
X3258Y3772D01*
Y3774D01*
X3256Y3778D01*
X3253Y3781D01*
X3249Y3783D01*
X3247D01*
X3242Y3781D01*
X3239Y3778D01*
X3238Y3774D01*
X3266Y3787D02*
Y3789D01*
X3268Y3792D01*
X3269Y3793D01*
X3272Y3795D01*
X3278D01*
X3281Y3793D01*
X3283Y3792D01*
X3284Y3789D01*
Y3786D01*
X3283Y3783D01*
X3280Y3778D01*
X3265Y3763D01*
X3286D01*
X1720Y3242D02*
Y3210D01*
Y3242D02*
X1731D01*
X1735Y3240D01*
X1738Y3237D01*
X1740Y3234D01*
X1741Y3230D01*
Y3222D01*
X1740Y3218D01*
X1738Y3215D01*
X1735Y3212D01*
X1731Y3210D01*
X1720D01*
X1750Y3234D02*
Y3236D01*
X1752Y3239D01*
X1753Y3240D01*
X1756Y3242D01*
X1762D01*
X1765Y3240D01*
X1767Y3239D01*
X1768Y3236D01*
Y3233D01*
X1767Y3230D01*
X1764Y3225D01*
X1748Y3210D01*
X1770D01*
X2020Y3242D02*
Y3210D01*
Y3242D02*
X2031D01*
X2035Y3240D01*
X2038Y3237D01*
X2040Y3234D01*
X2041Y3230D01*
Y3222D01*
X2040Y3218D01*
X2038Y3215D01*
X2035Y3212D01*
X2031Y3210D01*
X2020D01*
X2052Y3242D02*
X2068D01*
X2059Y3230D01*
X2064D01*
X2067Y3228D01*
X2068Y3227D01*
X2070Y3222D01*
Y3219D01*
X2068Y3215D01*
X2065Y3212D01*
X2061Y3210D01*
X2056D01*
X2052Y3212D01*
X2050Y3213D01*
X2048Y3216D01*
X2110Y3242D02*
Y3210D01*
Y3242D02*
X2121D01*
X2125Y3240D01*
X2128Y3237D01*
X2130Y3234D01*
X2131Y3230D01*
Y3222D01*
X2130Y3218D01*
X2128Y3215D01*
X2125Y3212D01*
X2121Y3210D01*
X2110D01*
X2154Y3242D02*
X2138Y3221D01*
X2161D01*
X2154Y3242D02*
Y3210D01*
X1820Y3242D02*
Y3210D01*
Y3242D02*
X1831D01*
X1835Y3240D01*
X1838Y3237D01*
X1840Y3234D01*
X1841Y3230D01*
Y3222D01*
X1840Y3218D01*
X1838Y3215D01*
X1835Y3212D01*
X1831Y3210D01*
X1820D01*
X1867Y3242D02*
X1852D01*
X1850Y3228D01*
X1852Y3230D01*
X1856Y3231D01*
X1861D01*
X1865Y3230D01*
X1868Y3227D01*
X1870Y3222D01*
Y3219D01*
X1868Y3215D01*
X1865Y3212D01*
X1861Y3210D01*
X1856D01*
X1852Y3212D01*
X1850Y3213D01*
X1848Y3216D01*
X1920Y3242D02*
Y3210D01*
Y3242D02*
X1931D01*
X1935Y3240D01*
X1938Y3237D01*
X1940Y3234D01*
X1941Y3230D01*
Y3222D01*
X1940Y3218D01*
X1938Y3215D01*
X1935Y3212D01*
X1931Y3210D01*
X1920D01*
X1967Y3237D02*
X1965Y3240D01*
X1961Y3242D01*
X1958D01*
X1953Y3240D01*
X1950Y3236D01*
X1948Y3228D01*
Y3221D01*
X1950Y3215D01*
X1953Y3212D01*
X1958Y3210D01*
X1959D01*
X1964Y3212D01*
X1967Y3215D01*
X1968Y3219D01*
Y3221D01*
X1967Y3225D01*
X1964Y3228D01*
X1959Y3230D01*
X1958D01*
X1953Y3228D01*
X1950Y3225D01*
X1948Y3221D01*
X1440Y912D02*
Y880D01*
Y912D02*
X1451D01*
X1455Y910D01*
X1458Y907D01*
X1460Y904D01*
X1461Y900D01*
Y892D01*
X1460Y888D01*
X1458Y885D01*
X1455Y882D01*
X1451Y880D01*
X1440D01*
X1468Y906D02*
X1472Y907D01*
X1476Y912D01*
Y880D01*
X1501Y912D02*
X1497Y910D01*
X1493Y906D01*
X1492Y898D01*
Y894D01*
X1493Y886D01*
X1497Y882D01*
X1501Y880D01*
X1504D01*
X1509Y882D01*
X1512Y886D01*
X1513Y894D01*
Y898D01*
X1512Y906D01*
X1509Y910D01*
X1504Y912D01*
X1501D01*
X1570D02*
Y880D01*
Y912D02*
X1581D01*
X1585Y910D01*
X1588Y907D01*
X1590Y904D01*
X1591Y900D01*
Y892D01*
X1590Y888D01*
X1588Y885D01*
X1585Y882D01*
X1581Y880D01*
X1570D01*
X1598Y906D02*
X1602Y907D01*
X1606Y912D01*
Y880D01*
X1622Y906D02*
X1625Y907D01*
X1630Y912D01*
Y880D01*
X1170Y912D02*
Y880D01*
Y912D02*
X1181D01*
X1185Y910D01*
X1188Y907D01*
X1190Y904D01*
X1191Y900D01*
Y892D01*
X1190Y888D01*
X1188Y885D01*
X1185Y882D01*
X1181Y880D01*
X1170D01*
X1198Y906D02*
X1202Y907D01*
X1206Y912D01*
Y880D01*
X1223Y904D02*
Y906D01*
X1225Y909D01*
X1227Y910D01*
X1230Y912D01*
X1236D01*
X1239Y910D01*
X1240Y909D01*
X1242Y906D01*
Y903D01*
X1240Y900D01*
X1237Y895D01*
X1222Y880D01*
X1243D01*
X1300Y912D02*
Y880D01*
Y912D02*
X1311D01*
X1315Y910D01*
X1318Y907D01*
X1320Y904D01*
X1321Y900D01*
Y892D01*
X1320Y888D01*
X1318Y885D01*
X1315Y882D01*
X1311Y880D01*
X1300D01*
X1328Y906D02*
X1332Y907D01*
X1336Y912D01*
Y880D01*
X1355Y912D02*
X1372D01*
X1363Y900D01*
X1367D01*
X1370Y898D01*
X1372Y897D01*
X1373Y892D01*
Y889D01*
X1372Y885D01*
X1369Y882D01*
X1364Y880D01*
X1360D01*
X1355Y882D01*
X1353Y883D01*
X1352Y886D01*
X2200Y3522D02*
Y3490D01*
Y3522D02*
X2220D01*
X2200Y3507D02*
X2212D01*
X2223Y3516D02*
X2227Y3517D01*
X2231Y3522D01*
Y3490D01*
X2175Y3852D02*
Y3828D01*
X2174Y3823D01*
X2172Y3822D01*
X2169Y3820D01*
X2166D01*
X2163Y3822D01*
X2162Y3823D01*
X2160Y3828D01*
Y3831D01*
X2202Y3852D02*
X2187D01*
X2185Y3838D01*
X2187Y3840D01*
X2191Y3841D01*
X2196D01*
X2200Y3840D01*
X2203Y3837D01*
X2205Y3832D01*
Y3829D01*
X2203Y3825D01*
X2200Y3822D01*
X2196Y3820D01*
X2191D01*
X2187Y3822D01*
X2185Y3823D01*
X2183Y3826D01*
X2920Y3132D02*
Y3100D01*
X2938D01*
X2943Y3124D02*
Y3126D01*
X2945Y3129D01*
X2946Y3130D01*
X2949Y3132D01*
X2955D01*
X2959Y3130D01*
X2960Y3129D01*
X2962Y3126D01*
Y3123D01*
X2960Y3120D01*
X2957Y3115D01*
X2942Y3100D01*
X2963D01*
X524Y2867D02*
X538D01*
X542Y2869D01*
X544Y2870D01*
X545Y2873D01*
Y2878D01*
X544Y2881D01*
X542Y2882D01*
X538Y2884D01*
X524D01*
Y2852D01*
X554Y2876D02*
Y2878D01*
X556Y2881D01*
X557Y2882D01*
X560Y2884D01*
X566D01*
X569Y2882D01*
X571Y2881D01*
X572Y2878D01*
Y2875D01*
X571Y2872D01*
X568Y2867D01*
X552Y2852D01*
X574D01*
X3473Y2297D02*
X3487D01*
X3491Y2299D01*
X3493Y2300D01*
X3494Y2303D01*
Y2308D01*
X3493Y2311D01*
X3491Y2312D01*
X3487Y2314D01*
X3473D01*
Y2282D01*
X3505Y2314D02*
X3521D01*
X3512Y2302D01*
X3517D01*
X3520Y2300D01*
X3521Y2299D01*
X3523Y2294D01*
Y2291D01*
X3521Y2287D01*
X3518Y2284D01*
X3514Y2282D01*
X3509D01*
X3505Y2284D01*
X3503Y2285D01*
X3501Y2288D01*
X3474Y1707D02*
X3488D01*
X3492Y1709D01*
X3494Y1710D01*
X3495Y1713D01*
Y1718D01*
X3494Y1721D01*
X3492Y1722D01*
X3488Y1724D01*
X3474D01*
Y1692D01*
X3518Y1724D02*
X3502Y1703D01*
X3525D01*
X3518Y1724D02*
Y1692D01*
X1250Y2710D02*
X1264D01*
X1268Y2712D01*
X1270Y2713D01*
X1271Y2716D01*
Y2721D01*
X1270Y2724D01*
X1268Y2725D01*
X1264Y2727D01*
X1250D01*
Y2695D01*
X1300Y2727D02*
X1285Y2695D01*
X1278Y2727D02*
X1300D01*
X56Y1835D02*
X70D01*
X74Y1837D01*
X76Y1838D01*
X77Y1841D01*
Y1846D01*
X76Y1849D01*
X74Y1850D01*
X70Y1852D01*
X56D01*
Y1820D01*
X92Y1852D02*
X88Y1850D01*
X86Y1847D01*
Y1844D01*
X88Y1841D01*
X91Y1840D01*
X97Y1838D01*
X101Y1837D01*
X104Y1834D01*
X106Y1831D01*
Y1826D01*
X104Y1823D01*
X103Y1822D01*
X98Y1820D01*
X92D01*
X88Y1822D01*
X86Y1823D01*
X84Y1826D01*
Y1831D01*
X86Y1834D01*
X89Y1837D01*
X94Y1838D01*
X100Y1840D01*
X103Y1841D01*
X104Y1844D01*
Y1847D01*
X103Y1850D01*
X98Y1852D01*
X92D01*
X56Y2845D02*
X70D01*
X74Y2847D01*
X76Y2848D01*
X77Y2851D01*
Y2856D01*
X76Y2859D01*
X74Y2860D01*
X70Y2862D01*
X56D01*
Y2830D01*
X84Y2856D02*
X88Y2857D01*
X92Y2862D01*
Y2830D01*
X108Y2856D02*
X111Y2857D01*
X116Y2862D01*
Y2830D01*
X2120Y432D02*
Y400D01*
Y432D02*
X2134D01*
X2138Y430D01*
X2140Y429D01*
X2141Y426D01*
Y423D01*
X2140Y420D01*
X2138Y418D01*
X2134Y417D01*
X2120D01*
X2131D02*
X2141Y400D01*
X2156Y432D02*
X2152Y430D01*
X2150Y427D01*
Y424D01*
X2152Y421D01*
X2155Y420D01*
X2161Y418D01*
X2165Y417D01*
X2168Y414D01*
X2170Y411D01*
Y406D01*
X2168Y403D01*
X2167Y402D01*
X2162Y400D01*
X2156D01*
X2152Y402D01*
X2150Y403D01*
X2148Y406D01*
Y411D01*
X2150Y414D01*
X2153Y417D01*
X2158Y418D01*
X2164Y420D01*
X2167Y421D01*
X2168Y424D01*
Y427D01*
X2167Y430D01*
X2162Y432D01*
X2156D01*
X2640D02*
Y400D01*
Y432D02*
X2654D01*
X2658Y430D01*
X2660Y429D01*
X2661Y426D01*
Y423D01*
X2660Y420D01*
X2658Y418D01*
X2654Y417D01*
X2640D01*
X2651D02*
X2661Y400D01*
X2688Y421D02*
X2687Y417D01*
X2684Y414D01*
X2679Y412D01*
X2678D01*
X2673Y414D01*
X2670Y417D01*
X2668Y421D01*
Y423D01*
X2670Y427D01*
X2673Y430D01*
X2678Y432D01*
X2679D01*
X2684Y430D01*
X2687Y427D01*
X2688Y421D01*
Y414D01*
X2687Y406D01*
X2684Y402D01*
X2679Y400D01*
X2676D01*
X2672Y402D01*
X2670Y405D01*
X3670Y432D02*
Y400D01*
Y432D02*
X3684D01*
X3688Y430D01*
X3690Y429D01*
X3691Y426D01*
Y423D01*
X3690Y420D01*
X3688Y418D01*
X3684Y417D01*
X3670D01*
X3681D02*
X3691Y400D01*
X3698Y426D02*
X3702Y427D01*
X3706Y432D01*
Y400D01*
X3722Y426D02*
X3725Y427D01*
X3730Y432D01*
Y400D01*
X2490Y798D02*
Y766D01*
Y798D02*
X2504D01*
X2508Y796D01*
X2510Y795D01*
X2511Y792D01*
Y789D01*
X2510Y786D01*
X2508Y784D01*
X2504Y783D01*
X2490D01*
X2501D02*
X2511Y766D01*
X2537Y793D02*
X2535Y796D01*
X2531Y798D01*
X2528D01*
X2523Y796D01*
X2520Y792D01*
X2518Y784D01*
Y777D01*
X2520Y771D01*
X2523Y768D01*
X2528Y766D01*
X2529D01*
X2534Y768D01*
X2537Y771D01*
X2538Y775D01*
Y777D01*
X2537Y781D01*
X2534Y784D01*
X2529Y786D01*
X2528D01*
X2523Y784D01*
X2520Y781D01*
X2518Y777D01*
X2720Y798D02*
Y766D01*
Y798D02*
X2734D01*
X2738Y796D01*
X2740Y795D01*
X2741Y792D01*
Y789D01*
X2740Y786D01*
X2738Y784D01*
X2734Y783D01*
X2720D01*
X2731D02*
X2741Y766D01*
X2770Y798D02*
X2755Y766D01*
X2748Y798D02*
X2770D01*
X1720Y2572D02*
Y2540D01*
Y2572D02*
X1734D01*
X1738Y2570D01*
X1740Y2569D01*
X1741Y2566D01*
Y2563D01*
X1740Y2560D01*
X1738Y2558D01*
X1734Y2557D01*
X1720D01*
X1731D02*
X1741Y2540D01*
X1748Y2566D02*
X1752Y2567D01*
X1756Y2572D01*
Y2540D01*
X1773Y2564D02*
Y2566D01*
X1775Y2569D01*
X1777Y2570D01*
X1780Y2572D01*
X1786D01*
X1789Y2570D01*
X1790Y2569D01*
X1792Y2566D01*
Y2563D01*
X1790Y2560D01*
X1787Y2555D01*
X1772Y2540D01*
X1793D01*
X1980Y2572D02*
Y2540D01*
Y2572D02*
X1994D01*
X1998Y2570D01*
X2000Y2569D01*
X2001Y2566D01*
Y2563D01*
X2000Y2560D01*
X1998Y2558D01*
X1994Y2557D01*
X1980D01*
X1991D02*
X2001Y2540D01*
X2008Y2566D02*
X2012Y2567D01*
X2016Y2572D01*
Y2540D01*
X2035Y2572D02*
X2052D01*
X2043Y2560D01*
X2047D01*
X2050Y2558D01*
X2052Y2557D01*
X2053Y2552D01*
Y2549D01*
X2052Y2545D01*
X2049Y2542D01*
X2044Y2540D01*
X2040D01*
X2035Y2542D01*
X2033Y2543D01*
X2032Y2546D01*
X2526Y2258D02*
Y2226D01*
Y2258D02*
X2540D01*
X2544Y2256D01*
X2546Y2255D01*
X2547Y2252D01*
Y2249D01*
X2546Y2246D01*
X2544Y2244D01*
X2540Y2243D01*
X2526D01*
X2537D02*
X2547Y2226D01*
X2554Y2252D02*
X2558Y2253D01*
X2562Y2258D01*
Y2226D01*
X2593Y2258D02*
X2578Y2237D01*
X2601D01*
X2593Y2258D02*
Y2226D01*
X2526Y2188D02*
Y2156D01*
Y2188D02*
X2540D01*
X2544Y2186D01*
X2546Y2185D01*
X2547Y2182D01*
Y2179D01*
X2546Y2176D01*
X2544Y2174D01*
X2540Y2173D01*
X2526D01*
X2537D02*
X2547Y2156D01*
X2554Y2182D02*
X2558Y2183D01*
X2562Y2188D01*
Y2156D01*
X2596Y2188D02*
X2581D01*
X2579Y2174D01*
X2581Y2176D01*
X2586Y2177D01*
X2590D01*
X2595Y2176D01*
X2598Y2173D01*
X2599Y2168D01*
Y2165D01*
X2598Y2161D01*
X2595Y2158D01*
X2590Y2156D01*
X2586D01*
X2581Y2158D01*
X2579Y2159D01*
X2578Y2162D01*
X2526Y2118D02*
Y2086D01*
Y2118D02*
X2540D01*
X2544Y2116D01*
X2546Y2115D01*
X2547Y2112D01*
Y2109D01*
X2546Y2106D01*
X2544Y2104D01*
X2540Y2103D01*
X2526D01*
X2537D02*
X2547Y2086D01*
X2554Y2112D02*
X2558Y2113D01*
X2562Y2118D01*
Y2086D01*
X2596Y2113D02*
X2595Y2116D01*
X2590Y2118D01*
X2587D01*
X2583Y2116D01*
X2579Y2112D01*
X2578Y2104D01*
Y2097D01*
X2579Y2091D01*
X2583Y2088D01*
X2587Y2086D01*
X2589D01*
X2593Y2088D01*
X2596Y2091D01*
X2598Y2095D01*
Y2097D01*
X2596Y2101D01*
X2593Y2104D01*
X2589Y2106D01*
X2587D01*
X2583Y2104D01*
X2579Y2101D01*
X2578Y2097D01*
X2526Y2048D02*
Y2016D01*
Y2048D02*
X2540D01*
X2544Y2046D01*
X2546Y2045D01*
X2547Y2042D01*
Y2039D01*
X2546Y2036D01*
X2544Y2034D01*
X2540Y2033D01*
X2526D01*
X2537D02*
X2547Y2016D01*
X2554Y2042D02*
X2558Y2043D01*
X2562Y2048D01*
Y2016D01*
X2599Y2048D02*
X2584Y2016D01*
X2578Y2048D02*
X2599D01*
X2526Y1978D02*
Y1946D01*
Y1978D02*
X2540D01*
X2544Y1976D01*
X2546Y1975D01*
X2547Y1972D01*
Y1969D01*
X2546Y1966D01*
X2544Y1964D01*
X2540Y1963D01*
X2526D01*
X2537D02*
X2547Y1946D01*
X2554Y1972D02*
X2558Y1973D01*
X2562Y1978D01*
Y1946D01*
X2586Y1978D02*
X2581Y1976D01*
X2579Y1973D01*
Y1970D01*
X2581Y1967D01*
X2584Y1966D01*
X2590Y1964D01*
X2595Y1963D01*
X2598Y1960D01*
X2599Y1957D01*
Y1952D01*
X2598Y1949D01*
X2596Y1948D01*
X2592Y1946D01*
X2586D01*
X2581Y1948D01*
X2579Y1949D01*
X2578Y1952D01*
Y1957D01*
X2579Y1960D01*
X2583Y1963D01*
X2587Y1964D01*
X2593Y1966D01*
X2596Y1967D01*
X2598Y1970D01*
Y1973D01*
X2596Y1976D01*
X2592Y1978D01*
X2586D01*
X2526Y1908D02*
Y1876D01*
Y1908D02*
X2540D01*
X2544Y1906D01*
X2546Y1905D01*
X2547Y1902D01*
Y1899D01*
X2546Y1896D01*
X2544Y1894D01*
X2540Y1893D01*
X2526D01*
X2537D02*
X2547Y1876D01*
X2554Y1902D02*
X2558Y1903D01*
X2562Y1908D01*
Y1876D01*
X2598Y1897D02*
X2596Y1893D01*
X2593Y1890D01*
X2589Y1888D01*
X2587D01*
X2583Y1890D01*
X2579Y1893D01*
X2578Y1897D01*
Y1899D01*
X2579Y1903D01*
X2583Y1906D01*
X2587Y1908D01*
X2589D01*
X2593Y1906D01*
X2596Y1903D01*
X2598Y1897D01*
Y1890D01*
X2596Y1882D01*
X2593Y1878D01*
X2589Y1876D01*
X2586D01*
X2581Y1878D01*
X2579Y1881D01*
X2526Y1838D02*
Y1806D01*
Y1838D02*
X2540D01*
X2544Y1836D01*
X2546Y1835D01*
X2547Y1832D01*
Y1829D01*
X2546Y1826D01*
X2544Y1824D01*
X2540Y1823D01*
X2526D01*
X2537D02*
X2547Y1806D01*
X2556Y1830D02*
Y1832D01*
X2558Y1835D01*
X2559Y1836D01*
X2562Y1838D01*
X2568D01*
X2571Y1836D01*
X2573Y1835D01*
X2574Y1832D01*
Y1829D01*
X2573Y1826D01*
X2570Y1821D01*
X2554Y1806D01*
X2576D01*
X2592Y1838D02*
X2588Y1836D01*
X2585Y1832D01*
X2583Y1824D01*
Y1820D01*
X2585Y1812D01*
X2588Y1808D01*
X2592Y1806D01*
X2595D01*
X2600Y1808D01*
X2603Y1812D01*
X2604Y1820D01*
Y1824D01*
X2603Y1832D01*
X2600Y1836D01*
X2595Y1838D01*
X2592D01*
X2526Y1768D02*
Y1736D01*
Y1768D02*
X2540D01*
X2544Y1766D01*
X2546Y1765D01*
X2547Y1762D01*
Y1759D01*
X2546Y1756D01*
X2544Y1754D01*
X2540Y1753D01*
X2526D01*
X2537D02*
X2547Y1736D01*
X2556Y1760D02*
Y1762D01*
X2558Y1765D01*
X2559Y1766D01*
X2562Y1768D01*
X2568D01*
X2571Y1766D01*
X2573Y1765D01*
X2574Y1762D01*
Y1759D01*
X2573Y1756D01*
X2570Y1751D01*
X2554Y1736D01*
X2576D01*
X2583Y1762D02*
X2586Y1763D01*
X2591Y1768D01*
Y1736D01*
X2526Y1698D02*
Y1666D01*
Y1698D02*
X2540D01*
X2544Y1696D01*
X2546Y1695D01*
X2547Y1692D01*
Y1689D01*
X2546Y1686D01*
X2544Y1684D01*
X2540Y1683D01*
X2526D01*
X2537D02*
X2547Y1666D01*
X2556Y1690D02*
Y1692D01*
X2558Y1695D01*
X2559Y1696D01*
X2562Y1698D01*
X2568D01*
X2571Y1696D01*
X2573Y1695D01*
X2574Y1692D01*
Y1689D01*
X2573Y1686D01*
X2570Y1681D01*
X2554Y1666D01*
X2576D01*
X2585Y1690D02*
Y1692D01*
X2586Y1695D01*
X2588Y1696D01*
X2591Y1698D01*
X2597D01*
X2600Y1696D01*
X2601Y1695D01*
X2603Y1692D01*
Y1689D01*
X2601Y1686D01*
X2598Y1681D01*
X2583Y1666D01*
X2604D01*
X2526Y1628D02*
Y1596D01*
Y1628D02*
X2540D01*
X2544Y1626D01*
X2546Y1625D01*
X2547Y1622D01*
Y1619D01*
X2546Y1616D01*
X2544Y1614D01*
X2540Y1613D01*
X2526D01*
X2537D02*
X2547Y1596D01*
X2556Y1620D02*
Y1622D01*
X2558Y1625D01*
X2559Y1626D01*
X2562Y1628D01*
X2568D01*
X2571Y1626D01*
X2573Y1625D01*
X2574Y1622D01*
Y1619D01*
X2573Y1616D01*
X2570Y1611D01*
X2554Y1596D01*
X2576D01*
X2586Y1628D02*
X2603D01*
X2594Y1616D01*
X2598D01*
X2601Y1614D01*
X2603Y1613D01*
X2604Y1608D01*
Y1605D01*
X2603Y1601D01*
X2600Y1598D01*
X2595Y1596D01*
X2591D01*
X2586Y1598D01*
X2585Y1599D01*
X2583Y1602D01*
X2526Y1558D02*
Y1526D01*
Y1558D02*
X2540D01*
X2544Y1556D01*
X2546Y1555D01*
X2547Y1552D01*
Y1549D01*
X2546Y1546D01*
X2544Y1544D01*
X2540Y1543D01*
X2526D01*
X2537D02*
X2547Y1526D01*
X2556Y1550D02*
Y1552D01*
X2558Y1555D01*
X2559Y1556D01*
X2562Y1558D01*
X2568D01*
X2571Y1556D01*
X2573Y1555D01*
X2574Y1552D01*
Y1549D01*
X2573Y1546D01*
X2570Y1541D01*
X2554Y1526D01*
X2576D01*
X2598Y1558D02*
X2583Y1537D01*
X2606D01*
X2598Y1558D02*
Y1526D01*
X2526Y1488D02*
Y1456D01*
Y1488D02*
X2540D01*
X2544Y1486D01*
X2546Y1485D01*
X2547Y1482D01*
Y1479D01*
X2546Y1476D01*
X2544Y1474D01*
X2540Y1473D01*
X2526D01*
X2537D02*
X2547Y1456D01*
X2556Y1480D02*
Y1482D01*
X2558Y1485D01*
X2559Y1486D01*
X2562Y1488D01*
X2568D01*
X2571Y1486D01*
X2573Y1485D01*
X2574Y1482D01*
Y1479D01*
X2573Y1476D01*
X2570Y1471D01*
X2554Y1456D01*
X2576D01*
X2601Y1488D02*
X2586D01*
X2585Y1474D01*
X2586Y1476D01*
X2591Y1477D01*
X2595D01*
X2600Y1476D01*
X2603Y1473D01*
X2604Y1468D01*
Y1465D01*
X2603Y1461D01*
X2600Y1458D01*
X2595Y1456D01*
X2591D01*
X2586Y1458D01*
X2585Y1459D01*
X2583Y1462D01*
X2526Y1418D02*
Y1386D01*
Y1418D02*
X2540D01*
X2544Y1416D01*
X2546Y1415D01*
X2547Y1412D01*
Y1409D01*
X2546Y1406D01*
X2544Y1404D01*
X2540Y1403D01*
X2526D01*
X2537D02*
X2547Y1386D01*
X2556Y1410D02*
Y1412D01*
X2558Y1415D01*
X2559Y1416D01*
X2562Y1418D01*
X2568D01*
X2571Y1416D01*
X2573Y1415D01*
X2574Y1412D01*
Y1409D01*
X2573Y1406D01*
X2570Y1401D01*
X2554Y1386D01*
X2576D01*
X2601Y1413D02*
X2600Y1416D01*
X2595Y1418D01*
X2592D01*
X2588Y1416D01*
X2585Y1412D01*
X2583Y1404D01*
Y1397D01*
X2585Y1391D01*
X2588Y1388D01*
X2592Y1386D01*
X2594D01*
X2598Y1388D01*
X2601Y1391D01*
X2603Y1395D01*
Y1397D01*
X2601Y1401D01*
X2598Y1404D01*
X2594Y1406D01*
X2592D01*
X2588Y1404D01*
X2585Y1401D01*
X2583Y1397D01*
X2526Y1348D02*
Y1316D01*
Y1348D02*
X2540D01*
X2544Y1346D01*
X2546Y1345D01*
X2547Y1342D01*
Y1339D01*
X2546Y1336D01*
X2544Y1334D01*
X2540Y1333D01*
X2526D01*
X2537D02*
X2547Y1316D01*
X2556Y1340D02*
Y1342D01*
X2558Y1345D01*
X2559Y1346D01*
X2562Y1348D01*
X2568D01*
X2571Y1346D01*
X2573Y1345D01*
X2574Y1342D01*
Y1339D01*
X2573Y1336D01*
X2570Y1331D01*
X2554Y1316D01*
X2576D01*
X2604Y1348D02*
X2589Y1316D01*
X2583Y1348D02*
X2604D01*
X2526Y1278D02*
Y1246D01*
Y1278D02*
X2540D01*
X2544Y1276D01*
X2546Y1275D01*
X2547Y1272D01*
Y1269D01*
X2546Y1266D01*
X2544Y1264D01*
X2540Y1263D01*
X2526D01*
X2537D02*
X2547Y1246D01*
X2556Y1270D02*
Y1272D01*
X2558Y1275D01*
X2559Y1276D01*
X2562Y1278D01*
X2568D01*
X2571Y1276D01*
X2573Y1275D01*
X2574Y1272D01*
Y1269D01*
X2573Y1266D01*
X2570Y1261D01*
X2554Y1246D01*
X2576D01*
X2591Y1278D02*
X2586Y1276D01*
X2585Y1273D01*
Y1270D01*
X2586Y1267D01*
X2589Y1266D01*
X2595Y1264D01*
X2600Y1263D01*
X2603Y1260D01*
X2604Y1257D01*
Y1252D01*
X2603Y1249D01*
X2601Y1248D01*
X2597Y1246D01*
X2591D01*
X2586Y1248D01*
X2585Y1249D01*
X2583Y1252D01*
Y1257D01*
X2585Y1260D01*
X2588Y1263D01*
X2592Y1264D01*
X2598Y1266D01*
X2601Y1267D01*
X2603Y1270D01*
Y1273D01*
X2601Y1276D01*
X2597Y1278D01*
X2591D01*
X2526Y1208D02*
Y1176D01*
Y1208D02*
X2540D01*
X2544Y1206D01*
X2546Y1205D01*
X2547Y1202D01*
Y1199D01*
X2546Y1196D01*
X2544Y1194D01*
X2540Y1193D01*
X2526D01*
X2537D02*
X2547Y1176D01*
X2556Y1200D02*
Y1202D01*
X2558Y1205D01*
X2559Y1206D01*
X2562Y1208D01*
X2568D01*
X2571Y1206D01*
X2573Y1205D01*
X2574Y1202D01*
Y1199D01*
X2573Y1196D01*
X2570Y1191D01*
X2554Y1176D01*
X2576D01*
X2603Y1197D02*
X2601Y1193D01*
X2598Y1190D01*
X2594Y1188D01*
X2592D01*
X2588Y1190D01*
X2585Y1193D01*
X2583Y1197D01*
Y1199D01*
X2585Y1203D01*
X2588Y1206D01*
X2592Y1208D01*
X2594D01*
X2598Y1206D01*
X2601Y1203D01*
X2603Y1197D01*
Y1190D01*
X2601Y1182D01*
X2598Y1178D01*
X2594Y1176D01*
X2591D01*
X2586Y1178D01*
X2585Y1181D01*
X2526Y1138D02*
Y1106D01*
Y1138D02*
X2540D01*
X2544Y1136D01*
X2546Y1135D01*
X2547Y1132D01*
Y1129D01*
X2546Y1126D01*
X2544Y1124D01*
X2540Y1123D01*
X2526D01*
X2537D02*
X2547Y1106D01*
X2558Y1138D02*
X2574D01*
X2565Y1126D01*
X2570D01*
X2573Y1124D01*
X2574Y1123D01*
X2576Y1118D01*
Y1115D01*
X2574Y1111D01*
X2571Y1108D01*
X2567Y1106D01*
X2562D01*
X2558Y1108D01*
X2556Y1109D01*
X2554Y1112D01*
X2592Y1138D02*
X2588Y1136D01*
X2585Y1132D01*
X2583Y1124D01*
Y1120D01*
X2585Y1112D01*
X2588Y1108D01*
X2592Y1106D01*
X2595D01*
X2600Y1108D01*
X2603Y1112D01*
X2604Y1120D01*
Y1124D01*
X2603Y1132D01*
X2600Y1136D01*
X2595Y1138D01*
X2592D01*
X1698Y1130D02*
X1730D01*
X1698D02*
Y1144D01*
X1700Y1148D01*
X1701Y1150D01*
X1704Y1151D01*
X1707D01*
X1710Y1150D01*
X1712Y1148D01*
X1713Y1144D01*
Y1130D01*
Y1141D02*
X1730Y1151D01*
X1698Y1162D02*
Y1178D01*
X1710Y1169D01*
Y1174D01*
X1712Y1177D01*
X1713Y1178D01*
X1718Y1180D01*
X1721D01*
X1725Y1178D01*
X1728Y1175D01*
X1730Y1171D01*
Y1166D01*
X1728Y1162D01*
X1727Y1160D01*
X1724Y1158D01*
X1706Y1189D02*
X1704D01*
X1701Y1190D01*
X1700Y1192D01*
X1698Y1195D01*
Y1201D01*
X1700Y1204D01*
X1701Y1205D01*
X1704Y1207D01*
X1707D01*
X1710Y1205D01*
X1715Y1202D01*
X1730Y1187D01*
Y1208D01*
X2148Y1130D02*
X2180D01*
X2148D02*
Y1144D01*
X2150Y1148D01*
X2151Y1150D01*
X2154Y1151D01*
X2157D01*
X2160Y1150D01*
X2162Y1148D01*
X2163Y1144D01*
Y1130D01*
Y1141D02*
X2180Y1151D01*
X2148Y1162D02*
Y1178D01*
X2160Y1169D01*
Y1174D01*
X2162Y1177D01*
X2163Y1178D01*
X2168Y1180D01*
X2171D01*
X2175Y1178D01*
X2178Y1175D01*
X2180Y1171D01*
Y1166D01*
X2178Y1162D01*
X2177Y1160D01*
X2174Y1158D01*
X2148Y1190D02*
Y1207D01*
X2160Y1198D01*
Y1202D01*
X2162Y1205D01*
X2163Y1207D01*
X2168Y1208D01*
X2171D01*
X2175Y1207D01*
X2178Y1204D01*
X2180Y1199D01*
Y1195D01*
X2178Y1190D01*
X2177Y1189D01*
X2174Y1187D01*
X1848Y1130D02*
X1880D01*
X1848D02*
Y1144D01*
X1850Y1148D01*
X1851Y1150D01*
X1854Y1151D01*
X1857D01*
X1860Y1150D01*
X1862Y1148D01*
X1863Y1144D01*
Y1130D01*
Y1141D02*
X1880Y1151D01*
X1848Y1162D02*
Y1178D01*
X1860Y1169D01*
Y1174D01*
X1862Y1177D01*
X1863Y1178D01*
X1868Y1180D01*
X1871D01*
X1875Y1178D01*
X1878Y1175D01*
X1880Y1171D01*
Y1166D01*
X1878Y1162D01*
X1877Y1160D01*
X1874Y1158D01*
X1848Y1202D02*
X1869Y1187D01*
Y1210D01*
X1848Y1202D02*
X1880D01*
X980Y2542D02*
Y2510D01*
Y2542D02*
X994D01*
X998Y2540D01*
X1000Y2539D01*
X1001Y2536D01*
Y2533D01*
X1000Y2530D01*
X998Y2528D01*
X994Y2527D01*
X980D01*
X991D02*
X1001Y2510D01*
X1024Y2542D02*
X1008Y2521D01*
X1031D01*
X1024Y2542D02*
Y2510D01*
X1037Y2536D02*
X1040Y2537D01*
X1045Y2542D01*
Y2510D01*
X1070Y2712D02*
Y2680D01*
Y2712D02*
X1084D01*
X1088Y2710D01*
X1090Y2709D01*
X1091Y2706D01*
Y2703D01*
X1090Y2700D01*
X1088Y2698D01*
X1084Y2697D01*
X1070D01*
X1081D02*
X1091Y2680D01*
X1114Y2712D02*
X1098Y2691D01*
X1121D01*
X1114Y2712D02*
Y2680D01*
X1129Y2704D02*
Y2706D01*
X1130Y2709D01*
X1132Y2710D01*
X1135Y2712D01*
X1141D01*
X1144Y2710D01*
X1145Y2709D01*
X1147Y2706D01*
Y2703D01*
X1145Y2700D01*
X1142Y2695D01*
X1127Y2680D01*
X1148D01*
X1269Y3456D02*
Y3424D01*
Y3456D02*
X1283D01*
X1287Y3454D01*
X1289Y3453D01*
X1290Y3450D01*
Y3447D01*
X1289Y3444D01*
X1287Y3442D01*
X1283Y3441D01*
X1269D01*
X1280D02*
X1290Y3424D01*
X1316Y3456D02*
X1301D01*
X1299Y3442D01*
X1301Y3444D01*
X1305Y3445D01*
X1310D01*
X1314Y3444D01*
X1317Y3441D01*
X1319Y3436D01*
Y3433D01*
X1317Y3429D01*
X1314Y3426D01*
X1310Y3424D01*
X1305D01*
X1301Y3426D01*
X1299Y3427D01*
X1297Y3430D01*
X1335Y3456D02*
X1331Y3454D01*
X1328Y3450D01*
X1326Y3442D01*
Y3438D01*
X1328Y3430D01*
X1331Y3426D01*
X1335Y3424D01*
X1338D01*
X1343Y3426D01*
X1346Y3430D01*
X1347Y3438D01*
Y3442D01*
X1346Y3450D01*
X1343Y3454D01*
X1338Y3456D01*
X1335D01*
X3150Y432D02*
Y400D01*
Y432D02*
X3164D01*
X3168Y430D01*
X3170Y429D01*
X3171Y426D01*
Y423D01*
X3170Y420D01*
X3168Y418D01*
X3164Y417D01*
X3150D01*
X3161D02*
X3171Y400D01*
X3178Y426D02*
X3182Y427D01*
X3186Y432D01*
Y400D01*
X3211Y432D02*
X3207Y430D01*
X3203Y426D01*
X3202Y418D01*
Y414D01*
X3203Y406D01*
X3207Y402D01*
X3211Y400D01*
X3214D01*
X3219Y402D01*
X3222Y406D01*
X3223Y414D01*
Y418D01*
X3222Y426D01*
X3219Y430D01*
X3214Y432D01*
X3211D01*
X2010Y798D02*
Y766D01*
Y798D02*
X2024D01*
X2028Y796D01*
X2030Y795D01*
X2031Y792D01*
Y789D01*
X2030Y786D01*
X2028Y784D01*
X2024Y783D01*
X2010D01*
X2021D02*
X2031Y766D01*
X2042Y798D02*
X2058D01*
X2049Y786D01*
X2054D01*
X2057Y784D01*
X2058Y783D01*
X2060Y778D01*
Y775D01*
X2058Y771D01*
X2055Y768D01*
X2051Y766D01*
X2046D01*
X2042Y768D01*
X2040Y769D01*
X2038Y772D01*
X886Y1138D02*
Y1106D01*
Y1138D02*
X900D01*
X904Y1136D01*
X906Y1135D01*
X907Y1132D01*
Y1129D01*
X906Y1126D01*
X904Y1124D01*
X900Y1123D01*
X886D01*
X897D02*
X907Y1106D01*
X933Y1133D02*
X931Y1136D01*
X927Y1138D01*
X924D01*
X919Y1136D01*
X916Y1132D01*
X914Y1124D01*
Y1117D01*
X916Y1111D01*
X919Y1108D01*
X924Y1106D01*
X925D01*
X930Y1108D01*
X933Y1111D01*
X934Y1115D01*
Y1117D01*
X933Y1121D01*
X930Y1124D01*
X925Y1126D01*
X924D01*
X919Y1124D01*
X916Y1121D01*
X914Y1117D01*
X943Y1130D02*
Y1132D01*
X944Y1135D01*
X946Y1136D01*
X949Y1138D01*
X955D01*
X958Y1136D01*
X960Y1135D01*
X961Y1132D01*
Y1129D01*
X960Y1126D01*
X957Y1121D01*
X941Y1106D01*
X963D01*
X1726Y497D02*
X1723Y500D01*
X1719Y502D01*
X1713D01*
X1708Y500D01*
X1705Y497D01*
Y494D01*
X1707Y491D01*
X1708Y490D01*
X1711Y488D01*
X1720Y485D01*
X1723Y484D01*
X1725Y482D01*
X1726Y479D01*
Y475D01*
X1723Y472D01*
X1719Y470D01*
X1713D01*
X1708Y472D01*
X1705Y475D01*
X1743Y502D02*
X1738Y500D01*
X1735Y496D01*
X1733Y488D01*
Y484D01*
X1735Y476D01*
X1738Y472D01*
X1743Y470D01*
X1746D01*
X1750Y472D01*
X1753Y476D01*
X1755Y484D01*
Y488D01*
X1753Y496D01*
X1750Y500D01*
X1746Y502D01*
X1743D01*
X2256Y497D02*
X2253Y500D01*
X2249Y502D01*
X2243D01*
X2238Y500D01*
X2235Y497D01*
Y494D01*
X2237Y491D01*
X2238Y490D01*
X2241Y488D01*
X2250Y485D01*
X2253Y484D01*
X2255Y482D01*
X2256Y479D01*
Y475D01*
X2253Y472D01*
X2249Y470D01*
X2243D01*
X2238Y472D01*
X2235Y475D01*
X2263Y496D02*
X2267Y497D01*
X2271Y502D01*
Y470D01*
X2776Y497D02*
X2773Y500D01*
X2769Y502D01*
X2763D01*
X2758Y500D01*
X2755Y497D01*
Y494D01*
X2757Y491D01*
X2758Y490D01*
X2761Y488D01*
X2770Y485D01*
X2773Y484D01*
X2775Y482D01*
X2776Y479D01*
Y475D01*
X2773Y472D01*
X2769Y470D01*
X2763D01*
X2758Y472D01*
X2755Y475D01*
X2785Y494D02*
Y496D01*
X2787Y499D01*
X2788Y500D01*
X2791Y502D01*
X2797D01*
X2800Y500D01*
X2802Y499D01*
X2803Y496D01*
Y493D01*
X2802Y490D01*
X2799Y485D01*
X2783Y470D01*
X2805D01*
X3276Y497D02*
X3273Y500D01*
X3269Y502D01*
X3263D01*
X3258Y500D01*
X3255Y497D01*
Y494D01*
X3257Y491D01*
X3258Y490D01*
X3261Y488D01*
X3270Y485D01*
X3273Y484D01*
X3275Y482D01*
X3276Y479D01*
Y475D01*
X3273Y472D01*
X3269Y470D01*
X3263D01*
X3258Y472D01*
X3255Y475D01*
X3287Y502D02*
X3303D01*
X3294Y490D01*
X3299D01*
X3302Y488D01*
X3303Y487D01*
X3305Y482D01*
Y479D01*
X3303Y475D01*
X3300Y472D01*
X3296Y470D01*
X3291D01*
X3287Y472D01*
X3285Y473D01*
X3283Y476D01*
X2970Y2124D02*
Y2101D01*
X2972Y2097D01*
X2975Y2094D01*
X2979Y2092D01*
X2982D01*
X2987Y2094D01*
X2990Y2097D01*
X2991Y2101D01*
Y2124D01*
X3000Y2118D02*
X3003Y2119D01*
X3008Y2124D01*
Y2092D01*
X770Y1964D02*
Y1941D01*
X772Y1937D01*
X775Y1934D01*
X779Y1932D01*
X782D01*
X787Y1934D01*
X790Y1937D01*
X791Y1941D01*
Y1964D01*
X802Y1956D02*
Y1958D01*
X803Y1961D01*
X805Y1962D01*
X808Y1964D01*
X814D01*
X817Y1962D01*
X818Y1961D01*
X820Y1958D01*
Y1955D01*
X818Y1952D01*
X815Y1947D01*
X800Y1932D01*
X821D01*
X1450Y2102D02*
Y2079D01*
X1452Y2075D01*
X1455Y2072D01*
X1459Y2070D01*
X1462D01*
X1467Y2072D01*
X1470Y2075D01*
X1471Y2079D01*
Y2102D01*
X1483D02*
X1500D01*
X1491Y2090D01*
X1495D01*
X1498Y2088D01*
X1500Y2087D01*
X1501Y2082D01*
Y2079D01*
X1500Y2075D01*
X1497Y2072D01*
X1492Y2070D01*
X1488D01*
X1483Y2072D01*
X1482Y2073D01*
X1480Y2076D01*
X760Y1006D02*
Y983D01*
X762Y979D01*
X765Y976D01*
X769Y974D01*
X772D01*
X777Y976D01*
X780Y979D01*
X781Y983D01*
Y1006D01*
X805D02*
X790Y985D01*
X813D01*
X805Y1006D02*
Y974D01*
X2895Y3612D02*
Y3589D01*
X2897Y3585D01*
X2900Y3582D01*
X2904Y3580D01*
X2907D01*
X2912Y3582D01*
X2915Y3585D01*
X2916Y3589D01*
Y3612D01*
X2943D02*
X2928D01*
X2927Y3598D01*
X2928Y3600D01*
X2933Y3601D01*
X2937D01*
X2942Y3600D01*
X2945Y3597D01*
X2946Y3592D01*
Y3589D01*
X2945Y3585D01*
X2942Y3582D01*
X2937Y3580D01*
X2933D01*
X2928Y3582D01*
X2927Y3583D01*
X2925Y3586D01*
X2995Y937D02*
Y914D01*
X2997Y910D01*
X3000Y907D01*
X3004Y905D01*
X3007D01*
X3012Y907D01*
X3015Y910D01*
X3016Y914D01*
Y937D01*
X3046D02*
X3031Y905D01*
X3025Y937D02*
X3046D01*
X400Y3782D02*
Y3759D01*
X402Y3755D01*
X405Y3752D01*
X409Y3750D01*
X412D01*
X417Y3752D01*
X420Y3755D01*
X421Y3759D01*
Y3782D01*
X450Y3771D02*
X448Y3767D01*
X445Y3764D01*
X441Y3762D01*
X439D01*
X435Y3764D01*
X432Y3767D01*
X430Y3771D01*
Y3773D01*
X432Y3777D01*
X435Y3780D01*
X439Y3782D01*
X441D01*
X445Y3780D01*
X448Y3777D01*
X450Y3771D01*
Y3764D01*
X448Y3756D01*
X445Y3752D01*
X441Y3750D01*
X438D01*
X433Y3752D01*
X432Y3755D01*
X2245Y1190D02*
X2266Y1158D01*
Y1190D02*
X2245Y1158D01*
X2273Y1184D02*
X2277Y1185D01*
X2281Y1190D01*
Y1158D01*
X1428Y3092D02*
X1449Y3060D01*
Y3092D02*
X1428Y3060D01*
X1458Y3084D02*
Y3086D01*
X1460Y3089D01*
X1461Y3090D01*
X1464Y3092D01*
X1470D01*
X1473Y3090D01*
X1475Y3089D01*
X1476Y3086D01*
Y3083D01*
X1475Y3080D01*
X1472Y3075D01*
X1456Y3060D01*
X1478D01*
X1750Y3865D02*
X1764D01*
X1768Y3867D01*
X1770Y3868D01*
X1771Y3871D01*
Y3876D01*
X1770Y3879D01*
X1768Y3880D01*
X1764Y3882D01*
X1750D01*
Y3850D01*
X1797Y3877D02*
X1795Y3880D01*
X1791Y3882D01*
X1788D01*
X1783Y3880D01*
X1780Y3876D01*
X1778Y3868D01*
Y3861D01*
X1780Y3855D01*
X1783Y3852D01*
X1788Y3850D01*
X1789D01*
X1794Y3852D01*
X1797Y3855D01*
X1798Y3859D01*
Y3861D01*
X1797Y3865D01*
X1794Y3868D01*
X1789Y3870D01*
X1788D01*
X1783Y3868D01*
X1780Y3865D01*
X1778Y3861D01*
X1166Y3889D02*
Y3865D01*
X1165Y3860D01*
X1163Y3859D01*
X1160Y3857D01*
X1157D01*
X1154Y3859D01*
X1153Y3860D01*
X1151Y3865D01*
Y3868D01*
X1193Y3884D02*
X1191Y3887D01*
X1187Y3889D01*
X1184D01*
X1179Y3887D01*
X1176Y3883D01*
X1174Y3875D01*
Y3868D01*
X1176Y3862D01*
X1179Y3859D01*
X1184Y3857D01*
X1185D01*
X1190Y3859D01*
X1193Y3862D01*
X1194Y3866D01*
Y3868D01*
X1193Y3872D01*
X1190Y3875D01*
X1185Y3877D01*
X1184D01*
X1179Y3875D01*
X1176Y3872D01*
X1174Y3868D01*
X71Y3877D02*
X68Y3880D01*
X64Y3882D01*
X58D01*
X53Y3880D01*
X50Y3877D01*
Y3874D01*
X52Y3871D01*
X53Y3870D01*
X56Y3868D01*
X65Y3865D01*
X68Y3864D01*
X70Y3862D01*
X71Y3859D01*
Y3855D01*
X68Y3852D01*
X64Y3850D01*
X58D01*
X53Y3852D01*
X50Y3855D01*
X94Y3882D02*
X78Y3861D01*
X101D01*
X94Y3882D02*
Y3850D01*
X70Y3355D02*
X84D01*
X88Y3357D01*
X90Y3358D01*
X91Y3361D01*
Y3366D01*
X90Y3369D01*
X88Y3370D01*
X84Y3372D01*
X70D01*
Y3340D01*
X98Y3366D02*
X102Y3367D01*
X106Y3372D01*
Y3340D01*
X123Y3364D02*
Y3366D01*
X125Y3369D01*
X127Y3370D01*
X130Y3372D01*
X136D01*
X139Y3370D01*
X140Y3369D01*
X142Y3366D01*
Y3363D01*
X140Y3360D01*
X137Y3355D01*
X122Y3340D01*
X143D01*
X60Y3230D02*
X77D01*
X68D01*
Y3280D01*
X60Y3272D01*
X73Y3070D02*
X40D01*
Y3045D01*
X57Y3053D01*
X65D01*
X73Y3045D01*
Y3028D01*
X65Y3020D01*
X48D01*
X40Y3028D01*
X363Y3080D02*
X347Y3072D01*
X330Y3055D01*
Y3038D01*
X338Y3030D01*
X355D01*
X363Y3038D01*
Y3047D01*
X355Y3055D01*
X330D01*
X1392Y3457D02*
Y3425D01*
Y3457D02*
X1406D01*
X1410Y3455D01*
X1412Y3454D01*
X1413Y3451D01*
Y3448D01*
X1412Y3445D01*
X1410Y3443D01*
X1406Y3442D01*
X1392D01*
X1403D02*
X1413Y3425D01*
X1436Y3457D02*
X1420Y3436D01*
X1443D01*
X1436Y3457D02*
Y3425D01*
X1469Y3446D02*
X1467Y3442D01*
X1464Y3439D01*
X1460Y3437D01*
X1458D01*
X1454Y3439D01*
X1451Y3442D01*
X1449Y3446D01*
Y3448D01*
X1451Y3452D01*
X1454Y3455D01*
X1458Y3457D01*
X1460D01*
X1464Y3455D01*
X1467Y3452D01*
X1469Y3446D01*
Y3439D01*
X1467Y3431D01*
X1464Y3427D01*
X1460Y3425D01*
X1457D01*
X1452Y3427D01*
X1451Y3430D01*
X1630Y3242D02*
Y3210D01*
Y3242D02*
X1641D01*
X1645Y3240D01*
X1648Y3237D01*
X1650Y3234D01*
X1651Y3230D01*
Y3222D01*
X1650Y3218D01*
X1648Y3215D01*
X1645Y3212D01*
X1641Y3210D01*
X1630D01*
X1658Y3236D02*
X1662Y3237D01*
X1666Y3242D01*
Y3210D01*
X2403Y3234D02*
X2401Y3237D01*
X2398Y3240D01*
X2395Y3242D01*
X2389D01*
X2386Y3240D01*
X2383Y3237D01*
X2382Y3234D01*
X2380Y3230D01*
Y3222D01*
X2382Y3218D01*
X2383Y3215D01*
X2386Y3212D01*
X2389Y3210D01*
X2395D01*
X2398Y3212D01*
X2401Y3215D01*
X2403Y3218D01*
X2430Y3237D02*
X2429Y3240D01*
X2424Y3242D01*
X2421D01*
X2416Y3240D01*
X2413Y3236D01*
X2412Y3228D01*
Y3221D01*
X2413Y3215D01*
X2416Y3212D01*
X2421Y3210D01*
X2423D01*
X2427Y3212D01*
X2430Y3215D01*
X2432Y3219D01*
Y3221D01*
X2430Y3225D01*
X2427Y3228D01*
X2423Y3230D01*
X2421D01*
X2416Y3228D01*
X2413Y3225D01*
X2412Y3221D01*
X2448Y3242D02*
X2443Y3240D01*
X2440Y3236D01*
X2439Y3228D01*
Y3224D01*
X2440Y3216D01*
X2443Y3212D01*
X2448Y3210D01*
X2451D01*
X2455Y3212D01*
X2458Y3216D01*
X2460Y3224D01*
Y3228D01*
X2458Y3236D01*
X2455Y3240D01*
X2451Y3242D01*
X2448D01*
X2707Y3239D02*
Y3207D01*
Y3239D02*
X2721D01*
X2725Y3237D01*
X2727Y3236D01*
X2728Y3233D01*
Y3230D01*
X2727Y3227D01*
X2725Y3225D01*
X2721Y3224D01*
X2707D01*
X2718D02*
X2728Y3207D01*
X2754Y3239D02*
X2739D01*
X2737Y3225D01*
X2739Y3227D01*
X2743Y3228D01*
X2748D01*
X2752Y3227D01*
X2755Y3224D01*
X2757Y3219D01*
Y3216D01*
X2755Y3212D01*
X2752Y3209D01*
X2748Y3207D01*
X2743D01*
X2739Y3209D01*
X2737Y3210D01*
X2735Y3213D01*
X2782Y3234D02*
X2781Y3237D01*
X2776Y3239D01*
X2773D01*
X2769Y3237D01*
X2766Y3233D01*
X2764Y3225D01*
Y3218D01*
X2766Y3212D01*
X2769Y3209D01*
X2773Y3207D01*
X2775D01*
X2779Y3209D01*
X2782Y3212D01*
X2784Y3216D01*
Y3218D01*
X2782Y3222D01*
X2779Y3225D01*
X2775Y3227D01*
X2773D01*
X2769Y3225D01*
X2766Y3222D01*
X2764Y3218D01*
X2785Y3453D02*
Y3421D01*
Y3453D02*
X2796D01*
X2800Y3451D01*
X2803Y3448D01*
X2805Y3445D01*
X2806Y3441D01*
Y3433D01*
X2805Y3429D01*
X2803Y3426D01*
X2800Y3423D01*
X2796Y3421D01*
X2785D01*
X2813Y3447D02*
X2817Y3448D01*
X2821Y3453D01*
Y3421D01*
X2855Y3453D02*
X2840D01*
X2838Y3439D01*
X2840Y3441D01*
X2845Y3442D01*
X2849D01*
X2854Y3441D01*
X2857Y3438D01*
X2858Y3433D01*
Y3430D01*
X2857Y3426D01*
X2854Y3423D01*
X2849Y3421D01*
X2845D01*
X2840Y3423D01*
X2838Y3424D01*
X2837Y3427D01*
X2490Y3452D02*
Y3429D01*
X2492Y3425D01*
X2495Y3422D01*
X2499Y3420D01*
X2502D01*
X2507Y3422D01*
X2510Y3425D01*
X2511Y3429D01*
Y3452D01*
X2538Y3447D02*
X2537Y3450D01*
X2532Y3452D01*
X2529D01*
X2525Y3450D01*
X2522Y3446D01*
X2520Y3438D01*
Y3431D01*
X2522Y3425D01*
X2525Y3422D01*
X2529Y3420D01*
X2531D01*
X2535Y3422D01*
X2538Y3425D01*
X2540Y3429D01*
Y3431D01*
X2538Y3435D01*
X2535Y3438D01*
X2531Y3440D01*
X2529D01*
X2525Y3438D01*
X2522Y3435D01*
X2520Y3431D01*
X3399Y3886D02*
Y3863D01*
X3401Y3859D01*
X3404Y3856D01*
X3408Y3854D01*
X3411D01*
X3416Y3856D01*
X3419Y3859D01*
X3420Y3863D01*
Y3886D01*
X3429Y3880D02*
X3432Y3881D01*
X3437Y3886D01*
Y3854D01*
X3462Y3886D02*
X3457Y3884D01*
X3454Y3880D01*
X3453Y3872D01*
Y3868D01*
X3454Y3860D01*
X3457Y3856D01*
X3462Y3854D01*
X3465D01*
X3469Y3856D01*
X3472Y3860D01*
X3474Y3868D01*
Y3872D01*
X3472Y3880D01*
X3469Y3884D01*
X3465Y3886D01*
X3462D01*
X3589Y2896D02*
X3603D01*
X3607Y2898D01*
X3609Y2899D01*
X3610Y2902D01*
Y2907D01*
X3609Y2910D01*
X3607Y2911D01*
X3603Y2913D01*
X3589D01*
Y2881D01*
X3636Y2913D02*
X3621D01*
X3619Y2899D01*
X3621Y2901D01*
X3625Y2902D01*
X3630D01*
X3634Y2901D01*
X3637Y2898D01*
X3639Y2893D01*
Y2890D01*
X3637Y2886D01*
X3634Y2883D01*
X3630Y2881D01*
X3625D01*
X3621Y2883D01*
X3619Y2884D01*
X3617Y2887D01*
X3600Y2788D02*
X3617D01*
X3608D01*
Y2838D01*
X3600Y2830D01*
X3892Y2793D02*
X3859D01*
X3892Y2826D01*
Y2835D01*
X3884Y2843D01*
X3867D01*
X3859Y2835D01*
X3860Y915D02*
X3910D01*
X3885Y940D01*
Y907D01*
X3902Y890D02*
X3910Y882D01*
Y865D01*
X3902Y857D01*
X3868D01*
X3860Y865D01*
Y882D01*
X3868Y890D01*
X3902D01*
X3437Y2894D02*
X3451D01*
X3455Y2896D01*
X3457Y2897D01*
X3458Y2900D01*
Y2905D01*
X3457Y2908D01*
X3455Y2909D01*
X3451Y2911D01*
X3437D01*
Y2879D01*
X3465Y2905D02*
X3469Y2906D01*
X3473Y2911D01*
Y2879D01*
X3229Y2144D02*
Y2112D01*
Y2144D02*
X3243D01*
X3247Y2142D01*
X3249Y2141D01*
X3250Y2138D01*
Y2135D01*
X3249Y2132D01*
X3247Y2130D01*
X3243Y2129D01*
X3229D01*
X3240D02*
X3250Y2112D01*
X3257Y2138D02*
X3261Y2139D01*
X3265Y2144D01*
Y2112D01*
X3251Y2214D02*
X3249Y2217D01*
X3246Y2220D01*
X3243Y2222D01*
X3237D01*
X3234Y2220D01*
X3231Y2217D01*
X3230Y2214D01*
X3228Y2210D01*
Y2202D01*
X3230Y2198D01*
X3231Y2195D01*
X3234Y2192D01*
X3237Y2190D01*
X3243D01*
X3246Y2192D01*
X3249Y2195D01*
X3251Y2198D01*
X3260Y2216D02*
X3263Y2217D01*
X3267Y2222D01*
Y2190D01*
X2433Y1204D02*
X2431Y1207D01*
X2428Y1210D01*
X2425Y1212D01*
X2419D01*
X2416Y1210D01*
X2413Y1207D01*
X2412Y1204D01*
X2410Y1200D01*
Y1192D01*
X2412Y1188D01*
X2413Y1185D01*
X2416Y1182D01*
X2419Y1180D01*
X2425D01*
X2428Y1182D01*
X2431Y1185D01*
X2433Y1188D01*
X2442Y1206D02*
X2445Y1207D01*
X2449Y1212D01*
Y1180D01*
X2487Y1212D02*
X2471Y1180D01*
X2465Y1212D02*
X2487D01*
X2423Y1424D02*
X2421Y1427D01*
X2418Y1430D01*
X2415Y1432D01*
X2409D01*
X2406Y1430D01*
X2403Y1427D01*
X2402Y1424D01*
X2400Y1420D01*
Y1412D01*
X2402Y1408D01*
X2403Y1405D01*
X2406Y1402D01*
X2409Y1400D01*
X2415D01*
X2418Y1402D01*
X2421Y1405D01*
X2423Y1408D01*
X2433Y1424D02*
Y1426D01*
X2435Y1429D01*
X2436Y1430D01*
X2439Y1432D01*
X2446D01*
X2449Y1430D01*
X2450Y1429D01*
X2452Y1426D01*
Y1423D01*
X2450Y1420D01*
X2447Y1415D01*
X2432Y1400D01*
X2453D01*
X2482Y1432D02*
X2466Y1400D01*
X2460Y1432D02*
X2482D01*
X830Y1268D02*
X828Y1271D01*
X825Y1274D01*
X822Y1276D01*
X816D01*
X813Y1274D01*
X810Y1271D01*
X809Y1268D01*
X807Y1264D01*
Y1256D01*
X809Y1252D01*
X810Y1249D01*
X813Y1246D01*
X816Y1244D01*
X822D01*
X825Y1246D01*
X828Y1249D01*
X830Y1252D01*
X840Y1268D02*
Y1270D01*
X842Y1273D01*
X843Y1274D01*
X846Y1276D01*
X853D01*
X856Y1274D01*
X857Y1273D01*
X859Y1270D01*
Y1267D01*
X857Y1264D01*
X854Y1259D01*
X839Y1244D01*
X860D01*
X795Y1355D02*
Y1323D01*
Y1355D02*
X809D01*
X813Y1353D01*
X815Y1352D01*
X816Y1349D01*
Y1346D01*
X815Y1343D01*
X813Y1341D01*
X809Y1340D01*
X795D01*
X806D02*
X816Y1323D01*
X827Y1355D02*
X843D01*
X834Y1343D01*
X839D01*
X842Y1341D01*
X843Y1340D01*
X845Y1335D01*
Y1332D01*
X843Y1328D01*
X840Y1325D01*
X836Y1323D01*
X831D01*
X827Y1325D01*
X825Y1326D01*
X823Y1329D01*
X852Y1349D02*
X855Y1350D01*
X860Y1355D01*
Y1323D01*
X2698Y3100D02*
X2730D01*
Y3118D01*
X2704Y3122D02*
X2703Y3125D01*
X2698Y3129D01*
X2730D01*
X2636Y3123D02*
X2633Y3121D01*
X2630Y3118D01*
X2628Y3115D01*
Y3109D01*
X2630Y3106D01*
X2633Y3103D01*
X2636Y3102D01*
X2640Y3100D01*
X2648D01*
X2652Y3102D01*
X2655Y3103D01*
X2658Y3106D01*
X2660Y3109D01*
Y3115D01*
X2658Y3118D01*
X2655Y3121D01*
X2652Y3123D01*
X2633Y3150D02*
X2630Y3149D01*
X2628Y3144D01*
Y3141D01*
X2630Y3136D01*
X2634Y3133D01*
X2642Y3132D01*
X2649D01*
X2655Y3133D01*
X2658Y3136D01*
X2660Y3141D01*
Y3143D01*
X2658Y3147D01*
X2655Y3150D01*
X2651Y3152D01*
X2649D01*
X2645Y3150D01*
X2642Y3147D01*
X2640Y3143D01*
Y3141D01*
X2642Y3136D01*
X2645Y3133D01*
X2649Y3132D01*
X2634Y3159D02*
X2633Y3162D01*
X2628Y3166D01*
X2660D01*
X1013Y2444D02*
X1011Y2447D01*
X1008Y2450D01*
X1005Y2452D01*
X999D01*
X996Y2450D01*
X993Y2447D01*
X992Y2444D01*
X990Y2440D01*
Y2432D01*
X992Y2428D01*
X993Y2425D01*
X996Y2422D01*
X999Y2420D01*
X1005D01*
X1008Y2422D01*
X1011Y2425D01*
X1013Y2428D01*
X1040Y2452D02*
X1025D01*
X1023Y2438D01*
X1025Y2440D01*
X1029Y2441D01*
X1034D01*
X1039Y2440D01*
X1042Y2437D01*
X1043Y2432D01*
Y2429D01*
X1042Y2425D01*
X1039Y2422D01*
X1034Y2420D01*
X1029D01*
X1025Y2422D01*
X1023Y2423D01*
X1022Y2426D01*
X2530Y2602D02*
Y2570D01*
Y2602D02*
X2544D01*
X2548Y2600D01*
X2550Y2599D01*
X2551Y2596D01*
Y2593D01*
X2550Y2590D01*
X2548Y2588D01*
X2544Y2587D01*
X2530D01*
X2541D02*
X2551Y2570D01*
X2560Y2594D02*
Y2596D01*
X2562Y2599D01*
X2563Y2600D01*
X2566Y2602D01*
X2572D01*
X2575Y2600D01*
X2577Y2599D01*
X2578Y2596D01*
Y2593D01*
X2577Y2590D01*
X2574Y2585D01*
X2558Y2570D01*
X2580D01*
X2530Y2532D02*
Y2500D01*
Y2532D02*
X2544D01*
X2548Y2530D01*
X2550Y2529D01*
X2551Y2526D01*
Y2523D01*
X2550Y2520D01*
X2548Y2518D01*
X2544Y2517D01*
X2530D01*
X2541D02*
X2551Y2500D01*
X2577Y2532D02*
X2562D01*
X2560Y2518D01*
X2562Y2520D01*
X2566Y2521D01*
X2571D01*
X2575Y2520D01*
X2578Y2517D01*
X2580Y2512D01*
Y2509D01*
X2578Y2505D01*
X2575Y2502D01*
X2571Y2500D01*
X2566D01*
X2562Y2502D01*
X2560Y2503D01*
X2558Y2506D01*
X2530Y2472D02*
Y2440D01*
Y2472D02*
X2544D01*
X2548Y2470D01*
X2550Y2469D01*
X2551Y2466D01*
Y2463D01*
X2550Y2460D01*
X2548Y2458D01*
X2544Y2457D01*
X2530D01*
X2541D02*
X2551Y2440D01*
X2562Y2472D02*
X2578D01*
X2569Y2460D01*
X2574D01*
X2577Y2458D01*
X2578Y2457D01*
X2580Y2452D01*
Y2449D01*
X2578Y2445D01*
X2575Y2442D01*
X2571Y2440D01*
X2566D01*
X2562Y2442D01*
X2560Y2443D01*
X2558Y2446D01*
X2608Y2472D02*
X2593Y2440D01*
X2587Y2472D02*
X2608D01*
X2530Y2402D02*
Y2370D01*
Y2402D02*
X2544D01*
X2548Y2400D01*
X2550Y2399D01*
X2551Y2396D01*
Y2393D01*
X2550Y2390D01*
X2548Y2388D01*
X2544Y2387D01*
X2530D01*
X2541D02*
X2551Y2370D01*
X2562Y2402D02*
X2578D01*
X2569Y2390D01*
X2574D01*
X2577Y2388D01*
X2578Y2387D01*
X2580Y2382D01*
Y2379D01*
X2578Y2375D01*
X2575Y2372D01*
X2571Y2370D01*
X2566D01*
X2562Y2372D01*
X2560Y2373D01*
X2558Y2376D01*
X2595Y2402D02*
X2590Y2400D01*
X2589Y2397D01*
Y2394D01*
X2590Y2391D01*
X2593Y2390D01*
X2599Y2388D01*
X2604Y2387D01*
X2607Y2384D01*
X2608Y2381D01*
Y2376D01*
X2607Y2373D01*
X2605Y2372D01*
X2601Y2370D01*
X2595D01*
X2590Y2372D01*
X2589Y2373D01*
X2587Y2376D01*
Y2381D01*
X2589Y2384D01*
X2592Y2387D01*
X2596Y2388D01*
X2602Y2390D01*
X2605Y2391D01*
X2607Y2394D01*
Y2397D01*
X2605Y2400D01*
X2601Y2402D01*
X2595D01*
X2530Y2332D02*
Y2300D01*
Y2332D02*
X2544D01*
X2548Y2330D01*
X2550Y2329D01*
X2551Y2326D01*
Y2323D01*
X2550Y2320D01*
X2548Y2318D01*
X2544Y2317D01*
X2530D01*
X2541D02*
X2551Y2300D01*
X2562Y2332D02*
X2578D01*
X2569Y2320D01*
X2574D01*
X2577Y2318D01*
X2578Y2317D01*
X2580Y2312D01*
Y2309D01*
X2578Y2305D01*
X2575Y2302D01*
X2571Y2300D01*
X2566D01*
X2562Y2302D01*
X2560Y2303D01*
X2558Y2306D01*
X2607Y2321D02*
X2605Y2317D01*
X2602Y2314D01*
X2598Y2312D01*
X2596D01*
X2592Y2314D01*
X2589Y2317D01*
X2587Y2321D01*
Y2323D01*
X2589Y2327D01*
X2592Y2330D01*
X2596Y2332D01*
X2598D01*
X2602Y2330D01*
X2605Y2327D01*
X2607Y2321D01*
Y2314D01*
X2605Y2306D01*
X2602Y2302D01*
X2598Y2300D01*
X2595D01*
X2590Y2302D01*
X2589Y2305D01*
X2932Y710D02*
X2900D01*
Y692D01*
X2932Y668D02*
Y688D01*
X2900D01*
Y668D01*
X2917Y688D02*
Y676D01*
X2932Y663D02*
X2900D01*
X2932D02*
Y652D01*
X2930Y648D01*
X2927Y645D01*
X2924Y643D01*
X2920Y642D01*
X2912D01*
X2908Y643D01*
X2905Y645D01*
X2902Y648D01*
X2900Y652D01*
Y663D01*
X2932Y632D02*
Y615D01*
X2920Y624D01*
Y619D01*
X2918Y616D01*
X2917Y615D01*
X2912Y613D01*
X2909D01*
X2905Y615D01*
X2902Y618D01*
X2900Y622D01*
Y627D01*
X2902Y632D01*
X2903Y633D01*
X2906Y635D01*
X1363Y2611D02*
X1360Y2608D01*
X1358Y2604D01*
Y2598D01*
X1360Y2593D01*
X1363Y2590D01*
X1366D01*
X1369Y2592D01*
X1370Y2593D01*
X1372Y2596D01*
X1375Y2605D01*
X1376Y2608D01*
X1378Y2610D01*
X1381Y2611D01*
X1385D01*
X1388Y2608D01*
X1390Y2604D01*
Y2598D01*
X1388Y2593D01*
X1385Y2590D01*
X1366Y2641D02*
X1363Y2640D01*
X1360Y2637D01*
X1358Y2634D01*
Y2628D01*
X1360Y2625D01*
X1363Y2622D01*
X1366Y2620D01*
X1370Y2618D01*
X1378D01*
X1382Y2620D01*
X1385Y2622D01*
X1388Y2625D01*
X1390Y2628D01*
Y2634D01*
X1388Y2637D01*
X1385Y2640D01*
X1382Y2641D01*
X1358Y2650D02*
X1390D01*
Y2669D01*
D64*
X2480Y3490D02*
G03*
X2480Y3490I-40J0D01*
G01*
X2600Y890D02*
G03*
X2600Y890I-40J0D01*
G01*
X2170Y3490D02*
G03*
X2170Y3490I-40J0D01*
G01*
X1830D02*
G03*
X1830Y3490I-40J0D01*
G01*
X2010D02*
G03*
X2010Y3490I-40J0D01*
G01*
X3080Y2770D02*
G03*
X3080Y2770I-40J0D01*
G01*
X2960D02*
G03*
X2960Y2770I-40J0D01*
G01*
X3200D02*
G03*
X3200Y2770I-40J0D01*
G01*
X2338Y3440D02*
X2370Y3452D01*
X2338Y3464D02*
X2370Y3452D01*
X2381Y3468D02*
Y3493D01*
X2338Y3517D02*
Y3497D01*
X2370D01*
Y3517D01*
X2353Y3497D02*
Y3509D01*
X2349Y3522D02*
X2370Y3539D01*
X2349D02*
X2370Y3522D01*
X2338Y3550D02*
X2364D01*
X2368Y3552D01*
X2370Y3555D01*
Y3558D01*
X2349Y3546D02*
Y3556D01*
X661Y487D02*
X656Y492D01*
X645D01*
X640Y487D01*
Y465D01*
X645Y460D01*
X656D01*
X661Y465D01*
Y476D01*
X651D01*
X672Y460D02*
Y492D01*
X693Y460D01*
Y492D01*
X704D02*
Y460D01*
X720D01*
X725Y465D01*
Y487D01*
X720Y492D01*
X704D01*
X640Y592D02*
Y560D01*
X656D01*
X661Y565D01*
Y571D01*
X656Y576D01*
X640D01*
X656D01*
X661Y581D01*
Y587D01*
X656Y592D01*
X640D01*
X693Y560D02*
X672D01*
X693Y581D01*
Y587D01*
X688Y592D01*
X677D01*
X672Y587D01*
X704Y560D02*
X715D01*
X709D01*
Y592D01*
X704Y587D01*
X640Y692D02*
Y660D01*
X656D01*
X661Y665D01*
Y671D01*
X656Y676D01*
X640D01*
X656D01*
X661Y681D01*
Y687D01*
X656Y692D01*
X640D01*
X693Y660D02*
X672D01*
X693Y681D01*
Y687D01*
X688Y692D01*
X677D01*
X672Y687D01*
X704D02*
X709Y692D01*
X720D01*
X725Y687D01*
Y665D01*
X720Y660D01*
X709D01*
X704Y665D01*
Y687D01*
X640Y792D02*
Y760D01*
X656D01*
X661Y765D01*
Y771D01*
X656Y776D01*
X640D01*
X656D01*
X661Y781D01*
Y787D01*
X656Y792D01*
X640D01*
X672Y760D02*
X683D01*
X677D01*
Y792D01*
X672Y787D01*
X699Y765D02*
X704Y760D01*
X715D01*
X720Y765D01*
Y787D01*
X715Y792D01*
X704D01*
X699Y787D01*
Y781D01*
X704Y776D01*
X720D01*
X640Y892D02*
Y860D01*
X656D01*
X661Y865D01*
Y871D01*
X656Y876D01*
X640D01*
X656D01*
X661Y881D01*
Y887D01*
X656Y892D01*
X640D01*
X672Y860D02*
X683D01*
X677D01*
Y892D01*
X672Y887D01*
X699D02*
X704Y892D01*
X715D01*
X720Y887D01*
Y881D01*
X715Y876D01*
X720Y871D01*
Y865D01*
X715Y860D01*
X704D01*
X699Y865D01*
Y871D01*
X704Y876D01*
X699Y881D01*
Y887D01*
X704Y876D02*
X715D01*
X640Y992D02*
Y960D01*
X656D01*
X661Y965D01*
Y971D01*
X656Y976D01*
X640D01*
X656D01*
X661Y981D01*
Y987D01*
X656Y992D01*
X640D01*
X672Y960D02*
X683D01*
X677D01*
Y992D01*
X672Y987D01*
X699Y992D02*
X720D01*
Y987D01*
X699Y965D01*
Y960D01*
X640Y1092D02*
Y1060D01*
X656D01*
X661Y1065D01*
Y1071D01*
X656Y1076D01*
X640D01*
X656D01*
X661Y1081D01*
Y1087D01*
X656Y1092D01*
X640D01*
X672Y1060D02*
X683D01*
X677D01*
Y1092D01*
X672Y1087D01*
X720Y1092D02*
X709Y1087D01*
X699Y1076D01*
Y1065D01*
X704Y1060D01*
X715D01*
X720Y1065D01*
Y1071D01*
X715Y1076D01*
X699D01*
X640Y1192D02*
Y1160D01*
X656D01*
X661Y1165D01*
Y1171D01*
X656Y1176D01*
X640D01*
X656D01*
X661Y1181D01*
Y1187D01*
X656Y1192D01*
X640D01*
X672Y1160D02*
X683D01*
X677D01*
Y1192D01*
X672Y1187D01*
X720Y1192D02*
X699D01*
Y1176D01*
X709Y1181D01*
X715D01*
X720Y1176D01*
Y1165D01*
X715Y1160D01*
X704D01*
X699Y1165D01*
X640Y1292D02*
Y1260D01*
X656D01*
X661Y1265D01*
Y1271D01*
X656Y1276D01*
X640D01*
X656D01*
X661Y1281D01*
Y1287D01*
X656Y1292D01*
X640D01*
X672Y1260D02*
X683D01*
X677D01*
Y1292D01*
X672Y1287D01*
X715Y1260D02*
Y1292D01*
X699Y1276D01*
X720D01*
X640Y1392D02*
Y1360D01*
X656D01*
X661Y1365D01*
Y1371D01*
X656Y1376D01*
X640D01*
X656D01*
X661Y1381D01*
Y1387D01*
X656Y1392D01*
X640D01*
X672Y1360D02*
X683D01*
X677D01*
Y1392D01*
X672Y1387D01*
X699D02*
X704Y1392D01*
X715D01*
X720Y1387D01*
Y1381D01*
X715Y1376D01*
X709D01*
X715D01*
X720Y1371D01*
Y1365D01*
X715Y1360D01*
X704D01*
X699Y1365D01*
X640Y1482D02*
Y1450D01*
X656D01*
X661Y1455D01*
Y1461D01*
X656Y1466D01*
X640D01*
X656D01*
X661Y1471D01*
Y1477D01*
X656Y1482D01*
X640D01*
X672Y1450D02*
X683D01*
X677D01*
Y1482D01*
X672Y1477D01*
X720Y1450D02*
X699D01*
X720Y1471D01*
Y1477D01*
X715Y1482D01*
X704D01*
X699Y1477D01*
X640Y1592D02*
Y1560D01*
X656D01*
X661Y1565D01*
Y1571D01*
X656Y1576D01*
X640D01*
X656D01*
X661Y1581D01*
Y1587D01*
X656Y1592D01*
X640D01*
X672Y1560D02*
X683D01*
X677D01*
Y1592D01*
X672Y1587D01*
X699Y1560D02*
X709D01*
X704D01*
Y1592D01*
X699Y1587D01*
X640Y1682D02*
Y1650D01*
X656D01*
X661Y1655D01*
Y1661D01*
X656Y1666D01*
X640D01*
X656D01*
X661Y1671D01*
Y1677D01*
X656Y1682D01*
X640D01*
X672Y1650D02*
X683D01*
X677D01*
Y1682D01*
X672Y1677D01*
X699D02*
X704Y1682D01*
X715D01*
X720Y1677D01*
Y1655D01*
X715Y1650D01*
X704D01*
X699Y1655D01*
Y1677D01*
X640Y1782D02*
Y1750D01*
X656D01*
X661Y1755D01*
Y1761D01*
X656Y1766D01*
X640D01*
X656D01*
X661Y1771D01*
Y1777D01*
X656Y1782D01*
X640D01*
X672Y1755D02*
X677Y1750D01*
X688D01*
X693Y1755D01*
Y1777D01*
X688Y1782D01*
X677D01*
X672Y1777D01*
Y1771D01*
X677Y1766D01*
X693D01*
X640Y1882D02*
Y1850D01*
X656D01*
X661Y1855D01*
Y1861D01*
X656Y1866D01*
X640D01*
X656D01*
X661Y1871D01*
Y1877D01*
X656Y1882D01*
X640D01*
X672Y1877D02*
X677Y1882D01*
X688D01*
X693Y1877D01*
Y1871D01*
X688Y1866D01*
X693Y1861D01*
Y1855D01*
X688Y1850D01*
X677D01*
X672Y1855D01*
Y1861D01*
X677Y1866D01*
X672Y1871D01*
Y1877D01*
X677Y1866D02*
X688D01*
X640Y1982D02*
Y1950D01*
X656D01*
X661Y1955D01*
Y1961D01*
X656Y1966D01*
X640D01*
X656D01*
X661Y1971D01*
Y1977D01*
X656Y1982D01*
X640D01*
X672D02*
X693D01*
Y1977D01*
X672Y1955D01*
Y1950D01*
X640Y2082D02*
Y2050D01*
X656D01*
X661Y2055D01*
Y2061D01*
X656Y2066D01*
X640D01*
X656D01*
X661Y2071D01*
Y2077D01*
X656Y2082D01*
X640D01*
X693D02*
X672D01*
Y2066D01*
X683Y2071D01*
X688D01*
X693Y2066D01*
Y2055D01*
X688Y2050D01*
X677D01*
X672Y2055D01*
X640Y2182D02*
Y2150D01*
X656D01*
X661Y2155D01*
Y2161D01*
X656Y2166D01*
X640D01*
X656D01*
X661Y2171D01*
Y2177D01*
X656Y2182D01*
X640D01*
X693D02*
X672D01*
Y2166D01*
X683Y2171D01*
X688D01*
X693Y2166D01*
Y2155D01*
X688Y2150D01*
X677D01*
X672Y2155D01*
X640Y2282D02*
Y2250D01*
X656D01*
X661Y2255D01*
Y2261D01*
X656Y2266D01*
X640D01*
X656D01*
X661Y2271D01*
Y2277D01*
X656Y2282D01*
X640D01*
X688Y2250D02*
Y2282D01*
X672Y2266D01*
X693D01*
X640Y2382D02*
Y2350D01*
X656D01*
X661Y2355D01*
Y2361D01*
X656Y2366D01*
X640D01*
X656D01*
X661Y2371D01*
Y2377D01*
X656Y2382D01*
X640D01*
X672Y2377D02*
X677Y2382D01*
X688D01*
X693Y2377D01*
Y2371D01*
X688Y2366D01*
X683D01*
X688D01*
X693Y2361D01*
Y2355D01*
X688Y2350D01*
X677D01*
X672Y2355D01*
X640Y2482D02*
Y2450D01*
X656D01*
X661Y2455D01*
Y2461D01*
X656Y2466D01*
X640D01*
X656D01*
X661Y2471D01*
Y2477D01*
X656Y2482D01*
X640D01*
X693Y2450D02*
X672D01*
X693Y2471D01*
Y2477D01*
X688Y2482D01*
X677D01*
X672Y2477D01*
X640Y2582D02*
Y2550D01*
X656D01*
X661Y2555D01*
Y2561D01*
X656Y2566D01*
X640D01*
X656D01*
X661Y2571D01*
Y2577D01*
X656Y2582D01*
X640D01*
X672Y2550D02*
X683D01*
X677D01*
Y2582D01*
X672Y2577D01*
X640Y2682D02*
Y2650D01*
X656D01*
X661Y2655D01*
Y2661D01*
X656Y2666D01*
X640D01*
X656D01*
X661Y2671D01*
Y2677D01*
X656Y2682D01*
X640D01*
X672Y2677D02*
X677Y2682D01*
X688D01*
X693Y2677D01*
Y2655D01*
X688Y2650D01*
X677D01*
X672Y2655D01*
Y2677D01*
X640Y2777D02*
X645Y2782D01*
X656D01*
X661Y2777D01*
Y2771D01*
X656Y2766D01*
X651D01*
X656D01*
X661Y2761D01*
Y2755D01*
X656Y2750D01*
X645D01*
X640Y2755D01*
X672Y2782D02*
Y2761D01*
X683Y2750D01*
X693Y2761D01*
Y2782D01*
X704Y2777D02*
X709Y2782D01*
X720D01*
X725Y2777D01*
Y2771D01*
X720Y2766D01*
X715D01*
X720D01*
X725Y2761D01*
Y2755D01*
X720Y2750D01*
X709D01*
X704Y2755D01*
X3360Y932D02*
Y900D01*
Y932D02*
X3374D01*
X3378Y930D01*
X3380Y929D01*
X3381Y926D01*
Y923D01*
X3380Y920D01*
X3378Y918D01*
X3374Y917D01*
X3360D01*
X3371D02*
X3381Y900D01*
X3388Y895D02*
X3410Y932D01*
X3413D02*
Y911D01*
Y903D02*
X3412Y902D01*
X3413Y900D01*
X3415Y902D01*
X3413Y903D01*
X3422Y932D02*
X3430Y900D01*
X3437Y932D02*
X3430Y900D01*
X3437Y932D02*
X3445Y900D01*
X3452Y932D02*
X3445Y900D01*
X3390Y1032D02*
Y1000D01*
Y1032D02*
X3401D01*
X3405Y1030D01*
X3408Y1027D01*
X3410Y1024D01*
X3411Y1020D01*
Y1012D01*
X3410Y1008D01*
X3408Y1005D01*
X3405Y1002D01*
X3401Y1000D01*
X3390D01*
X3437Y1027D02*
X3435Y1030D01*
X3431Y1032D01*
X3428D01*
X3423Y1030D01*
X3420Y1026D01*
X3418Y1018D01*
Y1011D01*
X3420Y1005D01*
X3423Y1002D01*
X3428Y1000D01*
X3429D01*
X3434Y1002D01*
X3437Y1005D01*
X3438Y1009D01*
Y1011D01*
X3437Y1015D01*
X3434Y1018D01*
X3429Y1020D01*
X3428D01*
X3423Y1018D01*
X3420Y1015D01*
X3418Y1011D01*
X3390Y1132D02*
Y1100D01*
Y1132D02*
X3401D01*
X3405Y1130D01*
X3408Y1127D01*
X3410Y1124D01*
X3411Y1120D01*
Y1112D01*
X3410Y1108D01*
X3408Y1105D01*
X3405Y1102D01*
X3401Y1100D01*
X3390D01*
X3437Y1132D02*
X3422D01*
X3420Y1118D01*
X3422Y1120D01*
X3426Y1121D01*
X3431D01*
X3435Y1120D01*
X3438Y1117D01*
X3440Y1112D01*
Y1109D01*
X3438Y1105D01*
X3435Y1102D01*
X3431Y1100D01*
X3426D01*
X3422Y1102D01*
X3420Y1103D01*
X3418Y1106D01*
X3390Y1222D02*
Y1190D01*
Y1222D02*
X3401D01*
X3405Y1220D01*
X3408Y1217D01*
X3410Y1214D01*
X3411Y1210D01*
Y1202D01*
X3410Y1198D01*
X3408Y1195D01*
X3405Y1192D01*
X3401Y1190D01*
X3390D01*
X3434Y1222D02*
X3418Y1201D01*
X3441D01*
X3434Y1222D02*
Y1190D01*
X3390Y1322D02*
Y1290D01*
Y1322D02*
X3401D01*
X3405Y1320D01*
X3408Y1317D01*
X3410Y1314D01*
X3411Y1310D01*
Y1302D01*
X3410Y1298D01*
X3408Y1295D01*
X3405Y1292D01*
X3401Y1290D01*
X3390D01*
X3422Y1322D02*
X3438D01*
X3429Y1310D01*
X3434D01*
X3437Y1308D01*
X3438Y1307D01*
X3440Y1302D01*
Y1299D01*
X3438Y1295D01*
X3435Y1292D01*
X3431Y1290D01*
X3426D01*
X3422Y1292D01*
X3420Y1293D01*
X3418Y1296D01*
X3390Y1422D02*
Y1390D01*
Y1422D02*
X3401D01*
X3405Y1420D01*
X3408Y1417D01*
X3410Y1414D01*
X3411Y1410D01*
Y1402D01*
X3410Y1398D01*
X3408Y1395D01*
X3405Y1392D01*
X3401Y1390D01*
X3390D01*
X3420Y1414D02*
Y1416D01*
X3422Y1419D01*
X3423Y1420D01*
X3426Y1422D01*
X3432D01*
X3435Y1420D01*
X3437Y1419D01*
X3438Y1416D01*
Y1413D01*
X3437Y1410D01*
X3434Y1405D01*
X3418Y1390D01*
X3440D01*
X3390Y1522D02*
Y1490D01*
Y1522D02*
X3401D01*
X3405Y1520D01*
X3408Y1517D01*
X3410Y1514D01*
X3411Y1510D01*
Y1502D01*
X3410Y1498D01*
X3408Y1495D01*
X3405Y1492D01*
X3401Y1490D01*
X3390D01*
X3418Y1516D02*
X3422Y1517D01*
X3426Y1522D01*
Y1490D01*
X3390Y1632D02*
Y1600D01*
Y1632D02*
X3401D01*
X3405Y1630D01*
X3408Y1627D01*
X3410Y1624D01*
X3411Y1620D01*
Y1612D01*
X3410Y1608D01*
X3408Y1605D01*
X3405Y1602D01*
X3401Y1600D01*
X3390D01*
X3428Y1632D02*
X3423Y1630D01*
X3420Y1626D01*
X3418Y1618D01*
Y1614D01*
X3420Y1606D01*
X3423Y1602D01*
X3428Y1600D01*
X3431D01*
X3435Y1602D01*
X3438Y1606D01*
X3440Y1614D01*
Y1618D01*
X3438Y1626D01*
X3435Y1630D01*
X3431Y1632D01*
X3428D01*
X3354Y1880D02*
X3342Y1912D01*
X3330Y1880D01*
X3335Y1891D02*
X3350D01*
X3385Y1904D02*
X3383Y1907D01*
X3380Y1910D01*
X3377Y1912D01*
X3371D01*
X3368Y1910D01*
X3365Y1907D01*
X3363Y1904D01*
X3362Y1900D01*
Y1892D01*
X3363Y1888D01*
X3365Y1885D01*
X3368Y1882D01*
X3371Y1880D01*
X3377D01*
X3380Y1882D01*
X3383Y1885D01*
X3385Y1888D01*
X3394Y1912D02*
Y1880D01*
X3415Y1912D02*
X3394Y1891D01*
X3401Y1898D02*
X3415Y1880D01*
X3422Y1912D02*
Y1880D01*
Y1912D02*
X3433D01*
X3437Y1910D01*
X3440Y1907D01*
X3442Y1904D01*
X3443Y1900D01*
Y1892D01*
X3442Y1888D01*
X3440Y1885D01*
X3437Y1882D01*
X3433Y1880D01*
X3422D01*
X3354Y1980D02*
X3342Y2012D01*
X3330Y1980D01*
X3335Y1991D02*
X3350D01*
X3385Y2004D02*
X3383Y2007D01*
X3380Y2010D01*
X3377Y2012D01*
X3371D01*
X3368Y2010D01*
X3365Y2007D01*
X3363Y2004D01*
X3362Y2000D01*
Y1992D01*
X3363Y1988D01*
X3365Y1985D01*
X3368Y1982D01*
X3371Y1980D01*
X3377D01*
X3380Y1982D01*
X3383Y1985D01*
X3385Y1988D01*
X3394Y2012D02*
Y1980D01*
X3415Y2012D02*
X3394Y1991D01*
X3401Y1998D02*
X3415Y1980D01*
X3445Y2004D02*
X3443Y2007D01*
X3440Y2010D01*
X3437Y2012D01*
X3431D01*
X3428Y2010D01*
X3425Y2007D01*
X3424Y2004D01*
X3422Y2000D01*
Y1992D01*
X3424Y1988D01*
X3425Y1985D01*
X3428Y1982D01*
X3431Y1980D01*
X3437D01*
X3440Y1982D01*
X3443Y1985D01*
X3445Y1988D01*
X3354Y2080D02*
X3342Y2112D01*
X3330Y2080D01*
X3335Y2091D02*
X3350D01*
X3385Y2104D02*
X3383Y2107D01*
X3380Y2110D01*
X3377Y2112D01*
X3371D01*
X3368Y2110D01*
X3365Y2107D01*
X3363Y2104D01*
X3362Y2100D01*
Y2092D01*
X3363Y2088D01*
X3365Y2085D01*
X3368Y2082D01*
X3371Y2080D01*
X3377D01*
X3380Y2082D01*
X3383Y2085D01*
X3385Y2088D01*
X3394Y2112D02*
Y2080D01*
X3415Y2112D02*
X3394Y2091D01*
X3401Y2098D02*
X3415Y2080D01*
X3422Y2112D02*
Y2080D01*
Y2112D02*
X3436D01*
X3440Y2110D01*
X3442Y2109D01*
X3443Y2106D01*
Y2103D01*
X3442Y2100D01*
X3440Y2098D01*
X3436Y2097D01*
X3422D02*
X3436D01*
X3440Y2095D01*
X3442Y2094D01*
X3443Y2091D01*
Y2086D01*
X3442Y2083D01*
X3440Y2082D01*
X3436Y2080D01*
X3422D01*
X3354Y2180D02*
X3342Y2212D01*
X3330Y2180D01*
X3335Y2191D02*
X3350D01*
X3385Y2204D02*
X3383Y2207D01*
X3380Y2210D01*
X3377Y2212D01*
X3371D01*
X3368Y2210D01*
X3365Y2207D01*
X3363Y2204D01*
X3362Y2200D01*
Y2192D01*
X3363Y2188D01*
X3365Y2185D01*
X3368Y2182D01*
X3371Y2180D01*
X3377D01*
X3380Y2182D01*
X3383Y2185D01*
X3385Y2188D01*
X3394Y2212D02*
Y2180D01*
X3415Y2212D02*
X3394Y2191D01*
X3401Y2198D02*
X3415Y2180D01*
X3447D02*
X3434Y2212D01*
X3422Y2180D01*
X3427Y2191D02*
X3442D01*
X3360Y2522D02*
Y2490D01*
X3367Y2522D02*
Y2490D01*
Y2522D02*
X3388Y2490D01*
Y2522D02*
Y2490D01*
X3408Y2522D02*
Y2490D01*
X3397Y2522D02*
X3418D01*
X3422D02*
Y2490D01*
Y2522D02*
X3433D01*
X3437Y2520D01*
X3440Y2517D01*
X3442Y2514D01*
X3443Y2510D01*
Y2502D01*
X3442Y2498D01*
X3440Y2495D01*
X3437Y2492D01*
X3433Y2490D01*
X3422D01*
X3360Y2622D02*
Y2590D01*
X3367Y2622D02*
Y2590D01*
Y2622D02*
X3388Y2590D01*
Y2622D02*
Y2590D01*
X3408Y2622D02*
Y2590D01*
X3397Y2622D02*
X3418D01*
X3445Y2614D02*
X3443Y2617D01*
X3440Y2620D01*
X3437Y2622D01*
X3431D01*
X3428Y2620D01*
X3425Y2617D01*
X3424Y2614D01*
X3422Y2610D01*
Y2602D01*
X3424Y2598D01*
X3425Y2595D01*
X3428Y2592D01*
X3431Y2590D01*
X3437D01*
X3440Y2592D01*
X3443Y2595D01*
X3445Y2598D01*
X3360Y2722D02*
Y2690D01*
X3367Y2722D02*
Y2690D01*
Y2722D02*
X3388Y2690D01*
Y2722D02*
Y2690D01*
X3408Y2722D02*
Y2690D01*
X3397Y2722D02*
X3418D01*
X3422D02*
Y2690D01*
Y2722D02*
X3436D01*
X3440Y2720D01*
X3442Y2719D01*
X3443Y2716D01*
Y2713D01*
X3442Y2710D01*
X3440Y2708D01*
X3436Y2707D01*
X3422D02*
X3436D01*
X3440Y2705D01*
X3442Y2704D01*
X3443Y2701D01*
Y2696D01*
X3442Y2693D01*
X3440Y2692D01*
X3436Y2690D01*
X3422D01*
X3360Y2822D02*
Y2790D01*
X3367Y2822D02*
Y2790D01*
Y2822D02*
X3388Y2790D01*
Y2822D02*
Y2790D01*
X3408Y2822D02*
Y2790D01*
X3397Y2822D02*
X3418D01*
X3446Y2790D02*
X3434Y2822D01*
X3422Y2790D01*
X3427Y2801D02*
X3442D01*
X2225Y2780D02*
Y2766D01*
X2227Y2762D01*
X2228Y2760D01*
X2231Y2759D01*
X2236D01*
X2239Y2760D01*
X2240Y2762D01*
X2242Y2766D01*
Y2780D01*
X2210D01*
X2242Y2752D02*
X2210D01*
X2242D02*
Y2732D01*
X2227Y2752D02*
Y2739D01*
X2237Y2710D02*
X2240Y2711D01*
X2242Y2716D01*
Y2719D01*
X2240Y2723D01*
X2236Y2727D01*
X2228Y2728D01*
X2221D01*
X2215Y2727D01*
X2212Y2723D01*
X2210Y2719D01*
Y2717D01*
X2212Y2713D01*
X2215Y2710D01*
X2219Y2708D01*
X2221D01*
X2225Y2710D01*
X2228Y2713D01*
X2230Y2717D01*
Y2719D01*
X2228Y2723D01*
X2225Y2727D01*
X2221Y2728D01*
X2505Y2780D02*
Y2766D01*
X2507Y2762D01*
X2508Y2760D01*
X2511Y2759D01*
X2516D01*
X2519Y2760D01*
X2520Y2762D01*
X2522Y2766D01*
Y2780D01*
X2490D01*
X2522Y2752D02*
X2490D01*
X2522D02*
Y2732D01*
X2507Y2752D02*
Y2739D01*
X2522Y2707D02*
X2490Y2722D01*
X2522Y2728D02*
Y2707D01*
X2505Y2880D02*
Y2866D01*
X2507Y2862D01*
X2508Y2860D01*
X2511Y2859D01*
X2516D01*
X2519Y2860D01*
X2520Y2862D01*
X2522Y2866D01*
Y2880D01*
X2490D01*
X2522Y2852D02*
X2490D01*
X2522D02*
Y2832D01*
X2507Y2852D02*
Y2839D01*
X2522Y2810D02*
Y2825D01*
X2508Y2827D01*
X2510Y2825D01*
X2511Y2820D01*
Y2816D01*
X2510Y2811D01*
X2507Y2808D01*
X2502Y2807D01*
X2499D01*
X2495Y2808D01*
X2492Y2811D01*
X2490Y2816D01*
Y2820D01*
X2492Y2825D01*
X2493Y2827D01*
X2496Y2828D01*
X2225Y2880D02*
Y2866D01*
X2227Y2862D01*
X2228Y2860D01*
X2231Y2859D01*
X2236D01*
X2239Y2860D01*
X2240Y2862D01*
X2242Y2866D01*
Y2880D01*
X2210D01*
X2242Y2852D02*
X2210D01*
X2242D02*
Y2832D01*
X2227Y2852D02*
Y2839D01*
X2242Y2813D02*
X2221Y2828D01*
Y2805D01*
X2242Y2813D02*
X2210D01*
X2505Y2980D02*
Y2966D01*
X2507Y2962D01*
X2508Y2960D01*
X2511Y2959D01*
X2516D01*
X2519Y2960D01*
X2520Y2962D01*
X2522Y2966D01*
Y2980D01*
X2490D01*
X2522Y2952D02*
X2490D01*
X2522D02*
Y2932D01*
X2507Y2952D02*
Y2939D01*
X2516Y2928D02*
X2517Y2925D01*
X2522Y2920D01*
X2490D01*
X2225Y2980D02*
Y2966D01*
X2227Y2962D01*
X2228Y2960D01*
X2231Y2959D01*
X2236D01*
X2239Y2960D01*
X2240Y2962D01*
X2242Y2966D01*
Y2980D01*
X2210D01*
X2242Y2952D02*
X2210D01*
X2242D02*
Y2932D01*
X2227Y2952D02*
Y2939D01*
X2242Y2919D02*
X2240Y2923D01*
X2236Y2927D01*
X2228Y2928D01*
X2224D01*
X2216Y2927D01*
X2212Y2923D01*
X2210Y2919D01*
Y2916D01*
X2212Y2911D01*
X2216Y2908D01*
X2224Y2907D01*
X2228D01*
X2236Y2908D01*
X2240Y2911D01*
X2242Y2916D01*
Y2919D01*
X2360Y3062D02*
Y3030D01*
Y3062D02*
X2372Y3030D01*
X2384Y3062D02*
X2372Y3030D01*
X2384Y3062D02*
Y3030D01*
X2416Y3054D02*
X2415Y3057D01*
X2412Y3060D01*
X2409Y3062D01*
X2403D01*
X2400Y3060D01*
X2397Y3057D01*
X2395Y3054D01*
X2394Y3050D01*
Y3042D01*
X2395Y3038D01*
X2397Y3035D01*
X2400Y3032D01*
X2403Y3030D01*
X2409D01*
X2412Y3032D01*
X2415Y3035D01*
X2416Y3038D01*
X2425Y3062D02*
Y3039D01*
X2427Y3035D01*
X2430Y3032D01*
X2434Y3030D01*
X2438D01*
X2442Y3032D01*
X2445Y3035D01*
X2447Y3039D01*
Y3062D01*
X2456Y3019D02*
X2480D01*
X2484Y3062D02*
Y3030D01*
X2500Y3062D02*
X2497Y3060D01*
X2494Y3057D01*
X2492Y3054D01*
X2491Y3050D01*
Y3042D01*
X2492Y3038D01*
X2494Y3035D01*
X2497Y3032D01*
X2500Y3030D01*
X2506D01*
X2509Y3032D01*
X2512Y3035D01*
X2514Y3038D01*
X2515Y3042D01*
Y3050D01*
X2514Y3054D01*
X2512Y3057D01*
X2509Y3060D01*
X2506Y3062D01*
X2500D01*
X2630Y902D02*
Y870D01*
Y902D02*
X2650D01*
X2630Y887D02*
X2642D01*
X2653Y885D02*
X2667D01*
X2672Y887D01*
X2673Y888D01*
X2675Y891D01*
Y896D01*
X2673Y899D01*
X2672Y900D01*
X2667Y902D01*
X2653D01*
Y870D01*
X2705Y894D02*
X2703Y897D01*
X2700Y900D01*
X2697Y902D01*
X2691D01*
X2688Y900D01*
X2685Y897D01*
X2683Y894D01*
X2682Y890D01*
Y882D01*
X2683Y878D01*
X2685Y875D01*
X2688Y872D01*
X2691Y870D01*
X2697D01*
X2700Y872D01*
X2703Y875D01*
X2705Y878D01*
Y882D01*
X2697D02*
X2705D01*
X2736Y870D02*
X2724Y902D01*
X2712Y870D01*
X2717Y881D02*
X2732D01*
X2744Y859D02*
X2768D01*
X2795Y894D02*
X2794Y897D01*
X2791Y900D01*
X2788Y902D01*
X2782D01*
X2779Y900D01*
X2775Y897D01*
X2774Y894D01*
X2772Y890D01*
Y882D01*
X2774Y878D01*
X2775Y875D01*
X2779Y872D01*
X2782Y870D01*
X2788D01*
X2791Y872D01*
X2794Y875D01*
X2795Y878D01*
X2804Y902D02*
Y870D01*
X2823D01*
X2826Y902D02*
Y870D01*
X2847Y902D02*
X2826Y881D01*
X2834Y888D02*
X2847Y870D01*
X2028Y3458D02*
Y3443D01*
X2042Y3442D01*
X2040Y3443D01*
X2039Y3448D01*
Y3452D01*
X2040Y3457D01*
X2043Y3460D01*
X2048Y3461D01*
X2051D01*
X2055Y3460D01*
X2058Y3457D01*
X2060Y3452D01*
Y3448D01*
X2058Y3443D01*
X2057Y3442D01*
X2054Y3440D01*
X2028Y3468D02*
X2060Y3481D01*
X2028Y3493D02*
X2060Y3481D01*
X2071Y3497D02*
Y3521D01*
X2028Y3525D02*
X2060D01*
X2028D02*
Y3539D01*
X2030Y3544D01*
X2031Y3545D01*
X2034Y3547D01*
X2037D01*
X2040Y3545D01*
X2042Y3544D01*
X2043Y3539D01*
Y3525D01*
Y3536D02*
X2060Y3547D01*
X2045Y3554D02*
Y3568D01*
X2043Y3572D01*
X2042Y3574D01*
X2039Y3575D01*
X2034D01*
X2031Y3574D01*
X2030Y3572D01*
X2028Y3568D01*
Y3554D01*
X2060D01*
X2028Y3585D02*
X2030Y3587D01*
X2028Y3589D01*
X2026Y3587D01*
X2028Y3585D01*
X2039Y3587D02*
X2060D01*
X1878Y3440D02*
X1910Y3452D01*
X1878Y3464D02*
X1910Y3452D01*
X1896Y3468D02*
Y3496D01*
X1878Y3505D02*
X1910D01*
X1878Y3527D02*
X1910D01*
X1893Y3505D02*
Y3527D01*
X1878Y3536D02*
X1910D01*
X1878D02*
Y3546D01*
X1880Y3551D01*
X1883Y3554D01*
X1886Y3555D01*
X1890Y3557D01*
X1898D01*
X1902Y3555D01*
X1905Y3554D01*
X1908Y3551D01*
X1910Y3546D01*
Y3536D01*
X1878Y3564D02*
X1910D01*
X1878D02*
Y3578D01*
X1880Y3582D01*
X1881Y3584D01*
X1884Y3585D01*
X1887D01*
X1890Y3584D01*
X1892Y3582D01*
X1893Y3578D01*
Y3564D01*
Y3575D02*
X1910Y3585D01*
X1698Y3458D02*
Y3443D01*
X1712Y3442D01*
X1710Y3443D01*
X1709Y3448D01*
Y3452D01*
X1710Y3457D01*
X1713Y3460D01*
X1718Y3461D01*
X1721D01*
X1725Y3460D01*
X1728Y3457D01*
X1730Y3452D01*
Y3448D01*
X1728Y3443D01*
X1727Y3442D01*
X1724Y3440D01*
X1698Y3468D02*
X1730Y3481D01*
X1698Y3493D02*
X1730Y3481D01*
X1698Y3497D02*
X1721D01*
X1725Y3499D01*
X1728Y3502D01*
X1730Y3506D01*
Y3509D01*
X1728Y3514D01*
X1725Y3517D01*
X1721Y3518D01*
X1698D01*
X1703Y3548D02*
X1700Y3545D01*
X1698Y3541D01*
Y3535D01*
X1700Y3530D01*
X1703Y3527D01*
X1706D01*
X1709Y3529D01*
X1710Y3530D01*
X1712Y3533D01*
X1715Y3542D01*
X1716Y3545D01*
X1718Y3547D01*
X1721Y3548D01*
X1725D01*
X1728Y3545D01*
X1730Y3541D01*
Y3535D01*
X1728Y3530D01*
X1725Y3527D01*
X1698Y3556D02*
X1730D01*
X1698D02*
Y3569D01*
X1700Y3574D01*
X1701Y3575D01*
X1704Y3577D01*
X1707D01*
X1710Y3575D01*
X1712Y3574D01*
X1713Y3569D01*
Y3556D02*
Y3569D01*
X1715Y3574D01*
X1716Y3575D01*
X1719Y3577D01*
X1724D01*
X1727Y3575D01*
X1728Y3574D01*
X1730Y3569D01*
Y3556D01*
X2880Y2856D02*
X2883Y2857D01*
X2888Y2862D01*
Y2830D01*
X2903Y2862D02*
X2916Y2830D01*
X2928Y2862D02*
X2916Y2830D01*
X2933Y2854D02*
Y2856D01*
X2935Y2859D01*
X2937Y2860D01*
X2940Y2862D01*
X2946D01*
X2949Y2860D01*
X2950Y2859D01*
X2952Y2856D01*
Y2853D01*
X2950Y2850D01*
X2947Y2845D01*
X2932Y2830D01*
X2953D01*
X3002Y2854D02*
Y2856D01*
X3003Y2859D01*
X3005Y2860D01*
X3008Y2862D01*
X3014D01*
X3017Y2860D01*
X3018Y2859D01*
X3020Y2856D01*
Y2853D01*
X3018Y2850D01*
X3015Y2845D01*
X3000Y2830D01*
X3021D01*
X3028Y2862D02*
X3041Y2830D01*
X3053Y2862D02*
X3041Y2830D01*
X3075Y2862D02*
X3060D01*
X3059Y2848D01*
X3060Y2850D01*
X3065Y2851D01*
X3069D01*
X3074Y2850D01*
X3077Y2847D01*
X3078Y2842D01*
Y2839D01*
X3077Y2835D01*
X3074Y2832D01*
X3069Y2830D01*
X3065D01*
X3060Y2832D01*
X3059Y2833D01*
X3057Y2836D01*
X3123Y2862D02*
X3140D01*
X3131Y2850D01*
X3135D01*
X3138Y2848D01*
X3140Y2847D01*
X3141Y2842D01*
Y2839D01*
X3140Y2835D01*
X3137Y2832D01*
X3132Y2830D01*
X3128D01*
X3123Y2832D01*
X3122Y2833D01*
X3120Y2836D01*
X3148Y2862D02*
X3161Y2830D01*
X3173Y2862D02*
X3161Y2830D01*
X3180Y2862D02*
X3197D01*
X3188Y2850D01*
X3192D01*
X3195Y2848D01*
X3197Y2847D01*
X3198Y2842D01*
Y2839D01*
X3197Y2835D01*
X3194Y2832D01*
X3189Y2830D01*
X3185D01*
X3180Y2832D01*
X3179Y2833D01*
X3177Y2836D01*
D65*
X2034Y2992D02*
G03*
X2034Y2992I-12J0D01*
G01*
X3095Y2009D02*
G03*
X3095Y2009I-12J0D01*
G01*
X1029Y1436D02*
G03*
X1029Y1436I-12J0D01*
G01*
X1587Y1345D02*
G03*
X1587Y1345I-12J0D01*
G01*
D66*
X2085Y3082D02*
G03*
X2085Y3082I-5J0D01*
G01*
X1311Y2219D02*
G03*
X1311Y2219I-5J0D01*
G01*
X3005Y2054D02*
G03*
X3005Y2054I-5J0D01*
G01*
X1105Y1391D02*
G03*
X1105Y1391I-5J0D01*
G01*
X1533Y1255D02*
G03*
X1533Y1255I-5J0D01*
G01*
X860Y968D02*
G03*
X860Y968I-5J0D01*
G01*
X2903Y3266D02*
G03*
X2903Y3266I-5J0D01*
G01*
X2400Y945D02*
G03*
X2400Y945I-5J0D01*
G01*
X1435Y3006D02*
G03*
X1435Y3006I-5J0D01*
G01*
X2617Y3377D02*
G03*
X2617Y3377I-5J0D01*
G01*
X3437Y3252D02*
G03*
X3437Y3252I-5J0D01*
G01*
D67*
X1356Y2304D02*
G03*
X1356Y2304I-8J0D01*
G01*
X954Y927D02*
G03*
X954Y927I-8J0D01*
G01*
D68*
X945Y2735D02*
G03*
X865Y2735I-40J0D01*
G01*
X1929Y301D02*
G03*
X1929Y301I-49J0D01*
G01*
X2459D02*
G03*
X2459Y301I-49J0D01*
G01*
X2979D02*
G03*
X2979Y301I-49J0D01*
G01*
X3479D02*
G03*
X3479Y301I-49J0D01*
G01*
X270Y3650D02*
G03*
X270Y3650I-49J0D01*
G01*
X335Y3160D02*
Y3300D01*
X405Y3160D02*
Y3300D01*
X335D02*
X405D01*
X335Y3160D02*
X405D01*
X1895Y2378D02*
X1910Y2363D01*
X1950D01*
X1965Y2378D01*
Y2473D02*
Y2513D01*
Y2378D02*
Y2403D01*
X1895Y2473D02*
Y2513D01*
X1965D01*
X1895Y2378D02*
Y2403D01*
X1906Y2367D02*
X1954D01*
X1805Y2378D02*
X1820Y2363D01*
X1860D01*
X1875Y2378D01*
Y2473D02*
Y2513D01*
Y2378D02*
Y2403D01*
X1805Y2473D02*
Y2513D01*
X1875D01*
X1805Y2378D02*
Y2403D01*
X1816Y2367D02*
X1864D01*
X2262Y2152D02*
X2308D01*
X2262Y2253D02*
X2308D01*
Y2152D02*
Y2253D01*
X2262Y2152D02*
Y2253D01*
X1642Y2167D02*
X1688D01*
X1642Y2268D02*
X1688D01*
Y2167D02*
Y2268D01*
X1642Y2167D02*
Y2268D01*
X1828Y2157D02*
X1874D01*
X1828Y2258D02*
X1874D01*
Y2157D02*
Y2258D01*
X1828Y2157D02*
Y2258D01*
X2077Y2157D02*
X2123D01*
X2077Y2258D02*
X2123D01*
Y2157D02*
Y2258D01*
X2077Y2157D02*
Y2258D01*
X2017Y2157D02*
X2063D01*
X2017Y2258D02*
X2063D01*
Y2157D02*
Y2258D01*
X2017Y2157D02*
Y2258D01*
X2755Y2930D02*
Y3070D01*
X2825Y2930D02*
Y3070D01*
X2755D02*
X2825D01*
X2755Y2930D02*
X2825D01*
X2615D02*
Y3070D01*
X2545Y2930D02*
Y3070D01*
Y2930D02*
X2615D01*
X2545Y3070D02*
X2615D01*
X1105Y560D02*
Y700D01*
X1035Y560D02*
Y700D01*
Y560D02*
X1105D01*
X1035Y700D02*
X1105D01*
X1015Y560D02*
Y700D01*
X945Y560D02*
Y700D01*
Y560D02*
X1015D01*
X945Y700D02*
X1015D01*
X855Y560D02*
Y700D01*
X925Y560D02*
Y700D01*
X855D02*
X925D01*
X855Y560D02*
X925D01*
X1175D02*
X1245D01*
X1175Y700D02*
X1245D01*
Y560D02*
Y700D01*
X1175Y560D02*
Y700D01*
X1305Y560D02*
X1375D01*
X1305Y700D02*
X1375D01*
Y560D02*
Y700D01*
X1305Y560D02*
Y700D01*
X1435Y560D02*
X1505D01*
X1435Y700D02*
X1505D01*
Y560D02*
Y700D01*
X1435Y560D02*
Y700D01*
X2065Y970D02*
Y1110D01*
X2135Y970D02*
Y1110D01*
X2065D02*
X2135D01*
X2065Y970D02*
X2135D01*
X1985D02*
Y1110D01*
X2055Y970D02*
Y1110D01*
X1985D02*
X2055D01*
X1985Y970D02*
X2055D01*
X1905D02*
Y1110D01*
X1975Y970D02*
Y1110D01*
X1905D02*
X1975D01*
X1905Y970D02*
X1975D01*
X1755D02*
Y1110D01*
X1825Y970D02*
Y1110D01*
X1755D02*
X1825D01*
X1755Y970D02*
X1825D01*
X1835Y600D02*
Y740D01*
X1765Y600D02*
Y740D01*
Y600D02*
X1835D01*
X1765Y740D02*
X1835D01*
X2240Y835D02*
X2380D01*
X2240Y905D02*
X2380D01*
X2240Y835D02*
Y905D01*
X2380Y835D02*
Y905D01*
X2565Y603D02*
X2580Y588D01*
X2620D01*
X2635Y603D01*
Y697D02*
Y738D01*
Y603D02*
Y627D01*
X2565Y697D02*
Y738D01*
X2635D01*
X2565Y603D02*
Y627D01*
X2576Y592D02*
X2624D01*
X2325Y603D02*
X2340Y588D01*
X2380D01*
X2395Y603D01*
Y697D02*
Y738D01*
Y603D02*
Y627D01*
X2325Y697D02*
Y738D01*
X2395D01*
X2325Y603D02*
Y627D01*
X2336Y592D02*
X2384D01*
X2085Y603D02*
X2100Y588D01*
X2140D01*
X2155Y603D01*
Y697D02*
Y738D01*
Y603D02*
Y627D01*
X2085Y697D02*
Y738D01*
X2155D01*
X2085Y603D02*
Y627D01*
X2096Y592D02*
X2144D01*
X1845Y608D02*
X1860Y593D01*
X1900D01*
X1915Y608D01*
Y702D02*
Y743D01*
Y608D02*
Y632D01*
X1845Y702D02*
Y743D01*
X1915D01*
X1845Y608D02*
Y632D01*
X1856Y597D02*
X1904D01*
X2240Y755D02*
X2380D01*
X2240Y825D02*
X2380D01*
X2240Y755D02*
Y825D01*
X2380Y755D02*
Y825D01*
X2315Y595D02*
Y735D01*
X2245Y595D02*
Y735D01*
Y595D02*
X2315D01*
X2245Y735D02*
X2315D01*
X2407Y1457D02*
Y1503D01*
X2508Y1457D02*
Y1503D01*
X2407Y1457D02*
X2508D01*
X2407Y1503D02*
X2508D01*
X2640Y1015D02*
X2780D01*
X2640Y1085D02*
X2780Y1085D01*
X2640Y1015D02*
Y1085D01*
X2780Y1015D02*
X2780Y1085D01*
X2640Y945D02*
X2780D01*
X2640Y1015D02*
X2780Y1015D01*
X2640Y945D02*
Y1015D01*
X2780Y945D02*
X2780Y1015D01*
X3080Y965D02*
X3220D01*
X3080Y895D02*
X3220D01*
Y965D01*
X3080Y895D02*
Y965D01*
X1055Y3195D02*
X1195D01*
X1055Y3265D02*
X1195D01*
X1055Y3195D02*
Y3265D01*
X1195Y3195D02*
Y3265D01*
X750Y2735D02*
X1070D01*
X750D02*
Y3145D01*
X1070D01*
Y2735D02*
Y3145D01*
X1060Y2735D02*
X1070D01*
X1060D02*
X1070Y2745D01*
Y2750D01*
X1055Y2735D02*
X1070Y2750D01*
X2665Y3740D02*
X2735D01*
X2665Y3600D02*
X2735D01*
X2665D02*
Y3740D01*
X2735Y3600D02*
Y3740D01*
X3185Y2930D02*
X3255D01*
X3185Y3070D02*
X3255D01*
Y2930D02*
Y3070D01*
X3185Y2930D02*
Y3070D01*
X1433Y1837D02*
Y1883D01*
X1332Y1837D02*
Y1883D01*
X1433D01*
X1332Y1837D02*
X1433D01*
X1408Y1697D02*
Y1743D01*
X1307Y1697D02*
Y1743D01*
X1408D01*
X1307Y1697D02*
X1408D01*
X1393Y1417D02*
Y1463D01*
X1292Y1417D02*
Y1463D01*
X1393D01*
X1292Y1417D02*
X1393D01*
X3095Y2930D02*
X3165D01*
X3095Y3070D02*
X3165D01*
Y2930D02*
Y3070D01*
X3095Y2930D02*
Y3070D01*
X2407Y1807D02*
Y1853D01*
X2508Y1807D02*
Y1853D01*
X2407Y1807D02*
X2508D01*
X2407Y1853D02*
X2508D01*
X2985Y2930D02*
Y3070D01*
X3055D02*
X3055Y2930D01*
X2985Y3070D02*
X3055D01*
X2985Y2930D02*
X3055Y2930D01*
X1377Y1273D02*
X1423D01*
X1377Y1172D02*
X1423D01*
X1377D02*
Y1273D01*
X1423Y1172D02*
Y1273D01*
X1565Y560D02*
X1635D01*
X1565Y700D02*
X1635D01*
Y560D02*
Y700D01*
X1565Y560D02*
Y700D01*
X1270Y2945D02*
X1410D01*
X1270Y3015D02*
X1410D01*
X1270Y2945D02*
Y3015D01*
X1410Y2945D02*
Y3015D01*
X1270Y2795D02*
X1410D01*
X1270Y2865D02*
X1410D01*
X1270Y2795D02*
Y2865D01*
X1410Y2795D02*
Y2865D01*
X2635Y3260D02*
X2705D01*
X2635Y3400D02*
X2705D01*
Y3260D02*
Y3400D01*
X2635Y3260D02*
Y3400D01*
X1704Y3283D02*
X1719Y3268D01*
X1759D01*
X1774Y3283D01*
Y3377D02*
Y3417D01*
Y3283D02*
Y3307D01*
X1704Y3377D02*
Y3417D01*
X1774D01*
X1704Y3283D02*
Y3307D01*
X1715Y3272D02*
X1763D01*
X2014Y3283D02*
X2029Y3268D01*
X2069D01*
X2084Y3283D01*
Y3377D02*
Y3417D01*
Y3283D02*
Y3307D01*
X2014Y3377D02*
Y3417D01*
X2084D01*
X2014Y3283D02*
Y3307D01*
X2025Y3272D02*
X2073D01*
X2104Y3283D02*
X2119Y3268D01*
X2159D01*
X2174Y3283D01*
Y3377D02*
Y3417D01*
Y3283D02*
Y3307D01*
X2104Y3377D02*
Y3417D01*
X2174D01*
X2104Y3283D02*
Y3307D01*
X2115Y3272D02*
X2163D01*
X1814Y3283D02*
X1829Y3268D01*
X1869D01*
X1884Y3283D01*
Y3377D02*
Y3417D01*
Y3283D02*
Y3307D01*
X1814Y3377D02*
Y3417D01*
X1884D01*
X1814Y3283D02*
Y3307D01*
X1825Y3272D02*
X1873D01*
X1904Y3283D02*
X1919Y3268D01*
X1959D01*
X1974Y3283D01*
Y3377D02*
Y3417D01*
Y3283D02*
Y3307D01*
X1904Y3377D02*
Y3417D01*
X1974D01*
X1904Y3283D02*
Y3307D01*
X1915Y3272D02*
X1963D01*
X1490Y857D02*
X1505Y842D01*
X1450Y857D02*
X1490D01*
X1435Y842D02*
X1450Y857D01*
X1435Y707D02*
Y748D01*
Y817D02*
Y842D01*
X1505Y707D02*
Y748D01*
X1435Y707D02*
X1505D01*
Y817D02*
Y842D01*
X1446Y853D02*
X1494D01*
X1620Y857D02*
X1635Y842D01*
X1580Y857D02*
X1620D01*
X1565Y842D02*
X1580Y857D01*
X1565Y707D02*
Y748D01*
Y817D02*
Y842D01*
X1635Y707D02*
Y748D01*
X1565Y707D02*
X1635D01*
Y817D02*
Y842D01*
X1576Y853D02*
X1624D01*
X1230Y857D02*
X1245Y842D01*
X1190Y857D02*
X1230D01*
X1175Y842D02*
X1190Y857D01*
X1175Y707D02*
Y748D01*
Y817D02*
Y842D01*
X1245Y707D02*
Y748D01*
X1175Y707D02*
X1245D01*
Y817D02*
Y842D01*
X1186Y853D02*
X1234D01*
X1360Y857D02*
X1375Y842D01*
X1320Y857D02*
X1360D01*
X1305Y842D02*
X1320Y857D01*
X1305Y707D02*
Y748D01*
Y817D02*
Y842D01*
X1375Y707D02*
Y748D01*
X1305Y707D02*
X1375D01*
Y817D02*
Y842D01*
X1316Y853D02*
X1364D01*
X2915Y2930D02*
Y3070D01*
X2985Y2930D02*
Y3070D01*
X2915D02*
X2985D01*
X2915Y2930D02*
X2985D01*
X400Y995D02*
Y1785D01*
X55Y995D02*
Y1785D01*
Y995D02*
X400D01*
X55Y1785D02*
X400D01*
Y2005D02*
Y2795D01*
X55Y2005D02*
Y2795D01*
Y2005D02*
X400D01*
X55Y2795D02*
X400D01*
X2115Y230D02*
Y370D01*
X2185Y230D02*
Y370D01*
X2115D02*
X2185D01*
X2115Y230D02*
X2185D01*
X2635D02*
Y370D01*
X2705Y230D02*
Y370D01*
X2635D02*
X2705D01*
X2635Y230D02*
X2705D01*
X3665D02*
Y370D01*
X3735Y230D02*
Y370D01*
X3665D02*
X3735D01*
X3665Y230D02*
X3735D01*
X2555Y595D02*
Y735D01*
X2485Y595D02*
Y735D01*
Y595D02*
X2555D01*
X2485Y735D02*
X2555D01*
X2785Y595D02*
Y735D01*
X2715Y595D02*
Y735D01*
Y595D02*
X2785D01*
X2715Y735D02*
X2785D01*
X1795Y2370D02*
Y2510D01*
X1725Y2370D02*
Y2510D01*
Y2370D02*
X1795D01*
X1725Y2510D02*
X1795D01*
X2045Y2370D02*
Y2510D01*
X1975Y2370D02*
Y2510D01*
Y2370D02*
X2045D01*
X1975Y2510D02*
X2045D01*
X2640Y2205D02*
X2780D01*
X2640Y2275D02*
X2780D01*
X2640Y2205D02*
Y2275D01*
X2780Y2205D02*
Y2275D01*
X2640Y2135D02*
X2780D01*
X2640Y2205D02*
X2780D01*
X2640Y2135D02*
Y2205D01*
X2780Y2135D02*
Y2205D01*
X2640Y2065D02*
X2780D01*
X2640Y2135D02*
X2780D01*
X2640Y2065D02*
Y2135D01*
X2780Y2065D02*
Y2135D01*
X2640Y1995D02*
X2780D01*
X2640Y2065D02*
X2780D01*
X2640Y1995D02*
Y2065D01*
X2780Y1995D02*
Y2065D01*
X2640Y1925D02*
X2780D01*
X2640Y1995D02*
X2780D01*
X2640Y1925D02*
Y1995D01*
X2780Y1925D02*
Y1995D01*
X2640Y1855D02*
X2780D01*
X2640Y1925D02*
X2780D01*
X2640Y1855D02*
Y1925D01*
X2780Y1855D02*
Y1925D01*
X2640Y1785D02*
X2780D01*
X2640Y1855D02*
X2780D01*
X2640Y1785D02*
Y1855D01*
X2780Y1785D02*
Y1855D01*
X2640Y1715D02*
X2780D01*
X2640Y1785D02*
X2780D01*
X2640Y1715D02*
Y1785D01*
X2780Y1715D02*
Y1785D01*
X2640Y1645D02*
X2780D01*
X2640Y1715D02*
X2780D01*
X2640Y1645D02*
Y1715D01*
X2780Y1645D02*
Y1715D01*
X2640Y1575D02*
X2780D01*
X2640Y1645D02*
X2780D01*
X2640Y1575D02*
Y1645D01*
X2780Y1575D02*
Y1645D01*
X2640Y1505D02*
X2780D01*
X2640Y1575D02*
X2780D01*
X2640Y1505D02*
Y1575D01*
X2780Y1505D02*
Y1575D01*
X2640Y1435D02*
X2780D01*
X2640Y1505D02*
X2780D01*
X2640Y1435D02*
Y1505D01*
X2780Y1435D02*
Y1505D01*
X2640Y1365D02*
X2780D01*
X2640Y1435D02*
X2780D01*
X2640Y1365D02*
Y1435D01*
X2780Y1365D02*
Y1435D01*
X2640Y1295D02*
X2780D01*
X2640Y1365D02*
X2780D01*
X2640Y1295D02*
Y1365D01*
X2780Y1295D02*
Y1365D01*
X2640Y1225D02*
X2780D01*
X2640Y1295D02*
X2780D01*
X2640Y1225D02*
Y1295D01*
X2780Y1225D02*
Y1295D01*
X2640Y1155D02*
X2780D01*
X2640Y1225D02*
X2780D01*
X2640Y1155D02*
Y1225D01*
X2780Y1155D02*
Y1225D01*
X2640Y1085D02*
X2780D01*
X2640Y1155D02*
X2780D01*
X2640Y1085D02*
Y1155D01*
X2780Y1085D02*
Y1155D01*
X1755Y970D02*
Y1110D01*
X1685Y970D02*
Y1110D01*
Y970D02*
X1755D01*
X1685Y1110D02*
X1755D01*
X2205Y970D02*
Y1110D01*
X2135Y970D02*
Y1110D01*
Y970D02*
X2205D01*
X2135Y1110D02*
X2205D01*
X1835Y970D02*
Y1110D01*
X1905Y970D02*
Y1110D01*
X1835D02*
X1905D01*
X1835Y970D02*
X1905D01*
X1210Y2495D02*
Y2565D01*
X1070Y2495D02*
Y2565D01*
X1210D01*
X1070Y2495D02*
X1210D01*
Y2585D02*
Y2655D01*
X1070Y2585D02*
Y2655D01*
X1210D01*
X1070Y2585D02*
X1210D01*
X1285Y3260D02*
X1355D01*
X1285Y3400D02*
X1355D01*
Y3260D02*
Y3400D01*
X1285Y3260D02*
Y3400D01*
X3145Y230D02*
Y370D01*
X3215Y230D02*
Y370D01*
X3145D02*
X3215D01*
X3145Y230D02*
X3215D01*
X2075Y595D02*
Y735D01*
X2005Y595D02*
Y735D01*
Y595D02*
X2075D01*
X2005Y735D02*
X2075D01*
X1020Y1005D02*
Y1075D01*
X880Y1005D02*
Y1075D01*
X1020D01*
X880Y1005D02*
X1020D01*
X2014Y265D02*
Y335D01*
X1746Y265D02*
Y335D01*
X1752Y160D02*
X2008D01*
X1753Y440D02*
X2007D01*
X2544Y265D02*
Y335D01*
X2276Y265D02*
Y335D01*
X2282Y160D02*
X2538D01*
X2283Y440D02*
X2537D01*
X3064Y265D02*
Y335D01*
X2796Y265D02*
Y335D01*
X2802Y160D02*
X3058D01*
X2803Y440D02*
X3057D01*
X3564Y265D02*
Y335D01*
X3296Y265D02*
Y335D01*
X3302Y160D02*
X3558D01*
X3303Y440D02*
X3557D01*
X2990Y525D02*
Y875D01*
Y525D02*
X3310D01*
Y875D01*
X2990D02*
X3310D01*
X1533Y3525D02*
Y3565D01*
X1297Y3525D02*
X1533D01*
X1297D02*
Y3565D01*
X1261Y3860D02*
Y3919D01*
X1572D01*
Y3860D02*
Y3919D01*
X185Y3516D02*
X255D01*
X185Y3784D02*
X255D01*
X80Y3522D02*
Y3778D01*
X360Y3523D02*
Y3777D01*
X1385Y3260D02*
X1455Y3260D01*
X1385Y3400D02*
X1455D01*
X1455Y3260D01*
X1385Y3260D02*
Y3400D01*
X1614Y3283D02*
X1629Y3268D01*
X1669D01*
X1684Y3283D01*
Y3377D02*
Y3417D01*
Y3283D02*
Y3307D01*
X1614Y3377D02*
Y3417D01*
X1684D01*
X1614Y3283D02*
Y3307D01*
X1625Y3272D02*
X1673D01*
X2385Y3400D02*
X2455D01*
X2385Y3260D02*
X2455D01*
X2385D02*
Y3400D01*
X2455Y3260D02*
Y3400D01*
X2775Y3260D02*
Y3400D01*
X2705Y3260D02*
Y3400D01*
Y3260D02*
X2775D01*
X2705Y3400D02*
X2775D01*
X2785Y3268D02*
X2800Y3253D01*
X2840D01*
X2855Y3268D01*
Y3363D02*
Y3403D01*
Y3268D02*
Y3293D01*
X2785Y3363D02*
Y3403D01*
X2855D01*
X2785Y3268D02*
Y3293D01*
X2796Y3257D02*
X2844D01*
X3070Y2095D02*
Y2165D01*
X3210Y2095D02*
Y2165D01*
X3070Y2095D02*
X3210D01*
X3070Y2165D02*
X3210D01*
X3070D02*
Y2235D01*
X3210Y2165D02*
Y2235D01*
X3070Y2165D02*
X3210D01*
X3070Y2235D02*
X3210D01*
X2508Y1237D02*
Y1283D01*
X2407Y1237D02*
Y1283D01*
X2508D01*
X2407Y1237D02*
X2508D01*
X2407Y1327D02*
Y1373D01*
X2508Y1327D02*
Y1373D01*
X2407Y1327D02*
X2508D01*
X2407Y1373D02*
X2508D01*
X1020Y1230D02*
Y1300D01*
X880Y1230D02*
Y1300D01*
X1020D01*
X880Y1230D02*
X1020D01*
Y1300D02*
Y1370D01*
X880Y1300D02*
Y1370D01*
X1020D01*
X880Y1300D02*
X1020D01*
X2685Y2930D02*
Y3070D01*
X2755Y2930D02*
Y3070D01*
X2685D02*
X2755D01*
X2685Y2930D02*
X2755D01*
X2615D02*
X2685D01*
X2615Y3070D02*
X2685D01*
Y2930D02*
Y3070D01*
X2615Y2930D02*
Y3070D01*
X1070Y2470D02*
X1210D01*
X1070Y2400D02*
X1210D01*
Y2470D01*
X1070Y2400D02*
Y2470D01*
X2640Y2555D02*
X2780D01*
X2640Y2625D02*
X2780D01*
X2640Y2555D02*
Y2625D01*
X2780Y2555D02*
Y2625D01*
X2640Y2485D02*
X2780D01*
X2640Y2555D02*
X2780D01*
X2640Y2485D02*
Y2555D01*
X2780Y2485D02*
Y2555D01*
X2640Y2415D02*
X2780D01*
X2640Y2485D02*
X2780D01*
X2640Y2415D02*
Y2485D01*
X2780Y2415D02*
Y2485D01*
X2640Y2345D02*
X2780D01*
X2640Y2415D02*
X2780D01*
X2640Y2345D02*
Y2415D01*
X2780Y2345D02*
Y2415D01*
X2640Y2275D02*
X2780D01*
X2640Y2345D02*
X2780D01*
X2640Y2275D02*
Y2345D01*
X2780Y2275D02*
Y2345D01*
X2795Y603D02*
X2810Y588D01*
X2850D01*
X2865Y603D01*
Y697D02*
Y738D01*
Y603D02*
Y627D01*
X2795Y697D02*
Y738D01*
X2865D01*
X2795Y603D02*
Y627D01*
X2806Y592D02*
X2854D01*
X357Y1581D02*
X356D01*
X353Y1583D01*
X351Y1584D01*
X350Y1587D01*
Y1593D01*
X351Y1596D01*
X353Y1597D01*
X356Y1599D01*
X359D01*
X361Y1597D01*
X366Y1594D01*
X380Y1580D01*
Y1600D01*
X99Y1590D02*
X101Y1587D01*
X105Y1583D01*
X75D01*
X356Y1170D02*
X354Y1173D01*
X350Y1177D01*
X380D01*
X350Y1201D02*
X351Y1196D01*
X356Y1193D01*
X363Y1192D01*
X367D01*
X374Y1193D01*
X379Y1196D01*
X380Y1201D01*
Y1203D01*
X379Y1208D01*
X374Y1211D01*
X367Y1212D01*
X363D01*
X356Y1211D01*
X351Y1208D01*
X350Y1203D01*
Y1201D01*
X95Y1191D02*
X91Y1193D01*
X88Y1196D01*
X86Y1200D01*
Y1201D01*
X88Y1206D01*
X91Y1209D01*
X95Y1210D01*
X96D01*
X101Y1209D01*
X104Y1206D01*
X105Y1201D01*
Y1200D01*
X104Y1196D01*
X101Y1193D01*
X95Y1191D01*
X88D01*
X81Y1193D01*
X76Y1196D01*
X75Y1200D01*
Y1203D01*
X76Y1207D01*
X79Y1209D01*
X357Y2591D02*
X356D01*
X353Y2593D01*
X351Y2594D01*
X350Y2597D01*
Y2603D01*
X351Y2606D01*
X353Y2607D01*
X356Y2609D01*
X359D01*
X361Y2607D01*
X366Y2604D01*
X380Y2590D01*
Y2610D01*
X99Y2600D02*
X101Y2597D01*
X105Y2593D01*
X75D01*
X356Y2180D02*
X354Y2183D01*
X350Y2187D01*
X380D01*
X350Y2211D02*
X351Y2206D01*
X356Y2203D01*
X363Y2202D01*
X367D01*
X374Y2203D01*
X379Y2206D01*
X380Y2211D01*
Y2213D01*
X379Y2218D01*
X374Y2221D01*
X367Y2222D01*
X363D01*
X356Y2221D01*
X351Y2218D01*
X350Y2213D01*
Y2211D01*
X95Y2201D02*
X91Y2203D01*
X88Y2206D01*
X86Y2210D01*
Y2211D01*
X88Y2216D01*
X91Y2219D01*
X95Y2220D01*
X96D01*
X101Y2219D01*
X104Y2216D01*
X105Y2211D01*
Y2210D01*
X104Y2206D01*
X101Y2203D01*
X95Y2201D01*
X88D01*
X81Y2203D01*
X76Y2206D01*
X75Y2210D01*
Y2213D01*
X76Y2217D01*
X79Y2219D01*
D69*
X1719Y2689D02*
Y3031D01*
X2061Y2689D02*
Y3031D01*
X1719Y2689D02*
X2061D01*
X1719Y3031D02*
X2061D01*
X1317Y2273D02*
X1513D01*
X1317Y2351D02*
X1513D01*
X1317Y2273D02*
Y2351D01*
X1513Y2273D02*
Y2351D01*
X2270Y2700D02*
Y2892D01*
Y2700D02*
Y3000D01*
X2470Y2700D02*
Y3000D01*
X2270D02*
X2470D01*
X2270Y2700D02*
X2470D01*
X2321Y3339D02*
Y3401D01*
X2199Y3339D02*
Y3401D01*
X520Y420D02*
X620D01*
X520D02*
Y2820D01*
X620D01*
Y2745D02*
Y2820D01*
Y420D02*
Y2745D01*
X3044Y1552D02*
X3256D01*
X3044Y2048D02*
X3256D01*
Y1552D02*
Y2048D01*
X3044Y1552D02*
Y2048D01*
X844Y1893D02*
X1056D01*
X844Y1397D02*
X1056D01*
X844D02*
Y1893D01*
X1056Y1397D02*
Y1893D01*
X1536Y1306D02*
X2264D01*
X1536Y2034D02*
X2264D01*
X1536Y1306D02*
Y2034D01*
X2264Y1306D02*
Y2034D01*
X915Y762D02*
X985D01*
X915Y958D02*
X985D01*
Y762D02*
Y958D01*
X915Y762D02*
Y958D01*
X2898Y3325D02*
X3162D01*
X2898Y3435D02*
X3162D01*
X2898Y3325D02*
Y3435D01*
X3162Y3325D02*
Y3435D01*
X2373Y1010D02*
Y1030D01*
X2247Y1010D02*
Y1030D01*
X1575Y3008D02*
X1583D01*
Y2812D02*
Y3008D01*
X1575Y2812D02*
X1583D01*
X1457D02*
X1465D01*
X1457D02*
Y3008D01*
X1465D01*
X100Y3000D02*
Y3192D01*
Y3000D02*
Y3300D01*
X300Y3000D02*
Y3300D01*
X100D02*
X300D01*
X100Y3000D02*
X300D01*
X2599Y3320D02*
Y3340D01*
X2481Y3320D02*
Y3340D01*
X2599D01*
X2481Y3320D02*
X2599D01*
X3405Y3394D02*
Y3461D01*
X3815Y3394D02*
Y3461D01*
X3405Y3394D02*
X3815D01*
X3640Y860D02*
Y2860D01*
X3840Y860D02*
Y2860D01*
X3640D02*
X3840D01*
X3640Y860D02*
X3840D01*
D70*
X906Y2755D02*
D03*
D71*
X1480Y2520D02*
D03*
X3520Y2200D02*
D03*
X3520Y1610D02*
D03*
X1280Y2520D02*
D03*
X3520Y2810D02*
D03*
D72*
X3150Y857D02*
D03*
M02*
