G04 Layer_Color=32896*
%FSLAX23Y23*%
%MOIN*%
G70*
G01*
G75*
%ADD46C,0.012*%
%ADD64C,0.006*%
G36*
X370Y440D02*
X402D01*
Y432D01*
X418D01*
Y424D01*
X426D01*
Y416D01*
X434D01*
Y408D01*
X442D01*
Y400D01*
X450D01*
Y360D01*
X458D01*
Y200D01*
X450D01*
Y168D01*
X442D01*
Y152D01*
X434D01*
Y144D01*
X426D01*
Y136D01*
X410D01*
Y128D01*
X378D01*
Y120D01*
X202D01*
Y128D01*
X170D01*
Y136D01*
X154D01*
Y144D01*
X146D01*
Y152D01*
X138D01*
Y168D01*
X130D01*
Y200D01*
X122D01*
Y360D01*
X130D01*
Y400D01*
X138D01*
Y408D01*
X146D01*
Y424D01*
X162D01*
Y432D01*
X178D01*
Y440D01*
X210D01*
Y448D01*
X370D01*
Y440D01*
D02*
G37*
G36*
X1525Y219D02*
X1528Y219D01*
X1530Y218D01*
X1532Y218D01*
X1534Y217D01*
X1535Y217D01*
X1536Y217D01*
X1536Y217D01*
X1536Y216D01*
X1537Y216D01*
X1537D01*
X1539Y215D01*
X1542Y214D01*
X1544Y213D01*
X1545Y211D01*
X1547Y210D01*
X1548Y209D01*
X1549Y209D01*
X1549Y209D01*
X1549Y208D01*
X1551Y206D01*
X1553Y204D01*
X1554Y202D01*
X1555Y200D01*
X1556Y199D01*
X1557Y197D01*
X1557Y197D01*
X1557Y197D01*
X1557Y196D01*
Y196D01*
X1558Y194D01*
X1559Y191D01*
X1559Y188D01*
X1560Y186D01*
X1560Y184D01*
Y183D01*
X1560Y183D01*
Y182D01*
Y182D01*
Y181D01*
Y181D01*
X1560Y178D01*
X1560Y175D01*
X1559Y173D01*
X1559Y170D01*
X1558Y169D01*
X1558Y168D01*
X1558Y167D01*
X1557Y167D01*
X1557Y166D01*
X1557Y166D01*
Y166D01*
X1556Y163D01*
X1555Y161D01*
X1553Y159D01*
X1552Y157D01*
X1551Y156D01*
X1550Y155D01*
X1549Y154D01*
X1549Y154D01*
Y154D01*
X1547Y152D01*
X1545Y150D01*
X1543Y149D01*
X1541Y148D01*
X1539Y147D01*
X1538Y146D01*
X1538Y146D01*
X1537Y146D01*
X1537Y146D01*
X1537D01*
X1534Y145D01*
X1532Y144D01*
X1529Y144D01*
X1527Y144D01*
X1525Y143D01*
X1524D01*
X1523Y143D01*
X1522D01*
X1519Y143D01*
X1516Y144D01*
X1514Y144D01*
X1512Y145D01*
X1510Y145D01*
X1509Y145D01*
X1508Y146D01*
X1508Y146D01*
X1508Y146D01*
X1507Y146D01*
X1507D01*
X1505Y147D01*
X1502Y148D01*
X1500Y150D01*
X1498Y151D01*
X1497Y152D01*
X1496Y153D01*
X1495Y154D01*
X1495Y154D01*
X1493Y156D01*
X1491Y158D01*
X1490Y160D01*
X1489Y162D01*
X1488Y164D01*
X1487Y165D01*
X1487Y165D01*
X1487Y166D01*
X1487Y166D01*
Y166D01*
X1486Y169D01*
X1485Y171D01*
X1485Y174D01*
X1484Y176D01*
X1484Y178D01*
Y179D01*
X1484Y180D01*
Y180D01*
Y181D01*
Y181D01*
Y181D01*
X1484Y184D01*
X1485Y187D01*
X1485Y189D01*
X1486Y192D01*
X1486Y193D01*
X1486Y194D01*
X1486Y195D01*
X1487Y195D01*
X1487Y196D01*
X1487Y196D01*
Y196D01*
X1488Y199D01*
X1489Y201D01*
X1491Y203D01*
X1492Y205D01*
X1493Y206D01*
X1494Y207D01*
X1495Y208D01*
X1495Y208D01*
X1495D01*
X1497Y210D01*
X1499Y212D01*
X1501Y213D01*
X1503Y214D01*
X1505Y215D01*
X1506Y216D01*
X1506Y216D01*
X1507Y216D01*
X1507Y216D01*
X1507D01*
X1510Y217D01*
X1512Y218D01*
X1515Y218D01*
X1517Y219D01*
X1519Y219D01*
X1520D01*
X1521Y219D01*
X1522D01*
X1525Y219D01*
D02*
G37*
%LPC*%
G36*
X1524Y213D02*
X1522D01*
X1519Y213D01*
X1516Y212D01*
X1513Y211D01*
X1511Y211D01*
X1510Y210D01*
X1509Y210D01*
X1508Y210D01*
X1508Y209D01*
X1507Y209D01*
X1507Y209D01*
X1506Y209D01*
X1506D01*
X1504Y207D01*
X1502Y205D01*
X1500Y203D01*
X1498Y202D01*
X1497Y200D01*
X1496Y199D01*
X1496Y198D01*
X1496Y198D01*
X1495Y198D01*
Y197D01*
X1494Y195D01*
X1493Y192D01*
X1493Y189D01*
X1492Y187D01*
X1492Y184D01*
X1492Y183D01*
X1492Y183D01*
Y182D01*
Y182D01*
Y181D01*
Y181D01*
X1492Y178D01*
X1492Y175D01*
X1493Y172D01*
X1493Y169D01*
X1494Y168D01*
X1494Y167D01*
X1495Y167D01*
X1495Y166D01*
X1495Y165D01*
X1495Y165D01*
X1495Y165D01*
Y165D01*
X1497Y162D01*
X1499Y160D01*
X1501Y158D01*
X1502Y156D01*
X1504Y155D01*
X1505Y154D01*
X1506Y154D01*
X1506Y154D01*
X1506Y153D01*
X1506D01*
X1509Y152D01*
X1512Y151D01*
X1514Y150D01*
X1517Y150D01*
X1519Y150D01*
X1520Y150D01*
X1521D01*
X1521Y149D01*
X1522D01*
X1525Y150D01*
X1528Y150D01*
X1531Y151D01*
X1533Y151D01*
X1534Y152D01*
X1535Y152D01*
X1536Y152D01*
X1537Y153D01*
X1537Y153D01*
X1538Y153D01*
X1538Y153D01*
X1538D01*
X1540Y155D01*
X1543Y157D01*
X1544Y159D01*
X1546Y161D01*
X1547Y162D01*
X1548Y163D01*
X1548Y164D01*
X1549Y164D01*
X1549Y165D01*
Y165D01*
X1550Y167D01*
X1551Y170D01*
X1552Y173D01*
X1552Y176D01*
X1552Y177D01*
X1552Y178D01*
X1553Y179D01*
Y180D01*
X1553Y180D01*
Y181D01*
Y181D01*
Y181D01*
X1553Y184D01*
X1552Y187D01*
X1551Y190D01*
X1551Y193D01*
X1550Y194D01*
X1550Y195D01*
X1550Y195D01*
X1549Y196D01*
X1549Y197D01*
X1549Y197D01*
X1549Y197D01*
Y197D01*
X1547Y200D01*
X1545Y202D01*
X1544Y204D01*
X1542Y206D01*
X1540Y207D01*
X1539Y208D01*
X1539Y208D01*
X1538Y209D01*
X1538Y209D01*
X1538D01*
X1535Y210D01*
X1532Y211D01*
X1530Y212D01*
X1527Y212D01*
X1525Y213D01*
X1524Y213D01*
X1524Y213D01*
D02*
G37*
G36*
X378Y368D02*
X202D01*
Y360D01*
Y352D01*
Y344D01*
Y336D01*
Y328D01*
Y320D01*
Y312D01*
Y304D01*
Y296D01*
Y288D01*
Y280D01*
Y272D01*
Y264D01*
Y256D01*
Y248D01*
Y240D01*
Y232D01*
Y224D01*
Y216D01*
Y208D01*
Y200D01*
Y192D01*
X378D01*
Y200D01*
Y208D01*
Y216D01*
Y224D01*
Y232D01*
Y240D01*
Y248D01*
Y256D01*
Y264D01*
Y272D01*
Y280D01*
Y288D01*
Y296D01*
Y304D01*
Y312D01*
Y320D01*
Y328D01*
Y336D01*
Y344D01*
Y352D01*
Y360D01*
Y368D01*
D02*
G37*
%LPD*%
G36*
X314Y336D02*
X330D01*
Y328D01*
X338D01*
Y320D01*
X346D01*
Y304D01*
X354D01*
Y264D01*
X346D01*
Y248D01*
X338D01*
Y240D01*
X330D01*
Y232D01*
X314D01*
Y224D01*
X258D01*
Y232D01*
X250D01*
Y240D01*
X242D01*
Y248D01*
X234D01*
Y264D01*
X226D01*
Y304D01*
X234D01*
Y320D01*
X242D01*
Y328D01*
X250D01*
Y336D01*
X266D01*
Y344D01*
X314D01*
Y336D01*
D02*
G37*
G36*
X1523Y204D02*
X1525Y203D01*
X1527Y203D01*
X1529Y202D01*
X1530Y202D01*
X1531Y201D01*
X1532Y201D01*
X1532Y201D01*
X1532D01*
X1534Y200D01*
X1536Y198D01*
X1537Y197D01*
X1538Y196D01*
X1539Y195D01*
X1540Y194D01*
X1540Y193D01*
X1540Y193D01*
Y193D01*
X1541Y191D01*
X1542Y189D01*
X1542Y187D01*
X1542Y185D01*
X1543Y183D01*
X1543Y182D01*
Y181D01*
Y181D01*
Y181D01*
Y181D01*
X1543Y178D01*
X1542Y176D01*
X1542Y175D01*
X1542Y173D01*
X1542Y172D01*
X1541Y171D01*
X1541Y170D01*
X1541Y170D01*
X1541Y169D01*
X1540Y167D01*
X1539Y166D01*
X1538Y165D01*
X1538Y164D01*
X1537Y164D01*
X1537Y163D01*
X1537Y163D01*
X1536Y162D01*
X1535Y162D01*
X1534Y161D01*
X1532Y161D01*
X1532Y160D01*
X1531Y160D01*
X1530Y160D01*
X1530Y160D01*
X1527Y159D01*
X1526Y159D01*
X1525Y159D01*
X1523D01*
X1523Y159D01*
X1522D01*
X1519Y159D01*
X1517Y159D01*
X1516Y159D01*
X1515D01*
X1515Y159D01*
X1514Y159D01*
X1514D01*
X1511Y160D01*
X1510Y160D01*
X1509Y160D01*
X1508Y161D01*
X1507Y161D01*
X1507Y161D01*
X1506D01*
Y171D01*
X1512D01*
X1513Y170D01*
X1513Y169D01*
X1514Y168D01*
X1514Y167D01*
X1515Y166D01*
X1515Y166D01*
X1515Y165D01*
X1515Y165D01*
X1516Y165D01*
X1517Y164D01*
X1518Y164D01*
X1519Y164D01*
X1520Y163D01*
X1521Y163D01*
X1521D01*
X1523Y164D01*
X1524Y164D01*
X1526Y165D01*
X1527Y166D01*
X1528Y166D01*
X1528Y167D01*
X1528Y168D01*
X1529Y168D01*
X1530Y170D01*
X1530Y172D01*
X1531Y174D01*
X1531Y176D01*
X1531Y178D01*
Y178D01*
X1531Y179D01*
Y180D01*
Y180D01*
Y180D01*
Y180D01*
X1531Y183D01*
X1531Y186D01*
X1530Y189D01*
X1530Y190D01*
X1529Y192D01*
X1529Y193D01*
X1528Y194D01*
X1528Y194D01*
X1527Y196D01*
X1526Y197D01*
X1524Y198D01*
X1523Y198D01*
X1522Y199D01*
X1521Y199D01*
X1520Y199D01*
X1520D01*
X1519Y199D01*
X1518Y198D01*
X1517Y198D01*
X1516Y198D01*
X1516Y197D01*
X1515Y197D01*
X1515Y197D01*
X1515Y197D01*
X1514Y196D01*
X1514Y195D01*
X1513Y193D01*
X1513Y193D01*
X1512Y192D01*
X1512Y191D01*
Y191D01*
X1506D01*
Y201D01*
X1509Y202D01*
X1511Y203D01*
X1514Y203D01*
X1516Y203D01*
X1518Y204D01*
X1519D01*
X1519Y204D01*
X1521D01*
X1523Y204D01*
D02*
G37*
D46*
X1550Y350D02*
Y410D01*
X1520D01*
X1510Y400D01*
Y380D01*
X1520Y370D01*
X1550D01*
X1530D02*
X1510Y350D01*
X1460D02*
X1480D01*
X1490Y360D01*
Y380D01*
X1480Y390D01*
X1460D01*
X1450Y380D01*
Y370D01*
X1490D01*
X1420Y390D02*
X1400D01*
X1390Y380D01*
Y350D01*
X1420D01*
X1430Y360D01*
X1420Y370D01*
X1390D01*
X1370Y350D02*
X1350D01*
X1360D01*
Y410D01*
X1370D01*
X1320Y380D02*
X1280D01*
X1250Y400D02*
Y390D01*
X1260D01*
X1240D01*
X1250D01*
Y360D01*
X1240Y350D01*
X1210D02*
X1190D01*
X1200D01*
Y390D01*
X1210D01*
X1160Y350D02*
Y390D01*
X1150D01*
X1140Y380D01*
Y350D01*
Y380D01*
X1130Y390D01*
X1120Y380D01*
Y350D01*
X1070D02*
X1090D01*
X1100Y360D01*
Y380D01*
X1090Y390D01*
X1070D01*
X1060Y380D01*
Y370D01*
X1100D01*
X980Y410D02*
X940D01*
X960D01*
Y350D01*
X890D02*
X910D01*
X920Y360D01*
Y380D01*
X910Y390D01*
X890D01*
X880Y380D01*
Y370D01*
X920D01*
X860Y350D02*
X830D01*
X820Y360D01*
X830Y370D01*
X850D01*
X860Y380D01*
X850Y390D01*
X820D01*
X790Y400D02*
Y390D01*
X800D01*
X780D01*
X790D01*
Y360D01*
X780Y350D01*
X720D02*
X740D01*
X750Y360D01*
Y380D01*
X740Y390D01*
X720D01*
X710Y380D01*
Y370D01*
X750D01*
X690Y390D02*
Y350D01*
Y370D01*
X680Y380D01*
X670Y390D01*
X660D01*
X1550Y310D02*
Y250D01*
X1520D01*
X1510Y260D01*
Y300D01*
X1520Y310D01*
X1550D01*
X1490Y250D02*
X1470D01*
X1480D01*
Y290D01*
X1490D01*
X1430D02*
X1410D01*
X1400Y280D01*
Y250D01*
X1430D01*
X1440Y260D01*
X1430Y270D01*
X1400D01*
X1370Y290D02*
X1350D01*
X1340Y280D01*
Y250D01*
X1370D01*
X1380Y260D01*
X1370Y270D01*
X1340D01*
X1220Y310D02*
X1240D01*
X1230D01*
Y260D01*
X1240Y250D01*
X1250D01*
X1260Y260D01*
X1190Y290D02*
X1170D01*
X1160Y280D01*
Y250D01*
X1190D01*
X1200Y260D01*
X1190Y270D01*
X1160D01*
X1100Y310D02*
Y250D01*
X1130D01*
X1140Y260D01*
Y280D01*
X1130Y290D01*
X1100D01*
X1070D02*
X1050D01*
X1040Y280D01*
Y250D01*
X1070D01*
X1080Y260D01*
X1070Y270D01*
X1040D01*
X1010Y290D02*
X990D01*
X980Y280D01*
Y250D01*
X1010D01*
X1020Y260D01*
X1010Y270D01*
X980D01*
X960Y250D02*
Y290D01*
X930D01*
X920Y280D01*
Y250D01*
X1450Y150D02*
Y210D01*
X1410Y150D01*
Y210D01*
X1390D02*
X1350D01*
X1370D01*
Y150D01*
X1330D02*
Y210D01*
X1290Y150D01*
Y210D01*
X1270D02*
Y160D01*
X1260Y150D01*
X1240D01*
X1230Y160D01*
Y210D01*
X1110Y150D02*
X1150D01*
X1110Y190D01*
Y200D01*
X1120Y210D01*
X1140D01*
X1150Y200D01*
X1090D02*
X1080Y210D01*
X1060D01*
X1050Y200D01*
Y160D01*
X1060Y150D01*
X1080D01*
X1090Y160D01*
Y200D01*
X1030Y150D02*
X1010D01*
X1020D01*
Y210D01*
X1030Y200D01*
X940Y210D02*
X980D01*
Y180D01*
X960Y190D01*
X950D01*
X940Y180D01*
Y160D01*
X950Y150D01*
X970D01*
X980Y160D01*
D64*
X570Y3630D02*
G03*
X570Y3630I-40J0D01*
G01*
Y3520D02*
G03*
X570Y3520I-40J0D01*
G01*
Y3740D02*
G03*
X570Y3740I-40J0D01*
G01*
Y3410D02*
G03*
X570Y3410I-40J0D01*
G01*
X3450Y1900D02*
Y1921D01*
X3439Y1932D01*
X3429Y1921D01*
Y1900D01*
Y1916D01*
X3450D01*
X3418Y1900D02*
X3407D01*
X3413D01*
Y1932D01*
X3418Y1927D01*
X3391Y1900D02*
X3381D01*
X3386D01*
Y1932D01*
X3391Y1927D01*
X3450Y2000D02*
Y2021D01*
X3439Y2032D01*
X3429Y2021D01*
Y2000D01*
Y2016D01*
X3450D01*
X3418Y2000D02*
X3407D01*
X3413D01*
Y2032D01*
X3418Y2027D01*
X3391D02*
X3386Y2032D01*
X3375D01*
X3370Y2027D01*
Y2005D01*
X3375Y2000D01*
X3386D01*
X3391Y2005D01*
Y2027D01*
X3450Y2100D02*
Y2121D01*
X3439Y2132D01*
X3429Y2121D01*
Y2100D01*
Y2116D01*
X3450D01*
X3418Y2105D02*
X3413Y2100D01*
X3402D01*
X3397Y2105D01*
Y2127D01*
X3402Y2132D01*
X3413D01*
X3418Y2127D01*
Y2121D01*
X3413Y2116D01*
X3397D01*
X3450Y2200D02*
Y2221D01*
X3439Y2232D01*
X3429Y2221D01*
Y2200D01*
Y2216D01*
X3450D01*
X3418Y2227D02*
X3413Y2232D01*
X3402D01*
X3397Y2227D01*
Y2221D01*
X3402Y2216D01*
X3397Y2211D01*
Y2205D01*
X3402Y2200D01*
X3413D01*
X3418Y2205D01*
Y2211D01*
X3413Y2216D01*
X3418Y2221D01*
Y2227D01*
X3413Y2216D02*
X3402D01*
X3450Y2500D02*
Y2521D01*
X3439Y2532D01*
X3429Y2521D01*
Y2500D01*
Y2516D01*
X3450D01*
X3418Y2532D02*
X3397D01*
Y2527D01*
X3418Y2505D01*
Y2500D01*
X3450Y2600D02*
Y2621D01*
X3439Y2632D01*
X3429Y2621D01*
Y2600D01*
Y2616D01*
X3450D01*
X3397Y2632D02*
X3407Y2627D01*
X3418Y2616D01*
Y2605D01*
X3413Y2600D01*
X3402D01*
X3397Y2605D01*
Y2611D01*
X3402Y2616D01*
X3418D01*
X3450Y2700D02*
Y2721D01*
X3439Y2732D01*
X3429Y2721D01*
Y2700D01*
Y2716D01*
X3450D01*
X3397Y2732D02*
X3418D01*
Y2716D01*
X3407Y2721D01*
X3402D01*
X3397Y2716D01*
Y2705D01*
X3402Y2700D01*
X3413D01*
X3418Y2705D01*
X3450Y2800D02*
Y2821D01*
X3439Y2832D01*
X3429Y2821D01*
Y2800D01*
Y2816D01*
X3450D01*
X3402Y2800D02*
Y2832D01*
X3418Y2816D01*
X3397D01*
X3450Y900D02*
Y921D01*
X3439Y932D01*
X3429Y921D01*
Y900D01*
Y916D01*
X3450D01*
X3397Y900D02*
X3418D01*
X3397Y921D01*
Y927D01*
X3402Y932D01*
X3413D01*
X3418Y927D01*
X3386D02*
X3381Y932D01*
X3370D01*
X3365Y927D01*
Y921D01*
X3370Y916D01*
X3375D01*
X3370D01*
X3365Y911D01*
Y905D01*
X3370Y900D01*
X3381D01*
X3386Y905D01*
X3450Y1000D02*
Y1021D01*
X3439Y1032D01*
X3429Y1021D01*
Y1000D01*
Y1016D01*
X3450D01*
X3397Y1000D02*
X3418D01*
X3397Y1021D01*
Y1027D01*
X3402Y1032D01*
X3413D01*
X3418Y1027D01*
X3365Y1000D02*
X3386D01*
X3365Y1021D01*
Y1027D01*
X3370Y1032D01*
X3381D01*
X3386Y1027D01*
X3450Y1100D02*
Y1121D01*
X3439Y1132D01*
X3429Y1121D01*
Y1100D01*
Y1116D01*
X3450D01*
X3397Y1100D02*
X3418D01*
X3397Y1121D01*
Y1127D01*
X3402Y1132D01*
X3413D01*
X3418Y1127D01*
X3386Y1100D02*
X3375D01*
X3381D01*
Y1132D01*
X3386Y1127D01*
X3450Y1200D02*
Y1221D01*
X3439Y1232D01*
X3429Y1221D01*
Y1200D01*
Y1216D01*
X3450D01*
X3397Y1200D02*
X3418D01*
X3397Y1221D01*
Y1227D01*
X3402Y1232D01*
X3413D01*
X3418Y1227D01*
X3386D02*
X3381Y1232D01*
X3370D01*
X3365Y1227D01*
Y1205D01*
X3370Y1200D01*
X3381D01*
X3386Y1205D01*
Y1227D01*
X3450Y1300D02*
Y1321D01*
X3439Y1332D01*
X3429Y1321D01*
Y1300D01*
Y1316D01*
X3450D01*
X3418Y1300D02*
X3407D01*
X3413D01*
Y1332D01*
X3418Y1327D01*
X3391Y1305D02*
X3386Y1300D01*
X3375D01*
X3370Y1305D01*
Y1327D01*
X3375Y1332D01*
X3386D01*
X3391Y1327D01*
Y1321D01*
X3386Y1316D01*
X3370D01*
X3450Y1400D02*
Y1421D01*
X3439Y1432D01*
X3429Y1421D01*
Y1400D01*
Y1416D01*
X3450D01*
X3418Y1400D02*
X3407D01*
X3413D01*
Y1432D01*
X3418Y1427D01*
X3391D02*
X3386Y1432D01*
X3375D01*
X3370Y1427D01*
Y1421D01*
X3375Y1416D01*
X3370Y1411D01*
Y1405D01*
X3375Y1400D01*
X3386D01*
X3391Y1405D01*
Y1411D01*
X3386Y1416D01*
X3391Y1421D01*
Y1427D01*
X3386Y1416D02*
X3375D01*
X3450Y1500D02*
Y1521D01*
X3439Y1532D01*
X3429Y1521D01*
Y1500D01*
Y1516D01*
X3450D01*
X3418Y1500D02*
X3407D01*
X3413D01*
Y1532D01*
X3418Y1527D01*
X3391Y1532D02*
X3370D01*
Y1527D01*
X3391Y1505D01*
Y1500D01*
X3450Y1600D02*
Y1621D01*
X3439Y1632D01*
X3429Y1621D01*
Y1600D01*
Y1616D01*
X3450D01*
X3418Y1600D02*
X3407D01*
X3413D01*
Y1632D01*
X3418Y1627D01*
X3370Y1632D02*
X3381Y1627D01*
X3391Y1616D01*
Y1605D01*
X3386Y1600D01*
X3375D01*
X3370Y1605D01*
Y1611D01*
X3375Y1616D01*
X3391D01*
X3892Y2711D02*
Y2690D01*
X3876D01*
X3881Y2701D01*
Y2706D01*
X3876Y2711D01*
X3865D01*
X3860Y2706D01*
Y2695D01*
X3865Y2690D01*
X3892Y2722D02*
X3871D01*
X3860Y2733D01*
X3871Y2743D01*
X3892D01*
X3855Y2754D02*
Y2775D01*
X3892Y2786D02*
Y2797D01*
Y2791D01*
X3860D01*
Y2786D01*
Y2797D01*
Y2813D02*
X3892D01*
X3860Y2834D01*
X3892D01*
X3624Y1604D02*
X3631Y1604D01*
X3639Y1596D01*
Y1589D01*
X3624Y1574D01*
X3616D01*
X3609Y1581D01*
Y1589D01*
X3616Y1596D01*
X3624Y1589D01*
X3597Y1593D02*
X3620Y1615D01*
X3582Y1608D01*
X3605Y1630D01*
X3597Y1638D02*
X3575Y1615D01*
X3563Y1627D01*
Y1634D01*
X3579Y1649D01*
X3586D01*
X3597Y1638D01*
X3624Y904D02*
X3631Y904D01*
X3639Y896D01*
Y889D01*
X3624Y874D01*
X3616D01*
X3609Y881D01*
Y889D01*
X3616Y896D01*
X3624Y889D01*
X3597Y893D02*
X3620Y915D01*
X3582Y908D01*
X3605Y930D01*
X3597Y938D02*
X3575Y915D01*
X3563Y927D01*
Y934D01*
X3579Y949D01*
X3586D01*
X3597Y938D01*
X3894Y1204D02*
X3901Y1204D01*
X3909Y1196D01*
Y1189D01*
X3894Y1174D01*
X3886D01*
X3879Y1181D01*
Y1189D01*
X3886Y1196D01*
X3894Y1189D01*
X3867Y1193D02*
X3890Y1215D01*
X3852Y1208D01*
X3875Y1230D01*
X3867Y1238D02*
X3845Y1215D01*
X3833Y1227D01*
Y1234D01*
X3849Y1249D01*
X3856D01*
X3867Y1238D01*
X3894Y1404D02*
X3901Y1404D01*
X3909Y1396D01*
Y1389D01*
X3894Y1374D01*
X3886D01*
X3879Y1381D01*
Y1389D01*
X3886Y1396D01*
X3894Y1389D01*
X3867Y1393D02*
X3890Y1415D01*
X3852Y1408D01*
X3875Y1430D01*
X3867Y1438D02*
X3845Y1415D01*
X3833Y1427D01*
Y1434D01*
X3849Y1449D01*
X3856D01*
X3867Y1438D01*
X3894Y1894D02*
X3901Y1894D01*
X3909Y1886D01*
Y1879D01*
X3894Y1864D01*
X3886D01*
X3879Y1871D01*
Y1879D01*
X3886Y1886D01*
X3894Y1879D01*
X3867Y1883D02*
X3890Y1905D01*
X3852Y1898D01*
X3875Y1920D01*
X3867Y1928D02*
X3845Y1905D01*
X3833Y1917D01*
Y1924D01*
X3849Y1939D01*
X3856D01*
X3867Y1928D01*
X3894Y2204D02*
X3901Y2204D01*
X3909Y2196D01*
Y2189D01*
X3894Y2174D01*
X3886D01*
X3879Y2181D01*
Y2189D01*
X3886Y2196D01*
X3894Y2189D01*
X3867Y2193D02*
X3890Y2215D01*
X3852Y2208D01*
X3875Y2230D01*
X3867Y2238D02*
X3845Y2215D01*
X3833Y2227D01*
Y2234D01*
X3849Y2249D01*
X3856D01*
X3867Y2238D01*
X3624Y2404D02*
X3631Y2404D01*
X3639Y2396D01*
Y2389D01*
X3624Y2374D01*
X3616D01*
X3609Y2381D01*
Y2389D01*
X3616Y2396D01*
X3624Y2389D01*
X3597Y2393D02*
X3620Y2415D01*
X3582Y2408D01*
X3605Y2430D01*
X3597Y2438D02*
X3575Y2415D01*
X3563Y2427D01*
Y2434D01*
X3579Y2449D01*
X3586D01*
X3597Y2438D01*
X3620Y1770D02*
X3635Y1785D01*
X3635Y1800D01*
X3620Y1800D01*
X3605Y1785D01*
X3616Y1796D01*
X3631Y1781D01*
X3601Y1796D02*
X3594D01*
X3586Y1804D01*
Y1811D01*
X3601Y1827D01*
X3609Y1827D01*
X3616Y1819D01*
X3616Y1811D01*
X3612Y1808D01*
X3605D01*
X3594Y1819D01*
X3620Y1670D02*
X3635Y1685D01*
X3635Y1700D01*
X3620Y1700D01*
X3605Y1685D01*
X3616Y1696D01*
X3631Y1681D01*
X3597Y1693D02*
X3590Y1700D01*
X3594Y1696D01*
X3616Y1719D01*
X3616Y1711D01*
X3579D02*
X3571Y1719D01*
X3575Y1715D01*
X3597Y1738D01*
Y1730D01*
X3620Y1370D02*
X3635Y1385D01*
X3635Y1400D01*
X3620Y1400D01*
X3605Y1385D01*
X3616Y1396D01*
X3631Y1381D01*
X3605Y1430D02*
X3620Y1415D01*
X3609Y1404D01*
X3605Y1415D01*
X3601Y1419D01*
X3594D01*
X3586Y1411D01*
Y1404D01*
X3594Y1396D01*
X3601D01*
X3620Y1270D02*
X3635Y1285D01*
X3635Y1300D01*
X3620Y1300D01*
X3605Y1285D01*
X3616Y1296D01*
X3631Y1281D01*
X3605Y1330D02*
X3609Y1319D01*
Y1304D01*
X3601Y1296D01*
X3594D01*
X3586Y1304D01*
Y1311D01*
X3590Y1315D01*
X3597D01*
X3609Y1304D01*
X3620Y1170D02*
X3635Y1185D01*
X3635Y1200D01*
X3620Y1200D01*
X3605Y1185D01*
X3616Y1196D01*
X3631Y1181D01*
X3597Y1193D02*
X3590Y1200D01*
X3594Y1196D01*
X3616Y1219D01*
X3616Y1211D01*
X3597Y1230D02*
Y1238D01*
X3590Y1245D01*
X3582Y1245D01*
X3579Y1242D01*
Y1234D01*
X3582Y1230D01*
X3579Y1234D01*
X3571D01*
X3567Y1230D01*
Y1223D01*
X3575Y1215D01*
X3582D01*
X3620Y1070D02*
X3635Y1085D01*
X3635Y1100D01*
X3620Y1100D01*
X3605Y1085D01*
X3616Y1096D01*
X3631Y1081D01*
X3597Y1093D02*
X3590Y1100D01*
X3594Y1096D01*
X3616Y1119D01*
X3616Y1111D01*
X3582Y1115D02*
X3575D01*
X3567Y1123D01*
Y1130D01*
X3582Y1145D01*
X3590Y1145D01*
X3597Y1138D01*
Y1130D01*
X3594Y1127D01*
X3586D01*
X3575Y1138D01*
X3900Y870D02*
X3915Y885D01*
X3915Y900D01*
X3900Y900D01*
X3885Y885D01*
X3896Y896D01*
X3911Y881D01*
X3862Y908D02*
X3877Y893D01*
Y923D01*
X3881Y927D01*
X3889Y927D01*
X3896Y919D01*
X3896Y911D01*
X3855Y915D02*
X3847Y923D01*
X3851Y919D01*
X3874Y942D01*
X3874Y934D01*
X3900Y970D02*
X3915Y985D01*
X3915Y1000D01*
X3900Y1000D01*
X3885Y985D01*
X3896Y996D01*
X3911Y981D01*
X3862Y1008D02*
X3877Y993D01*
Y1023D01*
X3881Y1027D01*
X3889Y1027D01*
X3896Y1019D01*
X3896Y1011D01*
X3874Y1034D02*
X3874Y1042D01*
X3866Y1049D01*
X3859D01*
X3843Y1034D01*
Y1027D01*
X3851Y1019D01*
X3859D01*
X3874Y1034D01*
X3900Y1070D02*
X3915Y1085D01*
X3915Y1100D01*
X3900Y1100D01*
X3885Y1085D01*
X3896Y1096D01*
X3911Y1081D01*
X3877Y1093D02*
X3870Y1100D01*
X3874Y1096D01*
X3896Y1119D01*
X3896Y1111D01*
X3866Y1149D02*
X3870Y1138D01*
Y1123D01*
X3862Y1115D01*
X3855D01*
X3847Y1123D01*
Y1130D01*
X3851Y1134D01*
X3859D01*
X3870Y1123D01*
X3900Y1270D02*
X3915Y1285D01*
X3915Y1300D01*
X3900Y1300D01*
X3885Y1285D01*
X3896Y1296D01*
X3911Y1281D01*
X3877Y1293D02*
X3870Y1300D01*
X3874Y1296D01*
X3896Y1319D01*
X3896Y1311D01*
X3843Y1327D02*
X3859Y1311D01*
Y1342D01*
X3862Y1345D01*
X3870Y1345D01*
X3877Y1338D01*
Y1330D01*
X3900Y1560D02*
X3915Y1575D01*
X3915Y1590D01*
X3900Y1590D01*
X3885Y1575D01*
X3896Y1586D01*
X3911Y1571D01*
X3900Y1605D02*
X3885Y1620D01*
X3881Y1617D01*
Y1586D01*
X3877Y1583D01*
X3900Y1670D02*
X3915Y1685D01*
X3915Y1700D01*
X3900Y1700D01*
X3885Y1685D01*
X3896Y1696D01*
X3911Y1681D01*
X3896Y1711D02*
X3896Y1719D01*
X3889Y1727D01*
X3881Y1727D01*
X3877Y1723D01*
Y1715D01*
X3870D01*
X3866Y1711D01*
Y1704D01*
X3874Y1696D01*
X3881D01*
X3885Y1700D01*
Y1708D01*
X3892D01*
X3896Y1711D01*
X3885Y1708D02*
X3877Y1715D01*
X3900Y1750D02*
X3915Y1765D01*
X3915Y1780D01*
X3900Y1780D01*
X3885Y1765D01*
X3896Y1776D01*
X3911Y1761D01*
X3862Y1788D02*
X3877Y1773D01*
Y1803D01*
X3881Y1807D01*
X3889Y1807D01*
X3896Y1799D01*
X3896Y1791D01*
X3862Y1833D02*
X3877Y1818D01*
X3866Y1807D01*
X3862Y1818D01*
X3859Y1822D01*
X3851D01*
X3843Y1814D01*
Y1807D01*
X3851Y1799D01*
X3859D01*
X3900Y1970D02*
X3915Y1985D01*
X3915Y2000D01*
X3900Y2000D01*
X3885Y1985D01*
X3896Y1996D01*
X3911Y1981D01*
X3862Y2008D02*
X3877Y1993D01*
Y2023D01*
X3881Y2027D01*
X3889Y2027D01*
X3896Y2019D01*
X3896Y2011D01*
X3843Y2027D02*
X3866Y2049D01*
Y2027D01*
X3851Y2042D01*
X3900Y2080D02*
X3915Y2095D01*
X3915Y2110D01*
X3900Y2110D01*
X3885Y2095D01*
X3896Y2106D01*
X3911Y2091D01*
X3862Y2118D02*
X3877Y2103D01*
Y2133D01*
X3881Y2137D01*
X3889Y2137D01*
X3896Y2129D01*
X3896Y2121D01*
X3874Y2144D02*
X3874Y2152D01*
X3866Y2159D01*
X3859D01*
X3855Y2155D01*
Y2148D01*
X3859Y2144D01*
X3855Y2148D01*
X3847D01*
X3843Y2144D01*
Y2137D01*
X3851Y2129D01*
X3859D01*
X3620Y1870D02*
X3635Y1885D01*
X3635Y1900D01*
X3620Y1900D01*
X3605Y1885D01*
X3616Y1896D01*
X3631Y1881D01*
X3597Y1893D02*
X3590Y1900D01*
X3594Y1896D01*
X3616Y1919D01*
X3616Y1911D01*
X3597Y1930D02*
Y1938D01*
X3590Y1945D01*
X3582Y1945D01*
X3567Y1930D01*
Y1923D01*
X3575Y1915D01*
X3582D01*
X3597Y1930D01*
X3620Y2070D02*
X3635Y2085D01*
X3635Y2100D01*
X3620Y2100D01*
X3605Y2085D01*
X3616Y2096D01*
X3631Y2081D01*
X3582Y2108D02*
X3597Y2093D01*
Y2123D01*
X3601Y2127D01*
X3609Y2127D01*
X3616Y2119D01*
X3616Y2111D01*
X3560Y2130D02*
X3575Y2115D01*
Y2145D01*
X3579Y2149D01*
X3586D01*
X3594Y2142D01*
X3594Y2134D01*
X3620Y2670D02*
X3635Y2685D01*
X3635Y2700D01*
X3620Y2700D01*
X3605Y2685D01*
X3616Y2696D01*
X3631Y2681D01*
X3582Y2708D02*
X3597Y2693D01*
Y2723D01*
X3601Y2727D01*
X3609Y2727D01*
X3616Y2719D01*
X3616Y2711D01*
X3620Y2570D02*
X3635Y2585D01*
X3635Y2600D01*
X3620Y2600D01*
X3605Y2585D01*
X3616Y2596D01*
X3631Y2581D01*
X3616Y2611D02*
X3616Y2619D01*
X3609Y2627D01*
X3601Y2627D01*
X3597Y2623D01*
Y2615D01*
X3601Y2611D01*
X3597Y2615D01*
X3590D01*
X3586Y2611D01*
Y2604D01*
X3594Y2596D01*
X3601D01*
X3620Y2470D02*
X3635Y2485D01*
X3635Y2500D01*
X3620Y2500D01*
X3605Y2485D01*
X3616Y2496D01*
X3631Y2481D01*
X3586Y2504D02*
X3609Y2527D01*
X3609Y2504D01*
X3594Y2519D01*
X3620Y2270D02*
X3635Y2285D01*
X3635Y2300D01*
X3620Y2300D01*
X3605Y2285D01*
X3616Y2296D01*
X3631Y2281D01*
X3597Y2293D02*
X3590Y2300D01*
X3594Y2296D01*
X3616Y2319D01*
X3616Y2311D01*
X3601Y2334D02*
X3586Y2349D01*
X3582Y2345D01*
Y2315D01*
X3579Y2311D01*
X3900Y2270D02*
X3915Y2285D01*
X3915Y2300D01*
X3900Y2300D01*
X3885Y2285D01*
X3896Y2296D01*
X3911Y2281D01*
X3877Y2293D02*
X3870Y2300D01*
X3874Y2296D01*
X3896Y2319D01*
X3896Y2311D01*
X3877Y2330D02*
Y2338D01*
X3870Y2345D01*
X3862Y2345D01*
X3859Y2342D01*
Y2334D01*
X3851D01*
X3847Y2330D01*
Y2323D01*
X3855Y2315D01*
X3862D01*
X3866Y2319D01*
Y2327D01*
X3874D01*
X3877Y2330D01*
X3866Y2327D02*
X3859Y2334D01*
X3900Y2370D02*
X3915Y2385D01*
X3915Y2400D01*
X3900Y2400D01*
X3885Y2385D01*
X3896Y2396D01*
X3911Y2381D01*
X3877Y2393D02*
X3870Y2400D01*
X3874Y2396D01*
X3896Y2419D01*
X3896Y2411D01*
X3866Y2449D02*
X3881Y2434D01*
X3870Y2423D01*
X3866Y2434D01*
X3862Y2438D01*
X3855D01*
X3847Y2430D01*
Y2423D01*
X3855Y2415D01*
X3862D01*
X3900Y2480D02*
X3915Y2495D01*
X3915Y2510D01*
X3900Y2510D01*
X3885Y2495D01*
X3896Y2506D01*
X3911Y2491D01*
X3877Y2503D02*
X3870Y2510D01*
X3874Y2506D01*
X3896Y2529D01*
X3896Y2521D01*
X3847Y2533D02*
X3870Y2555D01*
X3870Y2533D01*
X3855Y2548D01*
X3894Y2604D02*
X3901Y2604D01*
X3909Y2596D01*
Y2589D01*
X3894Y2574D01*
X3886D01*
X3879Y2581D01*
Y2589D01*
X3886Y2596D01*
X3894Y2589D01*
X3867Y2593D02*
X3890Y2615D01*
X3852Y2608D01*
X3875Y2630D01*
X3867Y2638D02*
X3845Y2615D01*
X3833Y2627D01*
Y2634D01*
X3849Y2649D01*
X3856D01*
X3867Y2638D01*
X609Y3730D02*
X624D01*
X628Y3728D01*
X630Y3725D01*
Y3721D01*
X628Y3718D01*
X624Y3713D01*
X609D02*
X630D01*
X603Y3684D02*
X600Y3687D01*
X598Y3691D01*
Y3697D01*
X600Y3702D01*
X603Y3705D01*
X606D01*
X609Y3703D01*
X610Y3702D01*
X612Y3699D01*
X615Y3690D01*
X616Y3687D01*
X618Y3685D01*
X621Y3684D01*
X625D01*
X628Y3687D01*
X630Y3691D01*
Y3697D01*
X628Y3702D01*
X625Y3705D01*
X598Y3676D02*
X630D01*
X598D02*
Y3666D01*
X600Y3661D01*
X603Y3658D01*
X606Y3657D01*
X610Y3655D01*
X618D01*
X622Y3657D01*
X625Y3658D01*
X628Y3661D01*
X630Y3666D01*
Y3676D01*
X641Y3648D02*
Y3624D01*
X598Y3609D02*
X630D01*
X598Y3619D02*
Y3598D01*
X618Y3594D02*
Y3576D01*
X615D01*
X612Y3577D01*
X610Y3579D01*
X609Y3582D01*
Y3587D01*
X610Y3590D01*
X613Y3593D01*
X618Y3594D01*
X621D01*
X625Y3593D01*
X628Y3590D01*
X630Y3587D01*
Y3582D01*
X628Y3579D01*
X625Y3576D01*
X613Y3552D02*
X610Y3554D01*
X609Y3558D01*
Y3563D01*
X610Y3568D01*
X613Y3569D01*
X616Y3568D01*
X618Y3565D01*
X619Y3557D01*
X621Y3554D01*
X624Y3552D01*
X625D01*
X628Y3554D01*
X630Y3558D01*
Y3563D01*
X628Y3568D01*
X625Y3569D01*
X598Y3541D02*
X624D01*
X628Y3540D01*
X630Y3537D01*
Y3533D01*
X609Y3546D02*
Y3535D01*
Y3529D02*
X641D01*
X613D02*
X610Y3526D01*
X609Y3523D01*
Y3518D01*
X610Y3515D01*
X613Y3512D01*
X618Y3511D01*
X621D01*
X625Y3512D01*
X628Y3515D01*
X630Y3518D01*
Y3523D01*
X628Y3526D01*
X625Y3529D01*
X609Y3496D02*
X610Y3499D01*
X613Y3502D01*
X618Y3504D01*
X621D01*
X625Y3502D01*
X628Y3499D01*
X630Y3496D01*
Y3492D01*
X628Y3489D01*
X625Y3485D01*
X621Y3484D01*
X618D01*
X613Y3485D01*
X610Y3489D01*
X609Y3492D01*
Y3496D01*
X598Y3474D02*
X600Y3472D01*
X598Y3471D01*
X596Y3472D01*
X598Y3474D01*
X609Y3472D02*
X630D01*
X609Y3465D02*
X630D01*
X615D02*
X610Y3461D01*
X609Y3458D01*
Y3453D01*
X610Y3450D01*
X615Y3448D01*
X630D01*
X598Y3436D02*
X624D01*
X628Y3434D01*
X630Y3431D01*
Y3428D01*
X609Y3440D02*
Y3429D01*
X613Y3407D02*
X610Y3408D01*
X609Y3413D01*
Y3417D01*
X610Y3422D01*
X613Y3423D01*
X616Y3422D01*
X618Y3419D01*
X619Y3411D01*
X621Y3408D01*
X624Y3407D01*
X625D01*
X628Y3408D01*
X630Y3413D01*
Y3417D01*
X628Y3422D01*
X625Y3423D01*
X433Y3419D02*
X430Y3422D01*
X428Y3426D01*
Y3432D01*
X430Y3437D01*
X433Y3440D01*
X436D01*
X439Y3438D01*
X440Y3437D01*
X442Y3434D01*
X445Y3425D01*
X446Y3422D01*
X448Y3420D01*
X451Y3419D01*
X455D01*
X458Y3422D01*
X460Y3426D01*
Y3432D01*
X458Y3437D01*
X455Y3440D01*
X436Y3389D02*
X433Y3390D01*
X430Y3393D01*
X428Y3396D01*
Y3402D01*
X430Y3405D01*
X433Y3408D01*
X436Y3410D01*
X440Y3412D01*
X448D01*
X452Y3410D01*
X455Y3408D01*
X458Y3405D01*
X460Y3402D01*
Y3396D01*
X458Y3393D01*
X455Y3390D01*
X452Y3389D01*
X428Y3380D02*
X460D01*
X428Y3358D02*
X449Y3380D01*
X442Y3372D02*
X460Y3358D01*
X428Y3560D02*
X460D01*
X428D02*
X460Y3548D01*
X428Y3536D02*
X460Y3548D01*
X428Y3536D02*
X460D01*
X428Y3526D02*
X460D01*
X433Y3498D02*
X430Y3501D01*
X428Y3506D01*
Y3512D01*
X430Y3517D01*
X433Y3520D01*
X436D01*
X439Y3518D01*
X440Y3517D01*
X442Y3514D01*
X445Y3505D01*
X446Y3501D01*
X448Y3500D01*
X451Y3498D01*
X455D01*
X458Y3501D01*
X460Y3506D01*
Y3512D01*
X458Y3517D01*
X455Y3520D01*
X428Y3482D02*
X430Y3485D01*
X433Y3488D01*
X436Y3490D01*
X440Y3491D01*
X448D01*
X452Y3490D01*
X455Y3488D01*
X458Y3485D01*
X460Y3482D01*
Y3476D01*
X458Y3473D01*
X455Y3470D01*
X452Y3468D01*
X448Y3467D01*
X440D01*
X436Y3468D01*
X433Y3470D01*
X430Y3473D01*
X428Y3476D01*
Y3482D01*
Y3690D02*
X460D01*
X428D02*
X460Y3678D01*
X428Y3666D02*
X460Y3678D01*
X428Y3666D02*
X460D01*
X428Y3647D02*
X430Y3650D01*
X433Y3653D01*
X436Y3655D01*
X440Y3656D01*
X448D01*
X452Y3655D01*
X455Y3653D01*
X458Y3650D01*
X460Y3647D01*
Y3641D01*
X458Y3638D01*
X455Y3635D01*
X452Y3634D01*
X448Y3632D01*
X440D01*
X436Y3634D01*
X433Y3635D01*
X430Y3638D01*
X428Y3641D01*
Y3647D01*
X433Y3603D02*
X430Y3606D01*
X428Y3611D01*
Y3617D01*
X430Y3622D01*
X433Y3625D01*
X436D01*
X439Y3623D01*
X440Y3622D01*
X442Y3619D01*
X445Y3609D01*
X446Y3606D01*
X448Y3605D01*
X451Y3603D01*
X455D01*
X458Y3606D01*
X460Y3611D01*
Y3617D01*
X458Y3622D01*
X455Y3625D01*
X428Y3596D02*
X460D01*
X433Y3749D02*
X430Y3752D01*
X428Y3756D01*
Y3762D01*
X430Y3767D01*
X433Y3770D01*
X436D01*
X439Y3768D01*
X440Y3767D01*
X442Y3764D01*
X445Y3755D01*
X446Y3752D01*
X448Y3750D01*
X451Y3749D01*
X455D01*
X458Y3752D01*
X460Y3756D01*
Y3762D01*
X458Y3767D01*
X455Y3770D01*
X433Y3720D02*
X430Y3723D01*
X428Y3728D01*
Y3734D01*
X430Y3738D01*
X433Y3742D01*
X436D01*
X439Y3740D01*
X440Y3738D01*
X442Y3735D01*
X445Y3726D01*
X446Y3723D01*
X448Y3722D01*
X451Y3720D01*
X455D01*
X458Y3723D01*
X460Y3728D01*
Y3734D01*
X458Y3738D01*
X455Y3742D01*
M02*
